<?xml version="1.0" encoding="UTF-8" standalone="no"?>
<svg
   xmlns:dc="http://purl.org/dc/elements/1.1/"
   xmlns:cc="http://creativecommons.org/ns#"
   xmlns:rdf="http://www.w3.org/1999/02/22-rdf-syntax-ns#"
   xmlns:svg="http://www.w3.org/2000/svg"
   xmlns="http://www.w3.org/2000/svg"
   viewBox="0 0 551.35999 434.64099"
   height="434.64099"
   width="551.35999"
   xml:space="preserve"
   id="svg2"
   version="1.1"><metadata
     id="metadata8"><rdf:RDF><cc:Work
         rdf:about=""><dc:format>image/svg+xml</dc:format><dc:type
           rdf:resource="http://purl.org/dc/dcmitype/StillImage" /></cc:Work></rdf:RDF></metadata><defs
     id="defs6"><clipPath
       id="clipPath130"
       clipPathUnits="userSpaceOnUse"><path
         id="path128"
         d="m 49.2,37.54375 h 357.12 v 266.112 H 49.2 Z" /></clipPath></defs><g
     transform="matrix(1.3333333,0,0,-1.3333333,0,434.641)"
     id="g10"><path
       id="path12"
       style="fill:#ffffff;fill-opacity:1;fill-rule:nonzero;stroke:none"
       d="M 0,0 H 413.52 V 325.98075 H 0 Z" /><path
       id="path14"
       style="fill:#ffffff;fill-opacity:1;fill-rule:nonzero;stroke:none"
       d="m 49.2,37.54375 h 357.12 v 266.112 H 49.2 Z" /><path
       id="path16"
       style="fill:#000000;fill-opacity:1;fill-rule:nonzero;stroke:#000000;stroke-width:0.80000001;stroke-linecap:butt;stroke-linejoin:round;stroke-miterlimit:10;stroke-dasharray:none;stroke-opacity:1"
       d="m 65.432727,37.54375 v -3.5" /><g
       transform="translate(57.479602,22.95)"
       id="g18"><text
         id="text22"
         style="font-variant:normal;font-weight:normal;font-size:10px;font-family:'DejaVu Sans';-inkscape-font-specification:DejaVuSans;writing-mode:lr-tb;fill:#000000;fill-opacity:1;fill-rule:nonzero;stroke:none"
         transform="scale(1,-1)"><tspan
           id="tspan20"
           y="0"
           x="0 6.3600001 9.54">0.0</tspan></text>
</g><path
       id="path24"
       style="fill:#000000;fill-opacity:1;fill-rule:nonzero;stroke:#000000;stroke-width:0.80000001;stroke-linecap:butt;stroke-linejoin:round;stroke-miterlimit:10;stroke-dasharray:none;stroke-opacity:1"
       d="m 130.36364,37.54375 v -3.5" /><g
       transform="translate(122.41051,22.95)"
       id="g26"><text
         id="text30"
         style="font-variant:normal;font-weight:normal;font-size:10px;font-family:'DejaVu Sans';-inkscape-font-specification:DejaVuSans;writing-mode:lr-tb;fill:#000000;fill-opacity:1;fill-rule:nonzero;stroke:none"
         transform="scale(1,-1)"><tspan
           id="tspan28"
           y="0"
           x="0 6.3600001 9.54">0.2</tspan></text>
</g><path
       id="path32"
       style="fill:#000000;fill-opacity:1;fill-rule:nonzero;stroke:#000000;stroke-width:0.80000001;stroke-linecap:butt;stroke-linejoin:round;stroke-miterlimit:10;stroke-dasharray:none;stroke-opacity:1"
       d="m 195.29454,37.54375 v -3.5" /><g
       transform="translate(187.34142,22.95)"
       id="g34"><text
         id="text38"
         style="font-variant:normal;font-weight:normal;font-size:10px;font-family:'DejaVu Sans';-inkscape-font-specification:DejaVuSans;writing-mode:lr-tb;fill:#000000;fill-opacity:1;fill-rule:nonzero;stroke:none"
         transform="scale(1,-1)"><tspan
           id="tspan36"
           y="0"
           x="0 6.3600001 9.54">0.4</tspan></text>
</g><path
       id="path40"
       style="fill:#000000;fill-opacity:1;fill-rule:nonzero;stroke:#000000;stroke-width:0.80000001;stroke-linecap:butt;stroke-linejoin:round;stroke-miterlimit:10;stroke-dasharray:none;stroke-opacity:1"
       d="m 260.22545,37.54375 v -3.5" /><g
       transform="translate(252.27233,22.95)"
       id="g42"><text
         id="text46"
         style="font-variant:normal;font-weight:normal;font-size:10px;font-family:'DejaVu Sans';-inkscape-font-specification:DejaVuSans;writing-mode:lr-tb;fill:#000000;fill-opacity:1;fill-rule:nonzero;stroke:none"
         transform="scale(1,-1)"><tspan
           id="tspan44"
           y="0"
           x="0 6.3600001 9.54">0.6</tspan></text>
</g><path
       id="path48"
       style="fill:#000000;fill-opacity:1;fill-rule:nonzero;stroke:#000000;stroke-width:0.80000001;stroke-linecap:butt;stroke-linejoin:round;stroke-miterlimit:10;stroke-dasharray:none;stroke-opacity:1"
       d="m 325.15636,37.54375 v -3.5" /><g
       transform="translate(317.20324,22.95)"
       id="g50"><text
         id="text54"
         style="font-variant:normal;font-weight:normal;font-size:10px;font-family:'DejaVu Sans';-inkscape-font-specification:DejaVuSans;writing-mode:lr-tb;fill:#000000;fill-opacity:1;fill-rule:nonzero;stroke:none"
         transform="scale(1,-1)"><tspan
           id="tspan52"
           y="0"
           x="0 6.3600001 9.54">0.8</tspan></text>
</g><path
       id="path56"
       style="fill:#000000;fill-opacity:1;fill-rule:nonzero;stroke:#000000;stroke-width:0.80000001;stroke-linecap:butt;stroke-linejoin:round;stroke-miterlimit:10;stroke-dasharray:none;stroke-opacity:1"
       d="m 390.08727,37.54375 v -3.5" /><g
       transform="translate(382.13415,22.95)"
       id="g58"><text
         id="text62"
         style="font-variant:normal;font-weight:normal;font-size:10px;font-family:'DejaVu Sans';-inkscape-font-specification:DejaVuSans;writing-mode:lr-tb;fill:#000000;fill-opacity:1;fill-rule:nonzero;stroke:none"
         transform="scale(1,-1)"><tspan
           id="tspan60"
           y="0"
           x="0 6.3600001 9.54">1.0</tspan></text>
</g><g
       transform="translate(109.27563,9.278125)"
       id="g64"><text
         id="text68"
         style="font-variant:normal;font-weight:normal;font-size:10px;font-family:'DejaVu Sans';-inkscape-font-specification:DejaVuSans;writing-mode:lr-tb;fill:#000000;fill-opacity:1;fill-rule:nonzero;stroke:none"
         transform="scale(1,-1)"><tspan
           id="tspan66"
           y="0"
           x="0 7.6999998 10.48 15.69 19.610001 25.74 32.080002 37.580002 43.73 46.91 53.75 56.529999 62.650002 68.989998 75.339996 78.519997 82.440002 88.779999 94.93 98.110001 106.74 112.86 118.07 121.99 125.17 132.87 135.64999 140.86 146.36 150.47 153.25 162.99001 165.77 172.11 178.24001 184.58 188.5 191.67999 199.38 202.16 206.05125 212.20125 217.70125 221.62125 224.40125 230.52126">Distance Along the Most Discriminant Direction</tspan></text>
</g><path
       id="path70"
       style="fill:#000000;fill-opacity:1;fill-rule:nonzero;stroke:#000000;stroke-width:0.80000001;stroke-linecap:butt;stroke-linejoin:round;stroke-miterlimit:10;stroke-dasharray:none;stroke-opacity:1"
       d="M 49.2,37.54375 H 45.7" /><g
       transform="translate(20.871875,33.746875)"
       id="g72"><text
         id="text76"
         style="font-variant:normal;font-weight:normal;font-size:10px;font-family:'DejaVu Sans';-inkscape-font-specification:DejaVuSans;writing-mode:lr-tb;fill:#000000;fill-opacity:1;fill-rule:nonzero;stroke:none"
         transform="scale(1,-1)"><tspan
           id="tspan74"
           y="0"
           x="0 3.6099999 9.9700003 16.33">-20°</tspan></text>
</g><path
       id="path78"
       style="fill:#000000;fill-opacity:1;fill-rule:nonzero;stroke:#000000;stroke-width:0.80000001;stroke-linecap:butt;stroke-linejoin:round;stroke-miterlimit:10;stroke-dasharray:none;stroke-opacity:1"
       d="M 49.2,87.451991 H 45.7" /><g
       transform="translate(30.840625,83.655116)"
       id="g80"><text
         id="text84"
         style="font-variant:normal;font-weight:normal;font-size:10px;font-family:'DejaVu Sans';-inkscape-font-specification:DejaVuSans;writing-mode:lr-tb;fill:#000000;fill-opacity:1;fill-rule:nonzero;stroke:none"
         transform="scale(1,-1)"><tspan
           id="tspan82"
           y="0"
           x="0 6.3600001">0°</tspan></text>
</g><path
       id="path86"
       style="fill:#000000;fill-opacity:1;fill-rule:nonzero;stroke:#000000;stroke-width:0.80000001;stroke-linecap:butt;stroke-linejoin:round;stroke-miterlimit:10;stroke-dasharray:none;stroke-opacity:1"
       d="M 49.2,137.36023 H 45.7" /><g
       transform="translate(24.48125,133.56336)"
       id="g88"><text
         id="text92"
         style="font-variant:normal;font-weight:normal;font-size:10px;font-family:'DejaVu Sans';-inkscape-font-specification:DejaVuSans;writing-mode:lr-tb;fill:#000000;fill-opacity:1;fill-rule:nonzero;stroke:none"
         transform="scale(1,-1)"><tspan
           id="tspan90"
           y="0"
           x="0 6.3600001 12.72">20°</tspan></text>
</g><path
       id="path94"
       style="fill:#000000;fill-opacity:1;fill-rule:nonzero;stroke:#000000;stroke-width:0.80000001;stroke-linecap:butt;stroke-linejoin:round;stroke-miterlimit:10;stroke-dasharray:none;stroke-opacity:1"
       d="M 49.2,187.26847 H 45.7" /><g
       transform="translate(24.48125,183.4716)"
       id="g96"><text
         id="text100"
         style="font-variant:normal;font-weight:normal;font-size:10px;font-family:'DejaVu Sans';-inkscape-font-specification:DejaVuSans;writing-mode:lr-tb;fill:#000000;fill-opacity:1;fill-rule:nonzero;stroke:none"
         transform="scale(1,-1)"><tspan
           id="tspan98"
           y="0"
           x="0 6.3600001 12.72">40°</tspan></text>
</g><path
       id="path102"
       style="fill:#000000;fill-opacity:1;fill-rule:nonzero;stroke:#000000;stroke-width:0.80000001;stroke-linecap:butt;stroke-linejoin:round;stroke-miterlimit:10;stroke-dasharray:none;stroke-opacity:1"
       d="M 49.2,237.17671 H 45.7" /><g
       transform="translate(24.48125,233.37984)"
       id="g104"><text
         id="text108"
         style="font-variant:normal;font-weight:normal;font-size:10px;font-family:'DejaVu Sans';-inkscape-font-specification:DejaVuSans;writing-mode:lr-tb;fill:#000000;fill-opacity:1;fill-rule:nonzero;stroke:none"
         transform="scale(1,-1)"><tspan
           id="tspan106"
           y="0"
           x="0 6.3600001 12.72">60°</tspan></text>
</g><path
       id="path110"
       style="fill:#000000;fill-opacity:1;fill-rule:nonzero;stroke:#000000;stroke-width:0.80000001;stroke-linecap:butt;stroke-linejoin:round;stroke-miterlimit:10;stroke-dasharray:none;stroke-opacity:1"
       d="M 49.2,287.08495 H 45.7" /><g
       transform="translate(24.48125,283.28808)"
       id="g112"><text
         id="text116"
         style="font-variant:normal;font-weight:normal;font-size:10px;font-family:'DejaVu Sans';-inkscape-font-specification:DejaVuSans;writing-mode:lr-tb;fill:#000000;fill-opacity:1;fill-rule:nonzero;stroke:none"
         transform="scale(1,-1)"><tspan
           id="tspan114"
           y="0"
           x="0 6.3600001 12.72">80°</tspan></text>
</g><g
       transform="rotate(90,-41.438156,56.231906)"
       id="g118"><text
         id="text122"
         style="font-variant:normal;font-weight:normal;font-size:10px;font-family:'DejaVu Sans';-inkscape-font-specification:DejaVuSans;writing-mode:lr-tb;fill:#000000;fill-opacity:1;fill-rule:nonzero;stroke:none"
         transform="scale(1,-1)"><tspan
           id="tspan120"
           y="0"
           x="0 7.6999998 10.48 14 17.52 23.67 27.561251 33.71125 40.05125 45.55125 51.701248 54.881248 57.661251 64.001251 67.181252 73.693748 79.813751 83.733749 89.863747 93.783752 96.563751 102.68375 109.02375 112.20375 119.04375 125.38375 131.73375 134.51375 140.66376">Difference in Rotation Angles</tspan></text>
</g><g
       id="g124"><g
         clip-path="url(#clipPath130)"
         id="g126"><path
           id="path132"
           style="fill:none;stroke:#1f77b4;stroke-width:1.5;stroke-linecap:square;stroke-linejoin:round;stroke-miterlimit:10;stroke-dasharray:none;stroke-opacity:1"
           d="m 65.432727,87.329098 0.795286,0.03649 0.770283,-0.720504 0.480859,-0.185315 0.392486,0.470717 0.04885,-0.232235 0.04447,0.590622 0.734827,0.716758 0.46145,0.116685 0.103062,-0.417173 0.05266,0.513543 0.282729,0.873276 0.307096,-0.759835 0.303169,-0.227292 0.352681,0.009 0.09771,0.729567 0.04663,0.740408 0.364305,-0.21139 0.0064,-0.1926 0.138871,0.07545 0.07495,-0.250324 0.348315,-0.667205 0.122966,0.361391 0.0682,-0.350497 0.717946,-0.727321 0.20491,0.959883 0.125692,-0.488872 0.178098,-0.04039 0.214615,0.837709 0.04224,0.663282 0.05296,-0.659898 0.273477,-0.387703 0.02812,-0.263285 0.278491,-0.106026 0.04851,-0.254994 0.391626,0.106558 1.000831,1.429031 0.190416,-1.047714 0.1061,0.01018 0.01623,-0.548577 0.124321,0.64687 0.120677,-0.843449 0.130735,0.0025 0.0059,-0.720789 0.03541,0.41448 0.06775,0.703114 0.08792,-0.895963 0.725631,5.243632 0.167039,0.095 0.161387,1.05789 0.183891,-0.700563 0.105915,-1.032673 0.0051,0.951078 0.04242,-0.150999 0.121567,0.523536 0.203611,-0.163534 0.05002,0.222051 0.05542,-0.812338 0.276909,-0.582494 0.17783,-0.353532 0.0082,-1.175257 0.224107,0.349047 0.0938,-0.190147 0.172618,-0.609399 0.13411,-1.751415 0.02592,0.622073 0.187478,-0.246691 0.154353,1.304307 0.04912,0.223424 0.180529,-0.962543 0.09693,1.010925 0.298804,-0.514051 0.144734,0.27662 0.02937,0.76582 0.08584,-0.168726 0.18317,0.365273 0.114631,1.328466 0.102696,-0.356802 0.08434,-0.320381 0.10617,1.124957 0.06224,-0.02626 0.05988,1.234691 0.0151,-0.405654 0.146329,-0.640545 0.064,0.758576 0.02894,-0.311382 0.371397,-1.957782 0.139338,0.870616 0.221831,-1.487991 0.0288,0.518781 0.01499,0.05893 0.06662,-0.0435 0.232526,-0.430731 0.07499,-0.399307 0.125156,1.005971 0.0627,-0.124983 0.120734,0.899407 0.173366,-0.124276 0.15903,-2.688485 0.04703,0.0035 0.144182,0.629175 0.0836,-0.791927 0.08645,0.288837 0.133956,-0.566527 0.08029,1.698802 0.0778,-1.029485 0.07012,0.449977 0.04951,0.661532 0.172745,-0.782212 0.09772,1.122914 0.07057,-0.02186 0.07419,0.513243 0.181871,-0.120209 0.197478,-0.540798 0.01408,0.927945 0.192747,0.606051 0.08778,0.964787 0.139013,-0.205229 0.07401,-0.333955 0.08077,0.15423 0.0012,-0.562376 0.06664,0.11387 0.06574,0.143762 0.163761,-0.01908 0.110661,-0.652051 0.04936,0.126311 0.171391,2.893093 0.155003,0.200678 0.038,-0.587891 0.0759,0.480614 0.0908,1.992052 0.01131,1.164829 0.06426,-1.288683 0.100845,-0.293099 0.03339,-0.235842 0.147065,1.474802 0.07061,0.081 0.03195,-0.520253 0.163803,-0.713535 0.01345,0.139637 0.107313,0.946861 0.164086,-0.285865 0.124349,0.423449 0.0084,0.498735 0.221905,-0.09295 0.0095,0.104049 0.05385,-0.522248 0.0528,0.361114 0.0071,0.306773 0.0743,-1.149409 0.107415,-0.556305 0.05129,0.363289 0.02844,-0.469674 0.08094,0.123636 0.04402,-0.190826 0.01835,0.793553 0.04971,-0.326186 0.07728,-0.380096 0.05126,0.111468 0.129138,0.358324 0.03443,-0.180713 0.03267,-0.0604 0.06699,0.145094 0.03488,-0.736198 0.17629,-0.05689 0.05729,-0.868027 0.09752,0.05905 0.218598,-1.814421 0.06278,0.572361 0.123035,-0.283159 0.15489,0.435002 0.01122,-0.733924 0.141385,0.03526 0.05697,-0.773681 0.28263,-0.0011 0.175798,0.747141 0.136625,-1.134077 0.07179,0.198871 0.213852,0.342027 0.175273,-1.616886 0.02296,0.03364 0.140933,-0.04897 0.04919,0.470006 0.174115,0.207919 0.03115,-0.101661 0.174722,-0.782275 0.09651,1.186868 0.05854,-0.255903 0.04515,-0.694214 0.06891,0.54536 0.04796,0.13932 0.0075,-0.05346 0.0916,0.996811 0.07932,-0.153191 0.132191,-0.651087 0.177618,-1.589682 0.06674,-0.300286 0.185022,1.969416 0.186235,-0.362872 0.03841,0.115882 0.06542,-0.0067 0.06543,2.329222 3.82e-4,-0.22052 0.240125,0.785637 0.125607,-0.898998 0.167802,1.961408 0.01606,-0.722601 0.05979,-0.200378 0.07165,0.31479 0.02263,-0.810067 0.07892,0.150633 0.118912,0.280526 0.01341,-0.07565 0.09009,-0.306836 0.107782,2.083495 0.21145,0.04465 0.25877,-0.377756 0.137658,0.962442 0.138347,0.289267 0.08316,0.662449 0.116354,-0.215901 0.199203,2.135175 0.06532,-0.550176 0.08622,-0.418494 0.06964,-1.520592 0.05027,0.826752 0.125072,1.46529 0.09145,0.58435 0.05388,-0.940891 0.01509,0.422201 0.133984,0.0614 0.135935,-1.172423 0.304736,0.368298 2.54e-4,-1.175294 0.37959,-0.907292 0.0033,0.627053 0.171899,-0.625296 0.122174,0.746801 0.16249,-1.703297 0.109517,0.380704 0.152799,-0.390741 0.0568,-0.18997 0.07064,-0.723063 0.03436,0.646044 0.148731,1.491617 0.03945,-0.416138 0.02043,0.94063 0.04975,0.111378 0.09518,-0.713773 0.04785,0.460945 0.04166,0.0135 0.164256,-0.751257 0.09055,0.453805 0.01627,-0.07598 0.09153,0.315289 0.01691,-0.231257 0.07117,-0.819678 0.03362,0.259864 0.340347,-0.874103 0.03262,0.126972 0.114828,-1.003417 0.188311,0.06831 0.23733,0.796145 0.108529,-1.269002 0.03433,0.127706 0.174552,0.549796 0.05616,0.639255 0.01194,-0.487464 0.201124,1.000569 0.01715,0.0777 0.152047,1.73472 0.085,-0.637639 0.0927,1.102065 0.0516,-0.128597 0.0445,-0.780334 0.0706,0.450582 0.0866,-0.03196 0.0101,0.870361 0.002,-0.34807 0.25184,-0.474474 0.11205,0.189945 0.0921,-0.738791 0.0932,0.08315 0.0377,0.458712 0.0241,-0.141241 0.27828,1.872395 0.0137,0.76758 0.0744,-0.49238 0.18729,0.0862 0.13298,1.70339 0.0835,-0.16003 0.30622,1.87106 0.0758,-0.0295 0.0775,-0.18727 0.0426,0.35841 0.0346,-0.44317 0.0409,-0.65559 0.0799,0.0758 0.29845,3.66688 0.1334,-0.86247 0.0788,0.075 0.19315,-0.11731 0.0962,-0.53424 0.0242,0.19098 0.15177,-0.19809 0.10346,-0.17643 0.0537,-1.39274 0.0565,0.6717 0.0821,-1.19741 0.21773,0.97739 0.1434,-0.65591 0.20425,0.0162 0.0117,-0.15004 0.0239,1.08598 0.0157,-0.17463 0.0351,0.61492 0.005,-1.30064 0.0746,-0.39719 0.0105,0.0114 0.23216,0.0367 0.14946,-1.35719 0.0515,0.20764 0.0443,1.39405 0.0438,-0.7539 0.0845,0.91916 0.076,-0.31108 0.10739,-1.12376 0.0458,0.18667 0.0273,-0.82078 0.30685,1.18656 0.0351,0.47984 0.0839,-0.31195 0.24497,-0.52018 0.0436,-1.18371 0.0668,0.28632 0.0315,1.27991 0.0766,-0.30885 0.13821,-0.89619 0.0371,-1.54541 0.21571,0.66286 0.33654,-0.955892 0.20512,-0.242349 0.18217,1.041321 0.0574,-0.73707 0.0663,0.81874 0.21307,0.0964 0.0259,0.91602 0.0642,-1.00684 0.0559,0.47444 0.0756,-0.0179 0.0253,-0.32507 0.0514,0.27246 0.24624,0.05 0.012,-0.10351 0.10764,1.10716 0.2456,0.561 0.0999,-1.23346 0.0578,0.1634 0.01,-0.62568 0.14972,-0.0629 0.0718,-1.618601 0.0597,0.194116 0.0194,0.730545 0.06,-0.40531 0.0527,-0.986046 0.0673,0.323391 0.0546,1.087285 0.17196,0.0331 0.0335,-0.11636 0.0249,0.0867 0.05,0.47912 0.0551,-0.28111 0.18468,1.39791 0.1106,2.27469 0.0854,-0.96841 0.15674,0.54963 0.01,1.39436 0.08,-0.84752 0.13679,0.95301 0.13461,-1.23723 0.0232,0.16478 0.0753,-0.15232 0.073,-0.308 0.1404,1.11561 0.0254,-0.19437 0.0763,-0.82792 0.0688,0.072 0.0481,-0.56108 0.0344,0.31707 0.19445,-0.2327 0.0451,1.638 0.35705,-3.05065 0.0688,0.36506 0.0179,0.38386 1.1e-4,-0.73287 0.11398,-1.58414 0.008,0.40329 0.18356,1.03249 0.0106,-0.19024 0.0591,-0.0244 0.10789,0.62958 0.005,-0.049 0.17827,-0.7592 0.0442,1.37743 0.0133,-0.004 0.11434,0.0355 0.14941,0.46939 0.11081,-1.83301 0.002,0.49092 0.0811,0.32092 0.25122,2.62327 0.0474,-0.70197 0.0336,0.16819 0.0462,0.83671 0.009,-0.99298 0.0506,0.28925 0.12766,0.25888 0.0469,-0.0696 0.15933,1.36782 0.22064,-0.79123 0.11707,0.42552 0.16812,-0.28914 0.12291,0.32309 0.0787,0.0845 0.13764,1.99308 0.1687,0.20808 0.1645,-0.31419 0.0737,-1.18223 0.14217,1.91653 0.0873,-0.0809 0.11035,-0.23392 0.0346,-0.70884 0.0562,0.16603 0.071,1.39337 0.12667,-0.53235 0.0982,0.87029 0.0285,-0.24904 0.003,-0.61873 0.0786,0.88647 0.134,0.56112 0.0516,1.20069 0.037,-0.21417 0.0375,0.0112 0.0687,-0.0277 0.0352,1.01563 0.21326,-1.42143 0.0217,0.55108 0.1434,0.4449 0.10634,-0.293 0.0215,0.39578 0.0216,-0.62104 0.006,0.0521 0.0977,-0.28272 0.18742,0.32027 0.16451,-2.35063 0.0521,0.51205 0.0603,-0.0178 0.16423,-2.52548 0.0506,0.46914 0.0478,1.58811 0.0384,-0.8178 0.12821,0.41588 0.0232,-0.49977 0.0391,1.34098 0.29193,-4.07983 0.0434,0.69225 0.18181,-1.01809 0.003,0.0525 0.1896,0.98188 0.0286,-0.0172 0.10385,-0.98376 0.073,-0.0655 0.0574,0.0818 0.003,-0.41817 0.0317,0.49994 0.0709,-0.2488 0.0247,-0.9108 0.0347,0.92473 0.0944,1.14965 0.41332,-3.8584 0.2043,0.01 0.0732,-1.51705 0.0766,1.0307 0.0759,-0.46346 0.01,1.00718 0.10026,-0.13844 0.0119,-0.76633 0.0251,0.63048 0.21912,-1.19869 0.26071,0.6276 0.20187,-1.484593 0.0299,0.311223 0.0779,1.12761 0.0824,-0.34663 0.002,-0.90285 0.0112,1.15845 0.0621,-0.65706 0.20835,-0.655114 0.0462,-0.908061 0.10045,0.140806 0.1126,-0.456073 0.0104,-0.807794 0.0954,0.07265 0.31033,-1.238429 0.0752,-0.296429 0.0647,1.791574 0.0522,-1.53056 0.01,-0.588377 0.0681,1.097487 0.0342,-0.750907 0.047,-0.147195 0.0735,0.154776 0.15132,-2.64394 0.1198,-0.05484 0.0277,0.692483 0.0156,-1.2749 0.0339,0.20582 0.011,-0.465996 0.0536,0.848579 0.0629,0.05992 0.0668,0.219226 0.14746,1.90767 0.12758,-0.197692 0.0325,1.190583 0.0676,-1.457521 0.0273,0.346528 0.0183,-0.399873 0.006,0.08057 0.0483,-0.614283 0.10971,1.171023 0.17873,-1.007562 0.0999,-1.275243 0.0629,0.135093 0.0308,-0.102447 0.0842,0.561888 0.019,-0.679558 0.16608,-0.141782 0.004,-0.284251 0.0387,1.839781 0.14756,0.127719 0.0345,0.432354 0.009,-1.150608 0.11599,-0.825438 0.0364,-0.246228 0.13515,0.973462 0.16702,-3.051005 0.11964,0.526641 0.0307,-0.265451 0.16,-0.332576 0.21789,-1.955119 0.0489,0.657197 0.0596,-0.09817 0.11531,0.684691 0.0457,0.707348 0.018,-1.185261 0.10227,-0.04848 0.23604,-0.388631 0.14755,-1.3278 0.0479,0.109625 0.10394,-0.116209 0.0418,0.649783 0.0375,-0.813936 0.24877,0.270539 0.201,1.330397 0.16452,-1.601244 0.0201,0.406508 0.006,0.825605 0.0887,-0.02553 0.15957,0.116709 0.0638,-1.206871 0.007,0.2131 0.23585,1.194979 0.0188,-0.0035 0.0452,-0.360873 0.44525,3.464806 0.11635,0.49192 0.0107,0.759531 0.0685,-0.45574 0.10658,-0.04081 0.0842,0.673713 0.0656,0.270764 0.054,-1.063301 0.0454,0.45217 0.0651,0.09026 0.26402,1.554896 0.0774,0.269352 0.19226,-2.618087 0.0632,1.521004 0.0767,-0.427865 0.26668,-2.380776 0.14063,0.107791 0.12613,-1.350027 0.15037,0.120094 0.0215,0.828435 0.16304,-0.03297 0.0776,-1.975578 0.23276,0.235642 0.0736,2.069706 0.0686,-0.623427 0.0117,-0.713473 0.0633,0.02832 0.13145,-0.879416 0.0525,-1.10742 0.0878,1.25939 0.0356,-0.532038 0.20008,-0.588379 0.14954,-2.321469 0.16139,1.441347 0.12938,-0.656994 0.0578,0.291506 0.0455,1.035887 0.12517,-0.55207 0.0319,0.596074 0.0421,-1.011321 0.22263,-0.292218 9.7e-4,0.274315 0.0144,-0.86647 0.12684,-0.61872 0.0283,0.396571 0.15941,2.38571 0.0596,-0.0077 0.16599,-1.759263 0.10569,1.169556 0.15421,2.674188 0.09,-0.520246 0.05,0.400868 0.0609,0.786743 0.0195,-0.687002 0.0297,-0.9647 0.0446,0.252996 0.0658,0.01032 0.11813,0.436626 0.0617,-0.0706 8.9e-4,-0.994008 0.051,0.199093 0.13724,0.328529 0.1361,-1.355373 0.0429,-1.569591 0.12551,-1.778187 0.0497,0.299493 0.0343,-0.418934 0.0869,-0.684128 0.0403,0.219506 0.14414,-0.902899 0.0735,0.6655 0.082,-0.179061 0.0859,-2.685959 0.0233,0.145503 0.0646,-0.577966 0.0845,1.723508 0.0431,0.136086 0.0893,-0.443138 0.11184,1.634042 0.15026,-1.465097 0.0174,0.340772 0.0124,1.284899 0.0738,-1.152686 0.068,0.02748 0.22935,2.379941 0.17215,-0.04306 0.0633,0.805627 0.0602,-0.334957 0.14858,-1.337778 0.11473,2.046504 0.0577,0.189268 0.003,-0.03342 0.0253,0.826034 0.12695,0.272339 0.20777,-1.096333 0.0371,-1.058627 0.0134,1.10955 0.0373,-0.549955 0.0273,0.422476 0.0988,-0.05867 0.038,-1.14973 0.0969,0.373877 0.0929,-0.611855 0.0925,1.14297 0.0641,-0.65877 0.0302,1.510147 0.03,-1.590358 0.0306,0.6786 0.0504,-1.126863 0.16599,0.161947 0.11127,1.317939 0.12229,-2.251797 0.0352,0.682595 0.0575,0.674301 0.004,-0.872542 0.0287,-1.271711 0.0931,0.712189 0.0747,-0.405414 0.0305,0.16609 0.0169,0.635034 0.0237,-0.354018 0.0879,-1.91584 0.003,-0.674909 0.097,0.263147 0.14973,-1.65763 0.0954,1.699031 0.10955,-0.845999 0.0972,0.307986 0.14432,2.000184 0.0713,-0.469444 0.24626,0.04667 0.1072,1.328258 0.10347,-0.648963 0.003,-1.362161 0.0372,2.063275 0.19636,-2.649284 0.0295,0.483159 0.11402,1.466633 0.12745,-1.036569 0.0799,0.419877 0.0188,-1.458467 0.0621,0.981622 0.0418,-0.140568 0.0772,0.143916 0.0247,0.351425 0.10976,-1.485755 0.007,0.535781 0.11823,1.367522 0.006,-1.075588 0.0394,-2.041364 0.0493,1.141843 0.0299,-0.104418 0.055,0.09961 0.25481,3.636576 0.0264,-0.738398 0.0556,0.0036 0.0649,2.342895 0.24534,-1.61809 0.0593,0.299837 0.0391,0.94619 0.0244,-0.596331 0.14858,-1.242267 0.0662,-1.841297 0.0712,0.09037 0.15213,1.426159 0.1384,0.953972 0.14623,-1.268613 0.003,0.146862 0.18545,-2.178828 0.0358,0.12313 0.0387,-0.01611 0.0537,-1.031143 0.0797,0.03179 0.0415,1.357582 0.0528,-0.252073 0.007,-2.224551 0.0483,0.326874 0.086,0.591205 0.0208,-0.89558 0.0544,1.336583 0.0402,-0.298784 0.0499,0.396206 0.0468,0.387899 0.078,-0.383582 0.19705,2.00738 0.092,-0.467568 0.29074,0.440816 0.37591,1.8932 0.14918,0.355377 0.0288,0.784322 0.18677,-1.972956 0.009,0.373434 0.0126,0.808035 0.10545,-0.163609 0.13031,0.775702 0.0444,-0.402398 0.004,-0.358204 0.0183,1.029126 0.0158,-0.394317 0.0744,0.666996 0.006,-0.922669 0.0334,0.644323 0.0945,-1.489457 0.11383,0.678949 0.14912,0.327701 0.0918,-0.215478 0.0417,-1.610413 0.0617,0.151657 0.0365,0.04882 0.12797,-0.232655 0.0267,0.63971 0.0617,-0.833566 0.0816,-0.113249 0.19738,0.215604 0.0112,-0.199084 0.0721,0.667625 0.10235,-0.60942 0.19013,1.693846 0.0505,-0.09412 0.19815,-0.356522 0.007,0.07797 0.0541,-0.298497 0.32681,0.787686 0.0753,-0.227747 0.0148,-0.512511 0.0816,0.467134 0.0986,1.615962 -0.0421,-1.66988 0.0933,1.400536 0.22423,-0.417918 0.0607,1.721518 0.0454,-0.247494 0.0481,-0.11351 0.0108,0.442442 0.064,-0.639662 0.15625,-1.475425 0.0899,1.276646 0.024,-1.472909 0.017,1.969755 0.2712,-1.823228 0.28296,1.739421 0.0141,-0.524129 0.0594,0.06204 0.47577,-0.112481 0.26531,-1.381795 0.12109,-0.710381 0.19546,0.861493 0.10598,-1.082574 0.19597,2.050278 0.027,-0.528568 0.0951,-0.83508 0.0668,0.145649 0.0408,0.474208 0.18084,0.413759 0.0842,0.55598 0.0168,-0.319668 0.0831,-0.887049 0.0732,0.238371 0.0495,-0.05785 0.20904,0.99446 0.0626,-1.456431 0.0622,0.144739 0.30527,0.389972 0.0704,-0.424465 0.0405,0.885106 0.0495,-0.09122 0.21469,1.372183 0.0388,-0.207127 0.35009,-1.397573 0.40046,1.103325 0.0345,-0.258389 0.007,-0.292657 0.30563,0.24381 0.24281,1.315659 0.11347,-0.184372 0.13411,0.966676 0.0737,-1.802609 0.0383,0.225032 0.0777,-0.100524 0.008,1.261586 0.13752,-1.227397 0.52148,-1.248393 0.002,0.616507 0.0247,-0.722968 0.12912,0.119569 0.12834,-1.413744 0.29138,1.106778 0.16706,1.403712 0.0463,-0.05689 0.11239,0.16852 0.0111,-0.744077 0.11098,0.746383 0.0208,-1.052803 0.0698,0.725493 0.16952,-0.06341 0.0906,-0.719814 0.135,0.303659 0.18153,-0.497452 0.15633,0.125875 0.0749,1.906867 0.2906,-0.246937 0.11355,-1.071446 0.13915,1.018337 0.17538,0.850553 0.22535,-0.05285 0.0923,-1.121912 0.11291,0.557969 0.0166,0.741389 0.0772,-0.540159 0.12036,0.154246 0.017,1.02535 0.0173,-0.307497 0.14691,-1.21271 0.13567,-0.122191 0.15005,-2.37867 0.25869,0.494512 0.10276,-0.151791 0.0302,0.697477 0.0888,-0.374196 0.18167,-0.112333 0.11762,-0.749311 0.19567,0.197596 0.4225,-3.373223 0.0363,0.417853 0.51764,-0.848323 0.0849,0.194437 0.0221,-0.534791 0.0618,0.195871 0.13062,-0.40424 0.001,-0.37658 0.009,0.821281 6.1e-4,-0.717655 0.25629,0.95701 0.1858,-0.0175 0.14899,-0.412436 0.47312,0.117452 0.13654,1.614242 0.20865,0.43782 0.0979,-1.259848 0.17325,-0.166323 0.0779,0.603601 0.014,-0.0471 0.17677,-0.563055 0.01,-0.795206 0.14954,0.378707 0.12423,1.463276 0.004,-0.726216 0.0885,0.129386 0.10055,-0.718119 0.004,0.715231 0.12148,1.059261 0.0607,-0.80742 0.0257,1.217584 0.0925,-0.459315 0.0953,0.399026 0.0679,-0.560636 0.0509,0.08081 0.0404,0.625093 0.0215,-1.341516 0.18176,-0.299405 0.13977,1.432403 0.0518,-0.646163 0.0533,0.06311 0.0492,0.76231 0.14419,-0.458049 0.013,-0.454114 0.009,1.208467 0.24715,-0.441846 0.22076,0.35963 0.1343,0.452382 0.0144,1.26584 0.053,-0.666643 0.0959,0.125906 0.084,0.83872 0.11619,0.233461 0.004,1.440856 0.0364,-0.253266 0.20922,-0.615649 0.0604,0.168148 0.10978,-0.110308 0.01,-1.409244 0.0613,1.199273 0.0997,-0.407427 0.009,0.04031 0.0808,1.026051 0.14988,1.973761 0.20139,-0.685647 0.0317,0.612644 0.0409,-0.07526 0.1169,-0.41133 0.15015,-0.103057 0.0431,-0.677021 0.18529,-0.267392 0.11164,0.07894 0.0903,-0.606208 0.0469,0.117715 0.069,1.074625 0.0685,0.158941 0.056,0.174022 0.0176,-0.52404 0.0994,0.516144 0.13811,-0.235807 0.0533,-0.537957 0.24705,0.0042 0.13375,-0.72833 0.0266,1.122924 0.17897,-0.147141 0.0883,1.955857 0.0297,-0.616504 0.0717,0.837245 0.0172,-0.689117 0.11931,0.595687 0.0975,-1.082508 0.0394,1.584078 0.18753,-1.12878 0.0482,1.154721 0.0259,-1.025204 0.19895,-1.852119 0.0331,0.268687 0.0352,-0.0778 0.0733,1.964526 0.0685,-1.152437 0.007,-0.197377 0.10639,1.001212 0.13023,-0.141529 0.023,-0.324546 0.10116,0.589788 0.0526,-0.06112 0.1349,0.03283 0.0642,0.409025 0.13669,0.04466 0.20346,0.691286 0.0819,-0.774929 0.0963,1.04468 0.0481,-1.185453 0.16918,0.587522 0.0131,0.632547 0.0824,-0.991621 0.0525,0.235247 0.0378,1.741868 0.12873,-0.0982 0.0628,-1.432019 0.0625,-0.48163 0.0533,0.436169 0.0456,-0.150835 0.19606,2.742014 0.0678,1.801921 0.0221,-0.453563 0.0672,-0.566087 0.12875,0.483279 0.0575,-1.371953 0.15073,-0.306325 0.003,0.546698 0.19512,0.640456 0.12869,1.482473 0.0136,-0.588101 0.25064,-0.379696 0.21635,1.793789 0.0251,-1.716415 0.17626,0.164827 0.0992,-0.902979 0.11453,1.340084 0.0558,-0.324104 0.0999,0.822266 0.0189,-0.469717 0.0205,-0.729213 0.19968,-0.276793 5.9e-4,0.521922 0.10521,-0.550107 0.19821,1.396023 0.12565,-0.708471 0.0305,2.198024 0.0457,-0.960769 0.068,-1.046666 0.0663,0.426981 0.1504,-0.529175 0.22429,0.635451 0.016,-1.418736 0.22187,-0.03305 0.11211,1.44861 0.0403,0.174678 0.13573,-1.982945 0.0626,0.110018 0.25638,2.069536 0.0797,-1.272069 0.0923,-1.268174 0.0405,0.515714 0.10086,-0.235597 0.0658,0.190883 0.078,-0.04766 0.0162,-0.237478 0.0836,0.700595 0.16639,-1.504342 0.0649,0.706404 0.0197,-0.08291 0.0717,-0.451105 0.0328,-0.949274 0.13481,0.343997 0.26759,-1.01924 0.0121,0.558721 0.29152,-0.0026 0.0496,-0.254551 0.0366,0.113176 0.12682,0.391651 0.005,0.516704 0.12175,-0.03107 0.16858,1.397876 0.0927,-0.305234 0.0427,0.769161 0.159,-1.053551 0.0549,0.46677 0.21358,-0.07393 0.091,0.09257 0.0811,0.520222 0.0262,-0.992207 0.0882,0.146709 0.0503,-0.809731 0.0444,1.058752 0.0906,0.232195 0.0785,-1.27468 0.0731,-0.559027 0.31676,0.860435 0.24429,-1.186399 0.24573,2.231935 0.0469,0.05969 0.15359,0.0082 0.0231,1.211382 0.20188,-0.483843 0.0663,0.137409 0.008,1.197908 0.0962,-0.08562 0.0521,1.231554 0.0577,-0.486093 0.0757,-0.835867 0.0428,0.141124 0.34982,-1.21527 0.15932,1.281924 0.0464,-0.466416 0.003,-0.247349 0.11986,0.325819 0.1459,0.780214 0.41847,-2.852342 0.23646,-0.162552 0.0618,-0.399111 0.0296,0.271785 0.24936,2.166683 0.0292,-0.621745 0.0458,0.45953 0.38677,0.593752 0.0502,-0.158206 0.14721,-1.419994 0.35291,0.05132 0.0947,2.82988 0.0307,-0.08753 0.18299,-1.706262 0.21164,-2.810789 0.0967,0.1468 0.0745,1.432823 0.19845,-0.952685 0.0618,0.247665 0.1646,1.506583 0.0345,-0.377229 0.0931,0.10407 0.17035,-0.9303 0.0385,-1.816652 0.0551,0.533091 0.27856,-0.830546 0.0699,1.380776 0.0763,1.546584 0.43152,0.999958 0.008,-1.449265 0.0992,1.288735 0.0723,0.638299 0.0441,-0.691363 0.13193,0.875876 0.0827,1.391846 0.17136,-2.17405 0.0437,0.77685 0.2125,0.139886 0.0138,0.604539 0.19694,0.0098 0.001,0.393547 0.0608,-0.717766 0.2774,0.340509 0.002,-0.495964 0.0542,1.264701 0.15029,0.496232 0.0351,-0.145953 0.0935,-0.961671 0.11468,-1.153957 0.26776,1.340616 0.23204,5.107822 0.007,-0.94007 0.14525,-1.34535 0.0106,0.6471 0.033,1.14942 0.12186,-0.7846 0.054,0.7308 0.16458,-0.0341 0.0627,-1.43702 0.0163,1.11525 0.119,2.2106 0.27295,1.99667 0.11091,-0.90849 0.13664,0.4462 0.0104,-0.40929 0.0533,1.12554 0.1149,-0.0632 0.005,0.0403 0.18648,-1.08143 0.0454,-0.49169 0.0429,1.45355 0.13098,-1.81023 0.0487,0.42288 0.0737,-0.7562 0.15357,-0.15591 0.12448,-1.77593 0.0335,0.61251 0.0857,-0.41973 0.10518,2.35794 0.0193,-1.02191 0.005,0.36729 0.15248,0.272 0.0505,-0.24665 0.11541,1.1805 0.15048,-1.19613 0.0641,1.97014 0.21748,-0.26741 0.0234,-0.6193 0.014,0.79936 0.21024,0.67923 0.092,-1.20623 0.0133,0.0545 9.6e-4,1.38755 0.0806,-0.23001 0.0578,0.31319 0.0268,1.32981 0.11468,-0.20939 0.0929,1.61618 0.15824,0.65471 0.12423,0.30253 0.0212,-0.0976 0.0133,-0.95895 0.17438,0.54461 0.12597,-1.33401 0.0302,0.46278 0.12886,1.44328 0.19696,-0.73434 0.14393,2.19929 0.052,-0.64302 0.0405,0.17238 0.099,-0.36088 0.18629,-0.11259 6e-5,-1.23663 0.11236,-0.0203 0.12531,-0.20246 6.9e-4,-0.39842 0.0589,0.35467 0.16606,-2.75779 0.0418,0.64045 0.0381,-0.0533 0.0889,-0.79814 0.39893,-0.98373 0.1463,2.35355 0.24664,-3.44075 0.124,-0.65626 0.0317,0.20604 0.0217,0.16738 0.19705,3.27997 0.0472,-2.59805 0.19714,0.70767 0.0114,-0.94967 0.0571,0.64454 0.0763,-0.91004 0.13308,0.90933 0.018,-0.47729 0.0848,-0.0702 0.12598,-1.50973 0.0156,0.16791 0.10523,0.0866 0.20789,-0.78713 0.26971,1.93988 0.0958,-0.13353 0.10166,0.13536 0.0225,0.84073 0.0193,-1.55317 0.0565,0.46126 0.0703,0.41547 0.0115,-0.29625 0.0854,-2.53852 0.005,0.14254 0.0932,-0.38954 0.15287,-1.45913 0.001,0.47884 0.0653,-0.6983 0.16211,0.89696 0.25022,-2.583557 0.0881,0.343807 0.0207,0.64078 0.0234,-0.988228 0.0127,0.498572 0.0969,1.077806 0.0913,-1.52496 0.077,1.12578 0.0106,-0.500895 0.0167,-0.902646 0.0669,0.844578 0.0191,0.703533 0.0536,-1.447242 0.0489,0.01469 0.0961,2.979652 0.0817,-0.84208 0.0268,-1.642677 0.14596,-1.227573 0.12803,0.03794 0.048,-1.184341 0.0383,0.499196 0.0934,0.486245 0.0209,-1.374157 0.0777,0.254406 0.14233,0.72362 0.0355,-0.445516 0.19049,-0.103174 0.0655,-0.913629 0.0563,0.259972 0.006,-0.09444 0.0905,1.186406 0.0316,-0.697745 0.005,0.864027 0.0151,-0.303746 0.13433,0.410113 0.1007,2.595753 0.0584,-0.26322 0.15811,-2.409459 0.0562,0.01319 0.0457,0.810733 0.0333,-0.08955 0.24308,-2.997284 0.019,0.106023 0.10981,1.002619 0.0209,-0.09383 0.0572,0.07305 0.19869,1.586131 0.0477,0.76791 0.0113,0.570543 0.0313,-1.837916 0.05,0.446635 0.19682,-1.580147 0.15798,0.826628 0.19022,-0.722369 0.21681,-0.126012 0.15132,0.742102 0.23877,-2.654701 0.14213,0.781082 0.12185,0.369701 0.0617,-0.23217 0.007,1.465088 0.0194,-0.190279 0.25926,-0.883724 0.0584,0.113877 0.15256,2.301583 0.10522,-1.702679 0.0177,0.284002 0.20408,-0.554575 8.8e-4,0.135355 0.19519,-2.400942 0.0246,0.639854 0.29439,-1.178166 0.0705,1.349688 0.0319,-1.033074 0.0742,-0.06098 0.10899,1.087792 0.0812,-0.132282 0.11442,-0.512744 0.11139,1.548933 0.01,0.305622 0.54056,0.548019 0.0593,-0.638746 0.16398,-0.148401 0.01,-0.849699 0.002,0.140707 0.43975,1.605514 0.0176,-0.608981 0.0232,0.972348 0.0774,-0.08314 0.1088,-1.011512 0.0245,0.471209 0.16762,-0.372043 0.10602,-1.471691 0.13662,0.638373 0.0512,-0.1701 0.2091,-0.537497 0.005,0.25068 0.17667,-1.684662 0.24931,-1.136612 0.0694,0.114721 0.4566,1.354661 0.0248,0.717976 0.15591,0.223933 0.29284,-0.518369 0.31204,-1.747301 0.23696,-3.996675 0.0163,1.146421 0.38062,-1.769628 0.0799,0.884902 0.0742,-0.344814 0.19548,0.432422 0.0615,-0.538026 0.016,-2.142508 0.82303,-0.358403 0.0672,0.434505 0.32572,-0.5066 0.10679,0.168364 0.33832,0.789786 0.053,0.477218 0.27457,-0.556414 0.11092,0.818302 0.20035,-0.973464 0.001,0.553156 0.35787,1.024783 0.54986,0.80264 0.16768,-0.189339 0.13495,-0.416943 0.27754,7.96e-4 0.0139,-0.474288 0.16989,0.909808 0.0617,-1.613224 0.0721,1.301958 0.0659,-0.747052 0.13718,0.367144 0.0245,-1.861038 0.0436,0.813091 0.39652,-2.143052 0.009,1.440319 0.14208,-0.228224 0.0828,0.995661 0.59679,-0.159176 0.23335,1.851387 0.0486,-0.672525 0.62484,0.657185 0.4942,3.030521 0.0863,-0.480165 0.8319,-0.286478 0.40023,1.450284 0.19567,1.400703 0.18295,-0.921012 0.006,0.510234 0.91373,1.226523 0.0511,0.940547 0.16016,0.468406 0.4671,-0.406244 0.18407,2.196134 0.22074,1.017751 0.19828,2.124226 0.0227,-0.808877 0.0537,0.110794 0.36207,2.946413 0.41361,-1.08708 0.0949,-0.0881 0.35494,0.5868 0.0581,2.47961 0.0422,-0.66241 0.0738,1.32153 0.20359,-0.61371 0.0154,-1.34083 0.0205,0.70808 0.0748,1.31918 0.10648,-1.21994 0.004,-1.07492 0.0713,1.43185 0.17261,-1.09174 0.19958,-0.38176 0.14131,-0.41429 0.0713,0.32474 0.0192,-0.71456 0.038,0.90883 0.0948,-0.0675 0.0875,1.19349 0.0601,-0.89614 0.0315,0.6404 0.10509,1.06784 0.0187,-0.7436 0.099,0.90172 0.091,-2.42143 0.40609,5.15055 0.26529,-0.72075 0.0143,0.68734 0.0423,-1.42682 0.10199,0.40708 0.0105,-0.22952 0.19937,-0.56257 0.12902,-2.51773 0.002,0.95108 0.002,0.48612 0.0865,-0.2151 0.0463,0.43619 0.18423,0.2907 0.0836,-0.0533 0.0515,-0.002 0.12836,0.30889 0.006,1.15294 0.12057,-0.24067 0.0901,0.43485 0.01,-1.09136 0.0879,0.23899 0.0814,-0.35464 0.0553,1.17734 0.0801,-1.16313 0.26074,-0.10531 0.0159,0.0911 0.0516,0.24182 0.0299,-0.37669 0.0117,-0.1554 0.38077,-0.78532 0.33714,-3.33314 0.0123,0.19218 0.0664,-0.54282 0.13058,0.31988 0.008,-0.0298 0.0199,-0.59001 0.0101,0.67341 0.0279,-0.5408 0.25464,-1.530024 0.0147,0.250096 0.0902,-1.07428 0.38081,0.118059 0.0118,-0.236936 0.0343,0.255855 0.21217,-1.376873 0.0662,0.162618 0.32347,4.109725 0.0652,-1.40174 0.0482,0.57786 0.75579,1.03542 0.0142,0.19741 0.0553,-0.98139 0.0694,0.48929 0.0718,-0.3027 0.15444,1.78934 0.10451,-1.41111 0.007,0.98155 0.12522,0.54233 0.19533,-0.43182 0.14099,0.79466 0.0444,-0.0172 0.0419,-0.34516 0.0384,1.35973 0.031,-0.32773 0.16512,-0.32646 0.10322,1.69857 0.36097,-0.12106 0.056,1.03342 0.002,-0.82597 0.0817,-1.31784 0.2642,0.17963 0.10951,0.53569 0.0541,0.3185 0.30901,-1.09872 0.0175,0.0526 0.25133,1.02411 0.12967,2.84603 0.12826,0.32226 0.0328,-0.49196 0.0216,0.0775 0.10659,0.92835 0.003,1.74554 0.0102,-0.0806 0.14775,0.23848 0.2707,-2.51296 0.0536,0.0755 0.17855,1.00567 0.0564,-0.1291 0.0479,0.0948 0.0618,0.59212 0.0632,-0.26462 0.27794,0.15029 0.17495,-2.40502 0.30582,3.17786 0.37462,6.13458 0.10352,-2.37878 0.0502,0.71042 0.16435,-0.121 0.19246,-1.41105 0.38232,2.35389 0.21731,-0.4539 0.034,-0.29023 0.13416,1.88782 0.19479,0.13272 0.0201,0.25284 0.33949,-0.0838 0.0845,-1.83477 0.28942,-0.85128 0.23929,0.58967 0.11431,-1.55522 0.005,0.72998 0.0702,0.38036 0.0866,-0.10858 0.11866,-0.42405 0.0215,-1.23103 0.11357,0.0381 0.062,0.58998 0.10041,-0.28809 0.288,-2.57147 0.0709,0.36808 0.0307,-1.7881 0.0865,1.69728 0.0291,-0.96978 0.0427,0.10779 0.0423,-1.06013 0.40142,0.97338 0.0629,-0.7257 0.25938,3.80364 0.0742,-0.0933 0.0993,-1.77531 0.25278,-0.61628 0.008,0.47527 0.0952,-0.99692 0.15132,2.07855 0.001,-0.98029 0.0554,-0.6884 0.17248,-0.65563 0.0815,1.009 0.20021,-0.96707 0.0688,0.0225 0.15121,0.6433 0.0846,-0.62909 0.048,-0.2379 0.18792,-2.31381 0.0496,0.21081 0.23009,0.0534 0.0348,0.11569 0.008,-1.67367 0.1187,0.26724 0.0108,-1.06177 0.0359,2.04064 0.054,-0.15756 0.0518,0.95055 0.18091,0.4611 0.01,-0.64449 0.0539,1.13946 0.1886,-1.42143 0.0673,-1.333 0.002,0.58419 0.0956,-0.26976 0.0304,-1.66087 0.0906,1.02031 0.10844,1.62208 0.065,-0.54621 0.0328,0.23554 0.13665,-1.9443 0.0902,-0.10416 0.029,0.16677 0.082,-0.50625 0.0404,0.13082 0.0201,0.23748 0.16553,-2.46818 0.0364,-1.0026 0.27167,-1.42207 0.071,1.0361 0.12059,-0.30102 0.0347,1.96935 0.0956,-0.5176 0.007,-0.19934 0.0502,0.81443 0.11575,0.49906 0.0976,1.36552 0.0667,-0.0877 0.0817,0.53217 0.16288,2.96226 0.13671,-3.52537 0.0794,1.11564 0.10405,-2.90627 0.0116,1.83207 0.0157,1.48313 0.0995,-0.76131 0.0687,1.67477 0.035,-0.20406 0.23347,-0.0787 0.17987,-2.76778 0.0346,0.27906 0.0202,1.11296 0.0626,-1.56725 0.0843,-2.03899 0.0516,-0.28383 0.0123,0.46896 0.0462,0.10414 0.003,1.29313 0.10305,-0.70569 0.0312,-1.12808 0.005,0.35056 0.15271,2.20479 0.0547,-0.55976 0.0863,-0.58278 0.0854,2.86089 0.0598,-1.60224 0.0199,0.24186 0.13872,0.7299 0.13563,-1.25024 0.0539,-1.62398 0.25354,0.24571 0.0561,0.36602 0.1806,-0.31415 0.0287,-1.43992 0.005,0.58243 0.13019,0.3543 0.0582,0.52028 0.034,-1.45975 0.20052,0.50659 0.15188,0.11486 0.009,-0.28249 0.0118,0.73753 0.0765,-0.24611 0.0949,-1.27375 0.0164,0.87381 0.13925,0.043 0.004,0.50743 0.0727,-1.4929 0.0161,0.32133 0.25866,0.15945 0.0271,-0.0772 0.20268,-0.62983 0.0267,2.84532 0.0156,-2.01394 0.11895,0.0588 0.019,0.34675 0.1156,-1.43767 0.19479,1.98693 0.42852,2.77308 0.15243,-2.34993 0.0383,0.21226 0.0445,0.2457 0.16129,2.80151 0.0517,-2.42528 0.0553,0.77481 0.29812,-1.73468 0.22973,3.57785 0.0405,-2.1105 0.072,1.84995 0.22346,3.70577 0.0151,-0.65618 0.33707,-2.32408 0.0374,-0.98032 0.047,1.12556 0.12961,2.62398 0.0452,-0.83416 0.0911,1.7595 0.0177,-1.50362 0.0443,-0.22491 0.11069,-0.91589 0.0701,-0.44881 0.20179,2.93267 0.0638,-0.5132 0.003,1.09126 0.0983,-1.59475 0.0383,-0.0674 0.1818,0.14312 0.0594,-0.10388 0.0293,0.48634 0.0686,-1.06499 0.32084,2.0194 0.0531,-0.56656 0.29261,2.99914 0.0669,-0.17466 0.0812,0.3035 0.18863,-0.36556 0.1147,-2.21554 0.085,-0.78704 0.002,1.47373 0.2331,0.75563 0.0249,-0.46162 0.19214,1.48907 0.12313,0.007 0.0831,1.73813 0.15549,-1.45441 0.0565,-0.42094 0.0143,1.12557 0.42889,-4.04469 0.028,0.8982 0.0328,0.29008 0.16545,-1.30139 0.24935,0.89455 0.0196,-0.0869 0.0316,-0.80621 0.0802,0.58315 0.13718,-0.87165 0.0446,-1.05344 0.20249,0.30387 0.01,0.2838 0.0128,-1.5581 0.0121,0.93242 0.12201,-0.22709 0.21936,0.96993 0.064,-0.51748 0.21822,1.47678 0.0389,1.30527 0.10345,-0.46701 0.14651,1.13657 0.12601,-0.48933 0.14004,1.54565 0.13583,-2.32957 0.15297,0.40583 0.0729,2.19667 0.0819,-2.20704 0.033,-0.97407 0.0827,0.29976 0.0505,0.28336 0.0661,1.53866 0.12426,-1.62454 0.22141,1.31668 0.12044,-1.35756 0.0892,1.61609 0.15991,-0.20654 0.10326,0.22246 0.21369,3.37944 0.009,-1.81675 0.0113,-0.74237 0.10526,0.0532 0.0667,-0.0956 0.10293,0.252 0.0585,-0.39822 0.0153,0.46199 0.0452,0.26603 0.12389,-0.13598 0.0671,-1.16 0.025,0.21522 0.11101,1.20783 0.0585,-1.70315 0.0327,0.69756 0.10774,2.09201 0.28444,4.41608 0.0948,-1.79108 0.0237,0.37872 0.0283,1.29809 0.18044,-0.53677 0.17492,0.52075 0.10292,-0.27493 0.0986,-0.84337 0.0547,0.42545 0.12714,-0.52098 0.0735,-0.938 0.36144,0.85329 0.0453,0.97961 0.0886,-1.37853 0.021,1.1025 0.11369,-1.2894 0.0621,0.62572 0.0303,1.52646 0.15837,0.74049 0.14637,1.3916 0.16328,-3.76516 0.0432,1.11714 0.0164,2.34713 0.0278,-1.63438 0.18809,-1.8977 0.15781,1.82286 0.20626,-0.56293 0.20558,-4.36194 0.0335,0.0545 0.006,1.61913 0.0905,-2.68543 0.19826,-0.85709 0.0874,0.43263 0.0312,1.28909 0.0172,-1.62672 0.039,0.45548 0.41487,4.59795 0.12431,-0.26691 0.11161,-2.21626 0.0368,0.18789 0.16845,2.05421 0.18215,2.96698 0.0805,-0.14479 0.17714,0.40281 0.0186,0.0636 0.0691,-1.60094 0.14778,-0.516 0.018,1.00481 0.34135,-0.0881 0.15395,1.68556 0.17712,-1.19155 0.11258,0.51517 0.0726,3.78805 0.28515,0.86501 0.40117,0.25847 0.073,1.29205 0.14219,-1.09914 0.0226,1.26424 0.0702,-0.76814 0.1083,0.32317 0.0617,-1.89655 0.17063,0.34049 0.009,0.84809 0.066,-2.47702 0.0296,0.048 0.0787,-1.1491 0.11659,2.30142 0.0615,-0.45044 0.2166,-0.61753 0.14942,0.43077 0.002,-0.0902 0.0282,-1.37395 0.16156,-0.26124 0.4464,4.16554 0.1057,-0.78135 0.0101,-1.76119 0.0536,1.40667 0.11833,-1.41516 0.11025,1.92214 0.0473,-0.64342 0.045,-0.34347 0.0776,0.89355 0.0481,-0.8459 0.0292,0.50303 0.22522,2.31244 0.0546,-0.79143 0.14542,0.70716 0.11123,1.69308 0.0252,-0.53052 0.0409,0.0607 0.4216,-6.60889 0.23357,1.52892 0.13929,-0.94106 0.21876,0.70816 4.4e-4,-0.17894 0.0524,1.84745 0.015,-0.80298 0.0502,-0.16463 0.0818,-0.68597 0.0659,-1.7521 0.22089,2.42074 0.19022,-1.44596 0.24804,-2.53703 0.15432,1.79033 0.0689,1.076 0.18037,-0.92577 0.095,2.69454 0.0421,-0.3189 0.11488,1.68168 0.0105,-0.61634 0.2154,-1.43538 0.063,1.42628 0.0118,-2.13683 0.0151,-0.15824 0.005,1.29841 0.0756,-1.55408 0.31604,2.37423 0.0393,-1.44946 0.0654,1.35236 0.26675,0.70424 0.10047,1.89095 0.33578,-0.2752 0.16024,1.33642 0.0882,-0.27132 0.11409,-2.23197 0.1556,-1.09771 0.11647,-4.9126 0.004,1.03192 0.0929,-1.31355 0.11322,4.57623 0.0822,-0.93461 0.02,0.0245 0.16348,-0.0675 0.0537,-1.83667 0.14434,1.0709 0.0804,-0.59233 0.11603,0.0999 0.0843,2.65395 0.16839,-1.27711 0.0139,0.23361 0.12843,0.62414 0.11941,-2.9351 0.0874,0.39474 0.13025,8.44245 0.015,-0.5095 0.10415,-2.62634 0.006,1.30231 0.002,1.32394 0.0764,-2.97565 0.0912,-2.01532 0.048,1.33042 0.1485,-1.90341 0.0553,1.28708 0.0562,-1.36237 0.0863,0.29678 0.0504,0.73586 0.0398,-0.0763 0.0649,-0.59679 0.23452,-0.94949 0.1048,-3.37514 0.008,-1.3421 0.0244,0.9143 0.0842,0.66341 0.1343,-2.3305 0.0397,0.39985 0.1928,-1.80919 0.20012,-3.86873 0.0521,0.0406 0.12257,-0.074 0.0494,-1.35232 0.0656,0.94252 0.12125,-0.78392 0.008,1.15552 0.18939,0.29167 0.0311,-1.28103 0.0597,0.85938 0.0846,-4.09122 0.008,-1.122 0.0548,3.13391 0.0448,-2.15685 0.0561,-0.87846 0.0484,0.9033 0.0141,-0.43776 0.032,1.59618 0.0921,-0.30749 0.0824,0.15703 0.0382,-0.9688 0.0213,1.03326 0.14916,-3.61585 0.0801,0.84918 0.0317,-0.25118 0.0411,-1.94087 0.10165,1.15588 0.0607,-0.40579 1.1e-4,0.21486 0.13262,1.42176 0.0147,-0.65284 0.13676,-4.84716 -0.10941,4.86348 0.13491,-4.24506 0.0608,0.075 0.0855,-2.67675 0.0595,0.58611 0.0218,2.078 0.0766,-0.47011 0.0285,-0.0274 0.0179,-1.85139 0.0486,1.65728 0.11477,-0.23204 0.097,-0.15862 0.0321,1.63234 0.073,-1.9406 0.0331,0.92809 0.14051,-1.31885 0.0794,-1.629389 0.0311,1.219309 0.0476,-0.19255 0.0429,0.14886 0.008,-1.055486 0.0513,1.597716 0.0347,-1.2418 0.0266,-0.0841 0.19257,-4.510671 0.0412,0.964742 0.0975,0.582108 0.0726,-0.899064 0.0589,2.518137 0.12211,0.08715 0.0245,-0.07529 0.009,-1.260442 0.0891,2.31583 0.12291,2.5944 0.0671,-1.13146 0.21075,-3.126809 0.0279,0.258249 0.0153,0.452153 0.0495,-1.444417 0.0682,0.3493 0.0866,2.962774 0.0216,-1.370305 0.13629,-0.01475 0.0614,2.203685 0.0636,-0.16301 0.1132,0.71138 0.0475,-1.21809 0.15361,-0.0636 0.41376,4.05175 0.005,-2.20752 0.073,4.7537 0.0189,-1.7064 0.18563,-6.297331 0.0298,0.493871 0.022,1.96161 0.01,1.40199 0.0764,-0.36488 0.11044,-3.644661 0.0774,0.260039 0.0859,0.07699 0.0299,0.302292 0.15602,-0.480737 0.0267,-0.445193 0.0517,2.29653 0.0586,-0.17788 0.0799,0.19297 0.009,-0.26401 0.003,-2.022342 0.0502,0.644968 0.10078,-0.07064 0.007,0.08365 0.002,-0.331826 0.0468,4.08347 0.026,-1.40624 0.13405,-2.438477 0.1131,3.578817 0.0323,0.20827 0.004,-0.23921 0.2232,4.66656 0.023,-1.68193 0.1107,-3.12358 0.0515,0.0633 0.0234,2.20826 0.0748,-0.77167 0.1187,-2.76867 0.0114,0.048 0.13448,-0.58602 0.01,0.0727 0.0251,1.25837 0.065,-0.72268 0.05,0.13434 0.0851,0.0569 0.0937,-0.94762 0.008,-1.300072 0.0553,1.450172 0.11519,-3.379961 0.12211,1.053287 0.091,-0.256019 0.0858,3.877213 0.0332,-1.14519 0.0229,1.04781 0.0502,0.71581 0.0744,-3.906444 0.0913,-1.198033 0.0496,1.410918 0.0176,-0.08481 0.13422,-3.290401 0.0316,0.324864 0.0506,1.950394 0.037,-0.160587 0.23579,4.111879 0.0393,-1.03132 0.13618,-0.63742 0.0889,1.18817 0.0119,-0.89143 0.0534,-0.38845 0.11093,3.27949 0.0429,0.99487 0.0141,-0.87406 0.0245,0.73789 0.11319,-2.54574 0.0432,-0.35548 0.17119,2.55145 0.0659,-2.83548 0.30864,8.23521 0.0889,-1.28786 0.0287,0.41466 0.0115,-1.38485 0.13805,-0.2218 0.10753,2.43751 0.0584,-0.91596 0.0273,1.04381 0.0313,2.96295 0.10643,-0.17427 0.0772,0.36544 0.12659,-2.09804 0.0105,0.19575 0.0767,0.68151 0.0334,-0.39639 0.038,-0.56082 0.008,0.98273 0.0293,-0.41836 0.0543,2.84359 0.0406,-2.45254 0.0432,-0.96286 0.017,1.25704 0.11702,2.71038 0.005,1.87442 0.0733,-0.49727 0.0435,-0.22113 0.01,1.25135 0.0663,-0.30871 0.10095,-1.40286 0.0398,0.0726 0.31368,9.55646 0.12346,0.80625 0.11755,-1.67955 0.0621,1.58083 0.16361,1.09786 0.20816,4.68273 0.0472,-1.12613 0.13747,1.57336 0.0342,-1.44084 0.0395,2.2407 0.19602,-1.33177 0.007,-0.11346 0.0177,1.39789 0.124,4.43719 0.0716,-2.95648 0.004,0.76067 0.0726,2.9166 0.0181,-1.48371 0.12416,-6.50919 0.21607,-1.91204 0.13333,3.51043 0.004,-0.15967 0.19359,-0.76335 0.026,1.50602 0.0379,-3.01267 0.11877,-0.0935 0.043,0.71213 0.005,-0.197 0.0471,-1.00474 0.0108,1.94106 0.14881,-0.7794 0.0196,0.45443 0.10655,1.88147 0.28939,-5.273 0.0919,0.41708 0.4304,8.27505 0.15179,-0.82701 0.008,0.54424 0.0363,0.0628 0.0258,-0.0977 0.02,2.43672 0.0231,-1.5573 0.12549,0.35302 0.15674,-5.54431 0.0686,0.40049 0.09,1.28441 0.0126,-0.14777 0.004,1.7452 0.11568,0.76472 0.0126,-0.12751 0.0264,-1.83985 0.0257,0.10037 0.0832,0.33267 0.27052,-5.3727 0.0111,0.82629 0.10248,4.10904 0.0641,-1.7881 6.1e-4,-1.09752 0.0872,3.2561 0.0536,1.0014 10e-4,-1.97758 0.0531,0.60839 0.0224,-0.80388 0.0146,0.24248 0.0892,0.33325 0.0122,-1.84136 0.13434,5.30739 0.10234,3.01316 0.0322,-0.0462 0.0396,0.67974 0.0723,-2.83902 0.0105,1.00158 0.19223,-3.39646 0.0165,0.45012 0.11603,0.82132 0.12351,-2.32535 0.17348,3.26452 0.1678,-3.1644 0.005,-1.87997 0.0678,0.37375 0.10898,1.87358 0.0725,-0.5116 0.0792,1.38361 0.20384,-1.05221 0.0506,-1.77171 0.029,1.42641 0.0951,3.15262 0.0133,-1.43621 0.12243,3.04695 0.1765,-8.34782 0.0314,0.92553 0.0461,0.63063 0.14906,-3.20724 0.004,0.6779 0.0336,2.10548 0.0329,-0.52259 0.0528,0.20828 0.13861,-6.5017 0.14829,0.62782 0.0822,2.66098 0.018,-0.63018 0.1072,0.0543 0.0717,-2.60343 0.38814,-3.08542 0.0411,2.14154 0.0365,-1.64873 0.0849,-0.54138 0.26905,9.0566 0.0816,-2.33043 0.0878,2.52256 0.006,2.15901 0.15233,-1.70973 0.0207,-2.74912 0.0298,1.81606 0.10151,3.18675 0.08,-1.79996 0.0875,-1.16442 0.0328,-2.54087 0.0928,0.29028 0.0776,1.83734 0.18082,-2.30301 0.19047,3.05186 0.0812,-2.15591 0.0283,1.58297 0.0329,0.84397 0.0331,-0.29179 0.33061,-8.13166 2e-5,-0.91496 0.0437,2.30117 0.0645,-0.91606 0.0725,0.88594 0.0317,-0.33802 0.008,-0.6023 0.0813,1.35511 0.0117,2.47521 0.0482,-6.66397 0.0272,1.89763 0.0665,-1.73381 0.0106,0.52054 0.0272,1.72794 0.0594,-2.07712 0.0898,-0.75898 0.0528,4.39978 0.0836,-0.63906 0.11348,-2.84364 0.0383,0.53239 0.0708,2.73798 0.12522,-1.15581 0.0164,0.0714 0.22942,-2.91472 0.1025,-3.53817 0.0323,1.79736 0.19003,-0.40425 0.25473,3.22773 0.0188,-1.22698 0.0651,1.84976 0.0731,-1.62038 0.008,1.89961 0.11235,4.9433 0.0351,-1.85599 0.0469,-0.49702 0.0147,0.011 0.028,-2.0725 0.11821,0.66859 0.1034,-1.04355 0.005,-2.05577 0.0141,4.28868 0.13712,0.53628 0.1391,-1.47378 0.0859,-0.0935 0.11724,-2.71847 0.0329,0.82142 0.25922,-2.81066 0.0115,1.53014 0.0474,-0.65543 0.0947,0.16554 0.003,-0.0721 0.008,2.29086 0.0972,-3.54853 0.0129,-1.37393 0.0838,2.36023 0.0281,2.1929 0.0565,-2.48979 0.0134,0.48563 0.0342,0.74904 0.17694,-5.3011 0.0267,1.4306 0.39563,4.41378 0.01,-0.33517 0.0781,-1.72575 0.084,1.25399 0.0101,-1.22303 0.15873,-5.90588 0.0939,3.10276 0.002,-0.0235 0.24517,-5.11105 0.0145,1.1985 0.11053,-0.15007 0.0794,3.99422 0.0411,-1.76086 0.20059,-2.92751 0.0532,3.50544 0.0642,-3.05784 0.0125,0.64619 0.035,-1.11152 0.0747,-1.03843 0.0412,-2.31254 0.0721,1.64525 0.0115,-0.0753 0.0622,0.71878 0.006,2.30618 0.0174,-4.21618 0.12186,1.81238 0.0293,0.82991 0.0174,-0.72502 0.083,-0.0609 0.0893,-1.29815 0.0484,0.39689 0.0154,1.92237 0.0969,-0.95447 0.0641,-0.60163 0.0489,0.32048 0.12917,2.4373 -0.0496,-2.67968 0.0582,2.13922 0.0803,-0.35878 0.19947,5.45845 0.002,-1.07531 0.0527,-3.23991 0.10638,0.1953 0.0247,-0.2522 0.0223,-1.99581 0.0387,2.83931 0.0255,-2.11723 0.0583,-0.14312 0.0175,-0.55144 0.0512,0.44962 0.111,5.61403 0.0401,-0.4191 0.11166,0.77236 0.12181,2.06654 0.0166,0.33443 0.14846,-6.49086 0.0122,2.20963 0.14294,6.19619 0.23326,-9.82043 0.0459,1.57542 0.10565,-4.21363 0.21952,7.81631 0.11831,-0.54977 0.10218,0.81755 0.002,-0.24754 0.17536,0.27081 0.12253,3.65254 0.022,-4.1766 0.0584,2.59614 0.16298,4.14555 0.0371,-1.77005 0.0689,0.33349 0.0508,-1.47329 0.008,0.27261 0.041,-3.25624 0.0265,1.74954 0.0828,-0.41421 0.0269,2.72529 0.067,-0.21634 0.0706,-0.3227 0.01,0.46424 0.005,-0.0428 0.0933,5.4694 0.0206,-0.78905 0.0184,-0.81459 0.005,2.24107 0.0367,-1.73114 0.14593,5.17216 0.0905,-6.5711 0.07,2.11707 0.0143,-1.15738 0.10253,2.35377 0.002,-2.79325 0.0762,4.01706 0.12212,3.21088 0.068,-0.95681 0.0668,-0.0386 0.15355,2.83686 0.18948,0.23458 0.0647,-1.80383 0.005,1.75656 0.0357,-0.035 0.0412,3.10814 0.14434,1.68286 0.0139,-0.39587 0.0446,-0.19419 0.0131,-3.12326 0.0985,0.23559 0.0416,-2.79363 0.0553,2.41359 0.0276,-0.94394 0.0557,1.68799 0.003,2.42931 0.0354,-4.08799 0.0346,0.003 0.0504,0.65756 0.17087,-12.1152 0.0171,2.11586 0.11057,2.30562 0.006,-0.279 0.14874,-1.29001 0.14368,-1.09361 0.0459,2.26565 0.0427,2.13278 0.0364,-0.20135 0.0741,-4.69136 0.08,0.87305 0.19889,-0.537 0.13865,-6.69457 0.10881,0.65196 0.0378,1.33249 0.0726,-1.0933 0.11283,-0.62166 0.042,0.28653 0.0274,3.52042 0.0448,-4.48726 0.0218,0.29071 0.0452,0.91168 0.0398,-0.15338 0.14237,-4.80233 0.0378,2.51093 0.0501,-3.1214 0.10277,0.55123 0.007,0.90334 0.0845,-2.99938 0.0378,-0.13327 0.0981,2.57246 0.0403,-0.80954 0.0353,-3.81141 0.15251,-0.95245 0.0529,-1.97408 0.17008,1.00218 0.2767,3.27054 0.031,-0.43834 0.0813,3.79997 0.0399,-0.0362 0.0261,-0.56541 0.10289,1.17481 0.14795,8.10688 0.005,-0.42141 0.0789,-0.14645 0.0309,0.21274 0.0767,2.28964 0.0332,-0.77669 0.0735,0.46321 0.0728,-3.00023 0.13648,-1.20912 0.007,-1.74054 0.0561,6.2095 0.18859,-0.73373 0.17393,2.82369 0.067,-0.23934 0.1078,-6.85143 0.0383,-2.37385 0.16682,4.58515 0.0857,-1.66914 0.054,1.41282 0.0342,-0.13046 0.32958,-5.0382 0.11038,1.365 0.0455,-0.57812 0.0867,10e-4 0.10914,2.92464 0.0314,-0.86468 0.10182,1.64115 0.003,-1.23258 0.0407,-1.44762 0.0165,2.0606 0.21584,2.35947 0.005,-3.82043 0.0743,2.57398 0.0775,1.19031 0.0186,-0.065 0.21431,-6.94198 0.0582,1.46661 0.0534,0.85397 0.12261,-5.80845 0.007,0.98298 0.0356,-0.0879 0.1334,-9.91247 0.2261,-8.599588 0.022,0.565857 0.0974,0.940431 0.16474,-7.189759 0.0116,1.31656 0.1835,-4.123135 0.13703,-1.149924 0.0453,0.446496 0.0286,-2.834438 0.0995,1.715875 0.007,2.496899 0.11139,-1.602964 0.0906,5.035158 0.0234,-0.860064 0.0958,-9.52e-4 0.0751,1.203711 0.12483,-4.726396 0.0662,1.411184 0.17141,-0.951847 0.0506,-1.914565 0.063,0.851394 0.0524,0.997926 0.0197,4.368273 0.0576,-0.170596 0.0748,-1.777573 0.049,1.203521 0.0347,1.465987 0.0775,-0.400766 0.43799,11.711055 -0.36602,-12.719616 0.36646,12.273486 0.0998,-1.450743 0.17017,-0.413245 0.0476,-2.555954 0.0741,5.763082 0.20527,-0.50208 0.1056,1.46317 0.0484,-1.28565 0.0361,0.0771 0.15484,3.73884 0.0675,-0.95511 0.0346,1.82997 0.102,-1.4658 0.0645,1.9302 0.0326,-0.82675 0.0959,-1.13943 0.0119,1.26636 0.0337,-3.27996 0.0446,-0.28091 0.0835,2.19057 0.1462,1.25072 0.007,-0.43761 0.15239,-4.4986 0.0597,1.36035 0.0109,-2.25627 0.0244,0.13531 0.004,2.16292 0.0743,-2.79907 0.0217,1.42659 0.0338,1.06196 0.0881,-1.32996 0.088,1.12505 0.13861,3.98346 0.0862,-0.27291 0.11198,4.22251 0.0227,-0.79448 0.13346,-4.25822 0.0808,2.29726 10e-4,-1.88986 0.10395,-1.46266 0.0313,-1.63959 0.0849,1.47934 0.0158,0.96514 0.14195,1.4197 0.12087,-0.50043 0.11198,2.3848 -0.0298,-2.76671 0.0415,2.12433 0.0438,-0.91898 0.11686,0.29421 0.0398,0.3422 0.0226,1.23176 0.0938,-0.24461 0.0765,-1.49162 0.24339,6.46608 0.10103,-2.41917 0.0611,-1.60935 0.22312,-3.22081 0.017,-0.72887 0.0385,1.67573 0.0751,-0.0808 0.0662,-2.10086 0.0217,2.485 0.0826,4.30763 0.0267,-1.7553 0.0248,-0.0146 0.10368,5.89442 0.15026,-6.49831 0.0228,0.68185 10e-4,-1.88703 0.0423,1.56358 0.0193,-2.60156 0.01,2.61452 0.24181,-2.38107 0.28837,-0.56165 0.10655,2.28707 0.13276,1.0003 0.0956,-2.13978 0.0811,3.06171 0.0582,-1.0645 0.0132,-1.09467 0.0116,0.19881 0.1707,5.14262 0.0793,5.57477 0.0295,-2.2546 0.23275,-2.09132 0.0605,1.06166 0.0321,-3.43934 0.10667,3.18828 0.007,-1.357 0.0323,-1.14067 0.0246,0.17751 0.0252,3.29343 0.14581,-0.14515 0.10748,-3.35792 0.0719,2.24997 0.0244,-1.43079 0.0397,-0.76059 0.1665,0.85348 0.0395,0.93814 0.0507,4.15704 0.0594,-0.38989 0.0176,-1.06933 0.0516,3.36429 0.0564,3.30062 0.0647,3.90651 0.0367,-0.92499 0.0247,-1.00658 0.0478,0.20097 0.0809,-0.175 0.094,3.61934 0.004,-1.90527 0.22031,-0.25872 0.0245,0.36042 0.15245,-3.55016 0.0238,0.96086 0.009,-1.69219 0.0181,0.51133 0.11816,-0.006 0.12481,1.41847 0.009,-0.17612 0.0533,0.27288 0.0697,-0.61365 0.0798,0.28597 0.0947,4.54259 0.0437,0.15498 0.083,-2.0992 0.0978,2.92841 0.0489,-0.50744 0.0117,-1.09613 0.0416,1.5162 0.10792,1.78803 4.4e-4,2.88784 0.16288,-2.94197 0.10293,-5.49216 0.0277,4.10132 0.14503,0.48412 0.0385,5.2487 0.0338,-0.35117 0.10401,-1.76383 0.008,-3.34271 0.0724,2.36645 0.19333,3.39815 0.002,-0.95021 0.11219,-1.79134 0.002,1.53839 0.25232,5.59779 0.28395,5.94225 0.007,-1.48314 0.0971,-3.67209 0.0159,1.81218 0.14542,-4.505 0.21681,4.63881 0.005,-0.63814 0.21773,-8.76377 0.0915,-2.53966 0.0272,0.528 0.13936,2.73547 0.12677,-4.06075 0.0229,2.2462 0.0447,-1.19443 0.0714,-3.60846 0.0457,2.99293 0.0987,-2.82048 0.13485,-0.8837 0.0575,2.56625 0.019,-1.843 0.065,-4.36773 0.0237,4.92885 0.0611,1.91955 0.0304,-1.02839 0.1264,1.50011 0.014,3.09408 0.0888,-3.55273 0.0582,0.34319 0.18229,3.89218 0.13222,-2.80882 0.0154,1.61579 0.0206,0.74682 0.0156,-3.37057 0.13083,-5.66249 0.0784,-1.44356 0.0961,1.22677 0.0225,-4.54567 0.0829,5.93216 0.0386,-5.43597 0.0786,-9.32486 0.0898,-1.61476 0.0242,0.29012 0.17431,5.67238 0.051,-4.5305 0.0116,1.30589 0.1467,-0.6467 0.0765,-0.18452 0.007,0.93055 0.0636,0.99521 0.17406,-1.01532 0.0538,-3.91026 0.0432,3.84541 0.0303,1.90758 0.047,-3.58343 0.11382,-3.33049 0.0296,0.0446 0.0218,-2.1752 0.066,3.84814 0.0157,-2.61668 0.10695,-7.70938 0.0174,0.35071 0.0201,1.90044 0.0765,-1.41117 0.12693,1.24325 0.0648,6.18866 0.0422,-0.26413 0.0573,1.02727 0.19481,-6.31277 0.0527,1.23651 0.18134,6.40953 0.15502,4.9104 0.003,-0.45554 0.0369,-7.29393 0.0779,1.50426 0.009,1.71211 0.0576,-4.06617 0.084,-0.57426 0.1281,-1.92727 0.0236,0.10178 0.0833,1.52988 0.24397,2.3394 0.0557,5.55909 0.02,-2.1351 0.0846,-0.88266 0.0161,0.70073 0.0344,-2.2072 0.0783,3.79937 0.0184,-0.75175 0.007,2.34175 0.0849,0.57333 0.007,0.81919 0.0242,-3.41033 0.19359,-3.41816 -0.11607,3.69352 0.14231,-3.46232 0.0678,1.15415 0.17341,-9.76261 0.009,1.80077 0.0242,-0.58833 0.12905,2.17013 0.0104,-2.41323 0.0219,1.58783 0.24503,3.6392 0.0142,-0.64247 0.0614,-2.9714 0.008,2.30749 0.0483,-0.4027 0.0107,2.83009 0.0196,-1.71159 0.18372,0.22438 0.007,-1.31464 0.0732,3.04569 0.0298,-2.18044 0.008,0.88596 0.0694,-3.94665 0.0113,0.10085 0.0779,-2.5742 0.17023,-0.31535 0.14263,7.80179 -0.0987,-8.64125 0.16114,6.63912 0.17125,0.85665 0.007,-0.15344 0.0249,-0.3728 0.009,0.46186 0.0554,0.25323 0.062,-1.48915 0.02,0.96367 0.15713,6.52048 0.13658,-4.44226 0.003,0.47222 0.15434,-2.31681 0.0851,5.88059 0.0919,-2.57413 0.16137,0.41828 0.0423,-2.56036 0.0608,0.11307 0.0663,5.7853 0.027,-2.51781 0.0292,-0.5467 0.13668,5.99923 0.0123,-3.75867 0.097,-3.82253 0.089,-0.11277 0.0422,1.43061 0.0908,-2.18327 0.0495,0.11609 0.2028,4.47349 0.0144,-1.45766 0.0974,-4.00933 0.0398,2.2523 0.18946,5.20729 0.002,-1.53986 0.16301,-7.23394 0.0443,-1.64421 0.0465,2.25024 0.10407,4.5775 0.0868,-1.52036 0.12541,-13.142266 0.0458,3.893236 0.0806,2.32877 0.1126,-3.03873 0.0981,-3.690573 -0.0379,3.749633 0.0496,-3.299626 0.0313,2.407086 0.0586,-3.620396 0.007,0.196628 0.0574,-0.447213 0.0398,-1.3748 0.0516,1.697523 0.047,-0.674914 0.0523,0.447682 0.0129,-3.118782 0.0602,4.235783 0.04,-2.977494 0.0485,-3.159921 0.10138,0.253133 0.0197,-0.841854 0.16198,9.08495 0.0959,-2.009773 0.0636,-3.046518 0.0322,3.432394 0.0777,0.320451 0.13979,-6.890237 0.16996,0.472052 0.0165,-3.57788 0.0877,2.31701 0.24226,2.51621 0.24691,-4.884667 0.11392,6.434414 0.0628,0.249478 0.0356,-1.976227 0.1288,2.248773 0.15657,-9.768077 0.0439,-0.133049 0.0107,1.330542 0.13832,-3.924021 0.0776,4.972567 3.5e-4,-0.551421 0.32058,2.85986 0.0838,-5.119271 0.17669,-0.884972 0.17784,-7.415257 0.0547,1.452599 0.004,-4.027194 0.0915,3.018964 0.13371,-5.429123 0.0253,0.97902 0.092,4.47806 0.11289,-0.511775 0.12573,-7.238955 -0.084,7.417631 0.11849,-6.147324 0.0866,1.133524 0.0124,-0.450315 0.0193,2.450317 0.0643,-5.004666 0.0137,-1.3024 0.005,4.596605 0.0633,0.148846 0.006,-0.09849 0.0571,2.864937 0.0754,-5.321941 0.13255,-2.189233 0.0687,1.448755 0.0817,-3.701038 0.0362,1.282725 0.19206,2.537224 0.14209,0.135644 0.2099,7.778904 0.32916,8.119884 0.0299,-1.921163 0.005,-1.742526 0.0628,3.769177 0.14267,5.035847 0.0581,5.376689 0.0724,-3.619656 0.0642,-0.542204 0.0235,1.921364 0.0322,-4.603774 0.21051,3.991925 0.0842,0.192423 0.10521,-6.655159 0.0114,1.467356 0.0486,3.252049 0.0543,-3.172902 0.0529,-0.568352 0.093,-3.550356 0.0272,1.785846 0.0928,-1.094118 0.17346,0.292513 0.0653,-0.0976 0.0425,3.807689 0.0676,-2.702243 0.0306,2.695685 0.11779,-0.610399 0.0258,0.206905 0.16911,-9.134066 0.15287,7.337837 0.10455,-2.25155 0.17389,10.611451 0.0206,-2.869632 0.076,-6.125388 0.0836,-1.674327 0.0911,5.185185 0.0435,0.771718 0.071,-8.069041 0.003,1.579237 0.0553,-0.156596 0.0633,-1.852907 0.0143,5.446961 0.0523,-1.49061 0.086,-0.131316 0.0711,-2.796267 0.0353,3.332776 0.007,1.202097 0.0328,-4.631548 0.21284,-0.82342 0.008,4.597323 0.0616,-7.785024 0.095,0.193971 0.0229,3.902927 0.16485,-0.161922 0.0103,-3.129475 0.0836,6.814658 0.009,-0.48264 0.0558,1.640328 0.0417,1.079577 0.0231,-0.886342 0.002,2.015682 0.0964,-3.554809 0.0963,-0.281893 0.0563,-2.880362 0.19107,6.05795 0.0368,-0.930091 0.0745,1.936385 0.10459,-7.666458 0.0159,5.735918 0.10381,-1.194328 0.0149,4.483343 0.10718,-0.310777 0.0202,-6.771223 0.071,1.640708 0.0294,1.062408 0.0348,-6.614042 0.0947,2.286482 0.16536,-3.952916 0.002,2.030435 0.0163,0.900465 0.005,-3.142545 0.0608,0.857319 0.0875,1.77731 0.0713,-6.820819 0.0107,1.185074 0.18455,1.235087 0.11154,-2.71192 0.002,0.792218 0.26433,-0.882237 0.0657,0.446365 0.0313,3.354241 0.0895,-2.602313 0.0465,0.933424 0.0271,-0.208233 0.16091,1.714563 0.007,-2.351816 0.0263,4.301984 0.18943,3.109529 0.33432,-4.141236 0.20207,7.231785 0.1071,-1.128165 0.0743,-4.339279 0.004,0.671938 0.17003,-4.918894 0.0965,3.703863 0.13623,4.475454 0.0196,-1.813238 0.14662,-10.9369 0.0435,-0.06359 0.0915,0.133595 0.20441,-8.533085 0.21003,1.599521 0.13917,-3.383364 0.062,1.243921 0.069,-5.750146 0.0602,1.242071 0.0511,0.399531 0.0287,-1.846825 0.13449,10.513904 0.0503,-6.038742 0.11984,4.457219 0.0293,-0.549807 0.0937,0.17446 0.29065,9.304237 0.0603,-0.652942 0.0159,0.916435 0.0223,4.366988 0.0538,-5.710816 0.0686,-4.723103 0.0301,0.507475 0.21768,-0.972496 0.0979,8.055733 0.10008,3.613538 0.0532,-1.058079 0.082,7.145178 0.12203,-10.456859 0.0799,0.0051 0.0998,3.261189 0.0239,-1.235439 0.13954,-8.018533 0.10393,-3.219357 0.0125,-3.960093 0.11866,0.02959 0.0569,-0.524948 0.0558,0.447357 0.0291,-5.178679 0.0648,4.35663 0.0897,9.655325 0.0531,-0.46141 0.11376,-8.256178 0.064,1.986122 0.0133,4.736901 0.0888,-2.295393 0.023,0.622942 0.0449,-1.629773 0.088,-2.923896 0.12272,9.464841 0.20731,-9.025504 0.003,0.202809 0.0473,2.175095 0.20248,5.10987 0.0179,4.660504 0.0671,-9.263621 0.0853,-0.346921 0.007,6.307626 0.18337,2.991264 0.0416,-6.216979 0.22925,-0.235362 0.0159,2.17516 0.0836,-1.761178 0.10169,-5.900504 0.14538,1.422935 0.0869,-4.28572 0.0743,-0.439887 0.002,3.411645 0.0388,-2.100301 0.0851,-1.642685 0.0165,4.219575 0.0283,-8.109467 0.0656,5.622879 0.31089,14.794643 0.0137,-3.05098 0.0421,-2.312011 -0.0108,3.431902 0.0572,-2.950576 0.027,9.793123 0.0294,-3.255833 0.18333,-0.806714 0.0282,-2.508019 0.0211,6.628474 0.0357,4.238566 0.0226,-5.599177 0.084,2.61346 0.0323,-0.04056 0.0155,-3.399832 0.12766,-0.797274 0.0196,5.479489 0.0495,-3.325435 0.13519,7.775004 0.0469,-1.267336 0.0856,-0.616048 0.1255,-7.949435 0.0378,1.157099 0.21502,11.793796 0.0213,-1.355347 0.0138,-4.122915 0.0171,0.164928 0.12081,-0.948802 0.11162,-8.989623 0.12026,-1.314015 0.097,6.700434 0.0572,1.68123 0.0932,-4.381073 0.0402,0.490175 0.0801,-10.737304 0.068,-1.610306 0.0166,5.85718 0.009,-8.366152 0.0328,2.554466 0.0563,-2.323315 0.007,4.140235 0.1288,3.077269 0.16321,-8.551586 0.0508,1.536231 0.0351,-1.448036 0.0611,-0.633653 0.0547,-6.990812 0.0513,2.923207 0.0377,-0.790602 0.0583,14.910812 0.0824,-1.924093 0.037,-1.650344 0.003,2.075876 0.0665,2.661856 0.0682,-2.369801 0.0815,1.177951 0.14244,10.690974 0.008,-0.266576 0.25013,21.919224 0.0845,-3.70972 0.14622,9.00839 0.0528,-4.25901 0.0592,0.7277 0.1492,-14.597822 0.0649,-6.423099 0.0341,9.698738 0.0197,0.05027 0.10879,-10.486796 0.19047,-4.951593 0.0836,14.056351 0.0204,-3.340945 0.0383,3.106763 0.006,-5.823437 0.0264,-1.642113 0.037,3.706078 0.0333,-0.744052 0.0203,-7.405857 0.0503,12.406476 0.0381,-0.95848 0.11024,5.11648 0.0332,-4.13383 0.11413,15.428868 0.0775,-2.04669 0.004,5.72087 0.0574,-13.284591 0.0493,6.619411 0.14807,5.15713 0.0725,-5.46927 9.5e-4,1.20967 0.10944,8.11566 0.14496,-1.86079 0.10249,14.78203 0.0485,2.00432 0.0561,-8.93903 0.0198,4.61772 0.1211,11.20382 0.0574,-6.85415 0.0384,-3.2525 0.0698,8.71123 0.0352,-3.66221 0.006,-5.1787 0.0516,1.98505 0.11107,-2.71207 0.0769,1.22371 0.054,-3.83633 0.0258,1.58764 0.0194,4.95651 0.0439,-5.57539 0.0309,2.65087 0.032,0.56166 0.39799,-35.246525 0.0542,6.833464 0.10115,0.173467 0.0579,-7.702069 0.0283,5.768496 0.0876,0.781412 0.0313,3.562075 0.0442,-0.17646 0.26633,-9.882311 0.0368,5.176248 0.0769,-3.060572 0.02,0.249312 0.14339,9.782923 0.15221,0.33051 0.0637,7.6662 0.0353,-4.52811 0.22346,-4.35594 0.0691,0.69222 0.0297,-4.234892 0.39466,11.813992 0.0815,-1.31997 0.38702,6.38015 0.006,-0.36424 0.0409,-2.26364 0.002,0.1375 0.18223,-0.28777 0.0648,-0.52679 0.11639,13.02062 0.0498,7.34334 0.0702,-6.41093 0.0394,3.46098 0.0556,-1.19982 0.0452,12.89106 0.0754,-8.00927 6e-5,-4.42723 0.16466,-3.38479 0.17423,7.60889 0.13074,-3.86104 0.0172,0.39426 0.15026,12.95815 0.0274,2.47655 0.0598,-7.92498 6e-4,4.26127 0.20129,-0.48452 0.002,2.80681 0.0923,-2.24088 0.0845,10.17252 0.0427,-8.12973 0.0538,1.43478 0.005,-1.94905 0.16303,-18.72868 0.10411,3.29166 2.5e-4,-1.3842 0.13487,9.00883 0.0315,-4.78556 0.0794,0.43875 0.0909,1.71357 0.081,17.20298 0.0393,-1.01368 0.0689,1.118 0.0337,5.39304 0.0279,-6.47889 0.26906,-1.13481 0.0702,9.23088 0.0261,6.08814 0.0313,-4.83183 0.0647,-7.76552 0.2869,2.28244 0.0725,9.14746 0.041,-0.4273 0.17826,24.92997 0.0245,-8.29035 0.0712,6.68529 0.13844,2.65046 0.1074,-6.49324 0.0143,6.10921 0.1484,-9.40088 0.0761,8.5373 0.24579,-0.0108 0.17714,3.0298 0.0466,-4.51037 0.15759,2.52854 0.036,7.90421 0.006,-2.73193 0.16802,4.0461 0.0889,-11.09712 0.45885,42.28446 0.02,-11.26889 0.17357,-3.85924 0.0287,9.23288 0.0149,-0.19512 0.0803,-0.51209 0.17676,-2.60432 0.0171,3.40172 0.17494,-0.45132 0.0452,1.59908 0.27018,7.40564 0.0946,-1.04369 0.11705,-6.44214 0.0282,8.13283 0.15324,-0.86589 0.1169,-4.16437 0.11443,15.82017 0.11908,-3.53134 0.0263,3.21036 0.30452,14.00613 0.0237,4.77407 0.0388,-9.57809 0.18983,-0.61848 0.17478,8.11162 v -4.44574 l 0.0104,-7.82425 0.26126,-3.54993 0.0566,2.49266 0.22513,14.71609 0.10575,4.05501 0.14072,0.38886 0.0506,-3.90254 0.0193,4.46707 0.191,21.35978 0.17437,-2.97206 0.008,2.68533 0.0508,-3.38565 0.11463,-4.27115 0.009,4.57843 0.62103,1.93885 0.0349,6.35473 0.0805,-1.54 0.17712,-6.05364 0.0971,0.97555 0.0665,2.07539 0.1388,-11.39373 0.0348,-2.31003 0.31234,-2.64782 0.0555,-4.05399 0.0304,5.50053 0.42735,-0.18602 0.10366,2.83405 0.14467,-6.74581 0.18414,2.28773 0.0213,-2.1587 0.0437,5.07998 0.0369,-1.93092 0.0315,-10.66623 0.062,6.6161 0.23476,2.28173 0.26368,0.9653 0.0879,-15.84166 0.0755,2.4458 0.13321,11.87863 0.0237,-0.38879 0.087,-0.90127 0.1674,-16.76609 0.0935,0.0838 0.0522,-0.34535 0.0379,-2.37889 0.0347,0.21774 0.0583,2.83348 0.0616,-3.54483 0.0416,7.29718 0.0439,-5.87169 0.0313,-1.46729 0.0236,3.78405 0.32484,-7.71079 0.0883,0.86085 v 0" /></g></g><g
       id="g134"><path
         id="path136"
         style="fill:none;stroke:#000000;stroke-width:0.80000001;stroke-linecap:square;stroke-linejoin:miter;stroke-miterlimit:10;stroke-dasharray:none;stroke-opacity:1"
         d="m 49.2,37.54375 v 266.112" /><path
         id="path138"
         style="fill:none;stroke:#000000;stroke-width:0.80000001;stroke-linecap:square;stroke-linejoin:miter;stroke-miterlimit:10;stroke-dasharray:none;stroke-opacity:1"
         d="m 406.32,37.54375 v 266.112" /><path
         id="path140"
         style="fill:none;stroke:#000000;stroke-width:0.80000001;stroke-linecap:square;stroke-linejoin:miter;stroke-miterlimit:10;stroke-dasharray:none;stroke-opacity:1"
         d="M 49.2,37.54375 H 406.32" /><path
         id="path142"
         style="fill:none;stroke:#000000;stroke-width:0.80000001;stroke-linecap:square;stroke-linejoin:miter;stroke-miterlimit:10;stroke-dasharray:none;stroke-opacity:1"
         d="M 49.2,303.65575 H 406.32" /><g
         transform="translate(57.931875,309.65575)"
         id="g144"><text
           id="text148"
           style="font-variant:normal;font-weight:normal;font-size:12px;font-family:'DejaVu Sans';-inkscape-font-specification:DejaVuSans;writing-mode:lr-tb;fill:#000000;fill-opacity:1;fill-rule:nonzero;stroke:none"
           transform="scale(1,-1)"><tspan
             id="tspan146"
             y="0"
             x="0 3.54 15.228 22.848 30.204 36.804001 41.507999 45.324001 52.667999 56.891998 60.708 68.516747 75.860748 80.564751 87.920753 92.624748 95.960747 103.30475 110.91275 114.72875 122.01488 129.37088 134.30287 137.63887 144.99487 149.69887 153.03488 160.37888 167.98688 171.80287 179.14688 186.75487 190.57088 198.94687 202.28287 209.63887 215.89087 222.14287 225.47888 229.70288 233.03888 239.63887 246.99487 251.69887 255.03488 262.37888 269.98688 273.80289 278.48288 286.29163 293.67163 299.92361 307.53162 314.91162 319.61563 327.24762 334.87964">Impact of Rotation Variation on Classification (Resnet34)</tspan></text>
</g></g></g></svg>