<?xml version="1.0" encoding="UTF-8" standalone="no"?>
<svg
   xmlns:dc="http://purl.org/dc/elements/1.1/"
   xmlns:cc="http://creativecommons.org/ns#"
   xmlns:rdf="http://www.w3.org/1999/02/22-rdf-syntax-ns#"
   xmlns:svg="http://www.w3.org/2000/svg"
   xmlns="http://www.w3.org/2000/svg"
   viewBox="0 0 555.02667 434.64099"
   height="434.64099"
   width="555.02667"
   xml:space="preserve"
   id="svg2"
   version="1.1"><metadata
     id="metadata8"><rdf:RDF><cc:Work
         rdf:about=""><dc:format>image/svg+xml</dc:format><dc:type
           rdf:resource="http://purl.org/dc/dcmitype/StillImage" /></cc:Work></rdf:RDF></metadata><defs
     id="defs6"><clipPath
       id="clipPath138"
       clipPathUnits="userSpaceOnUse"><path
         id="path136"
         d="m 51.95,37.54375 h 357.12 v 266.112 H 51.95 Z" /></clipPath></defs><g
     transform="matrix(1.3333333,0,0,-1.3333333,0,434.641)"
     id="g10"><path
       id="path12"
       style="fill:#ffffff;fill-opacity:1;fill-rule:nonzero;stroke:none"
       d="M 0,0 H 416.27 V 325.98075 H 0 Z" /><path
       id="path14"
       style="fill:#ffffff;fill-opacity:1;fill-rule:nonzero;stroke:none"
       d="m 51.95,37.54375 h 357.12 v 266.112 H 51.95 Z" /><path
       id="path16"
       style="fill:#000000;fill-opacity:1;fill-rule:nonzero;stroke:#000000;stroke-width:0.80000001;stroke-linecap:butt;stroke-linejoin:round;stroke-miterlimit:10;stroke-dasharray:none;stroke-opacity:1"
       d="m 68.182727,37.54375 v -3.5" /><g
       transform="translate(60.229602,22.95)"
       id="g18"><text
         id="text22"
         style="font-variant:normal;font-weight:normal;font-size:10px;font-family:'DejaVu Sans';-inkscape-font-specification:DejaVuSans;writing-mode:lr-tb;fill:#000000;fill-opacity:1;fill-rule:nonzero;stroke:none"
         transform="scale(1,-1)"><tspan
           id="tspan20"
           y="0"
           x="0 6.3600001 9.54">0.0</tspan></text>
</g><path
       id="path24"
       style="fill:#000000;fill-opacity:1;fill-rule:nonzero;stroke:#000000;stroke-width:0.80000001;stroke-linecap:butt;stroke-linejoin:round;stroke-miterlimit:10;stroke-dasharray:none;stroke-opacity:1"
       d="m 133.11364,37.54375 v -3.5" /><g
       transform="translate(125.16051,22.95)"
       id="g26"><text
         id="text30"
         style="font-variant:normal;font-weight:normal;font-size:10px;font-family:'DejaVu Sans';-inkscape-font-specification:DejaVuSans;writing-mode:lr-tb;fill:#000000;fill-opacity:1;fill-rule:nonzero;stroke:none"
         transform="scale(1,-1)"><tspan
           id="tspan28"
           y="0"
           x="0 6.3600001 9.54">0.2</tspan></text>
</g><path
       id="path32"
       style="fill:#000000;fill-opacity:1;fill-rule:nonzero;stroke:#000000;stroke-width:0.80000001;stroke-linecap:butt;stroke-linejoin:round;stroke-miterlimit:10;stroke-dasharray:none;stroke-opacity:1"
       d="m 198.04454,37.54375 v -3.5" /><g
       transform="translate(190.09142,22.95)"
       id="g34"><text
         id="text38"
         style="font-variant:normal;font-weight:normal;font-size:10px;font-family:'DejaVu Sans';-inkscape-font-specification:DejaVuSans;writing-mode:lr-tb;fill:#000000;fill-opacity:1;fill-rule:nonzero;stroke:none"
         transform="scale(1,-1)"><tspan
           id="tspan36"
           y="0"
           x="0 6.3600001 9.54">0.4</tspan></text>
</g><path
       id="path40"
       style="fill:#000000;fill-opacity:1;fill-rule:nonzero;stroke:#000000;stroke-width:0.80000001;stroke-linecap:butt;stroke-linejoin:round;stroke-miterlimit:10;stroke-dasharray:none;stroke-opacity:1"
       d="m 262.97545,37.54375 v -3.5" /><g
       transform="translate(255.02233,22.95)"
       id="g42"><text
         id="text46"
         style="font-variant:normal;font-weight:normal;font-size:10px;font-family:'DejaVu Sans';-inkscape-font-specification:DejaVuSans;writing-mode:lr-tb;fill:#000000;fill-opacity:1;fill-rule:nonzero;stroke:none"
         transform="scale(1,-1)"><tspan
           id="tspan44"
           y="0"
           x="0 6.3600001 9.54">0.6</tspan></text>
</g><path
       id="path48"
       style="fill:#000000;fill-opacity:1;fill-rule:nonzero;stroke:#000000;stroke-width:0.80000001;stroke-linecap:butt;stroke-linejoin:round;stroke-miterlimit:10;stroke-dasharray:none;stroke-opacity:1"
       d="m 327.90636,37.54375 v -3.5" /><g
       transform="translate(319.95324,22.95)"
       id="g50"><text
         id="text54"
         style="font-variant:normal;font-weight:normal;font-size:10px;font-family:'DejaVu Sans';-inkscape-font-specification:DejaVuSans;writing-mode:lr-tb;fill:#000000;fill-opacity:1;fill-rule:nonzero;stroke:none"
         transform="scale(1,-1)"><tspan
           id="tspan52"
           y="0"
           x="0 6.3600001 9.54">0.8</tspan></text>
</g><path
       id="path56"
       style="fill:#000000;fill-opacity:1;fill-rule:nonzero;stroke:#000000;stroke-width:0.80000001;stroke-linecap:butt;stroke-linejoin:round;stroke-miterlimit:10;stroke-dasharray:none;stroke-opacity:1"
       d="m 392.83727,37.54375 v -3.5" /><g
       transform="translate(384.88415,22.95)"
       id="g58"><text
         id="text62"
         style="font-variant:normal;font-weight:normal;font-size:10px;font-family:'DejaVu Sans';-inkscape-font-specification:DejaVuSans;writing-mode:lr-tb;fill:#000000;fill-opacity:1;fill-rule:nonzero;stroke:none"
         transform="scale(1,-1)"><tspan
           id="tspan60"
           y="0"
           x="0 6.3600001 9.54">1.0</tspan></text>
</g><g
       transform="translate(112.02563,9.278125)"
       id="g64"><text
         id="text68"
         style="font-variant:normal;font-weight:normal;font-size:10px;font-family:'DejaVu Sans';-inkscape-font-specification:DejaVuSans;writing-mode:lr-tb;fill:#000000;fill-opacity:1;fill-rule:nonzero;stroke:none"
         transform="scale(1,-1)"><tspan
           id="tspan66"
           y="0"
           x="0 7.6999998 10.48 15.69 19.610001 25.74 32.080002 37.580002 43.73 46.91 53.75 56.529999 62.650002 68.989998 75.339996 78.519997 82.440002 88.779999 94.93 98.110001 106.74 112.86 118.07 121.99 125.17 132.87 135.64999 140.86 146.36 150.47 153.25 162.99001 165.77 172.11 178.24001 184.58 188.5 191.67999 199.38 202.16 206.05125 212.20125 217.70125 221.62125 224.40125 230.52126">Distance Along the Most Discriminant Direction</tspan></text>
</g><path
       id="path70"
       style="fill:#000000;fill-opacity:1;fill-rule:nonzero;stroke:#000000;stroke-width:0.80000001;stroke-linecap:butt;stroke-linejoin:round;stroke-miterlimit:10;stroke-dasharray:none;stroke-opacity:1"
       d="m 51.95,50.093739 h -3.5" /><g
       transform="translate(33.590625,46.296864)"
       id="g72"><text
         id="text76"
         style="font-variant:normal;font-weight:normal;font-size:10px;font-family:'DejaVu Sans';-inkscape-font-specification:DejaVuSans;writing-mode:lr-tb;fill:#000000;fill-opacity:1;fill-rule:nonzero;stroke:none"
         transform="scale(1,-1)"><tspan
           id="tspan74"
           y="0"
           x="0 6.3600001">0°</tspan></text>
</g><path
       id="path78"
       style="fill:#000000;fill-opacity:1;fill-rule:nonzero;stroke:#000000;stroke-width:0.80000001;stroke-linecap:butt;stroke-linejoin:round;stroke-miterlimit:10;stroke-dasharray:none;stroke-opacity:1"
       d="m 51.95,89.527371 h -3.5" /><g
       transform="translate(27.23125,85.730496)"
       id="g80"><text
         id="text84"
         style="font-variant:normal;font-weight:normal;font-size:10px;font-family:'DejaVu Sans';-inkscape-font-specification:DejaVuSans;writing-mode:lr-tb;fill:#000000;fill-opacity:1;fill-rule:nonzero;stroke:none"
         transform="scale(1,-1)"><tspan
           id="tspan82"
           y="0"
           x="0 6.3600001 12.72">20°</tspan></text>
</g><path
       id="path86"
       style="fill:#000000;fill-opacity:1;fill-rule:nonzero;stroke:#000000;stroke-width:0.80000001;stroke-linecap:butt;stroke-linejoin:round;stroke-miterlimit:10;stroke-dasharray:none;stroke-opacity:1"
       d="m 51.95,128.961 h -3.5" /><g
       transform="translate(27.23125,125.16413)"
       id="g88"><text
         id="text92"
         style="font-variant:normal;font-weight:normal;font-size:10px;font-family:'DejaVu Sans';-inkscape-font-specification:DejaVuSans;writing-mode:lr-tb;fill:#000000;fill-opacity:1;fill-rule:nonzero;stroke:none"
         transform="scale(1,-1)"><tspan
           id="tspan90"
           y="0"
           x="0 6.3600001 12.72">40°</tspan></text>
</g><path
       id="path94"
       style="fill:#000000;fill-opacity:1;fill-rule:nonzero;stroke:#000000;stroke-width:0.80000001;stroke-linecap:butt;stroke-linejoin:round;stroke-miterlimit:10;stroke-dasharray:none;stroke-opacity:1"
       d="m 51.95,168.39463 h -3.5" /><g
       transform="translate(27.23125,164.59776)"
       id="g96"><text
         id="text100"
         style="font-variant:normal;font-weight:normal;font-size:10px;font-family:'DejaVu Sans';-inkscape-font-specification:DejaVuSans;writing-mode:lr-tb;fill:#000000;fill-opacity:1;fill-rule:nonzero;stroke:none"
         transform="scale(1,-1)"><tspan
           id="tspan98"
           y="0"
           x="0 6.3600001 12.72">60°</tspan></text>
</g><path
       id="path102"
       style="fill:#000000;fill-opacity:1;fill-rule:nonzero;stroke:#000000;stroke-width:0.80000001;stroke-linecap:butt;stroke-linejoin:round;stroke-miterlimit:10;stroke-dasharray:none;stroke-opacity:1"
       d="m 51.95,207.82827 h -3.5" /><g
       transform="translate(27.23125,204.03139)"
       id="g104"><text
         id="text108"
         style="font-variant:normal;font-weight:normal;font-size:10px;font-family:'DejaVu Sans';-inkscape-font-specification:DejaVuSans;writing-mode:lr-tb;fill:#000000;fill-opacity:1;fill-rule:nonzero;stroke:none"
         transform="scale(1,-1)"><tspan
           id="tspan106"
           y="0"
           x="0 6.3600001 12.72">80°</tspan></text>
</g><path
       id="path110"
       style="fill:#000000;fill-opacity:1;fill-rule:nonzero;stroke:#000000;stroke-width:0.80000001;stroke-linecap:butt;stroke-linejoin:round;stroke-miterlimit:10;stroke-dasharray:none;stroke-opacity:1"
       d="m 51.95,247.2619 h -3.5" /><g
       transform="translate(20.871875,243.46502)"
       id="g112"><text
         id="text116"
         style="font-variant:normal;font-weight:normal;font-size:10px;font-family:'DejaVu Sans';-inkscape-font-specification:DejaVuSans;writing-mode:lr-tb;fill:#000000;fill-opacity:1;fill-rule:nonzero;stroke:none"
         transform="scale(1,-1)"><tspan
           id="tspan114"
           y="0"
           x="0 6.3600001 12.72 19.08">100°</tspan></text>
</g><path
       id="path118"
       style="fill:#000000;fill-opacity:1;fill-rule:nonzero;stroke:#000000;stroke-width:0.80000001;stroke-linecap:butt;stroke-linejoin:round;stroke-miterlimit:10;stroke-dasharray:none;stroke-opacity:1"
       d="m 51.95,286.69553 h -3.5" /><g
       transform="translate(20.871875,282.89866)"
       id="g120"><text
         id="text124"
         style="font-variant:normal;font-weight:normal;font-size:10px;font-family:'DejaVu Sans';-inkscape-font-specification:DejaVuSans;writing-mode:lr-tb;fill:#000000;fill-opacity:1;fill-rule:nonzero;stroke:none"
         transform="scale(1,-1)"><tspan
           id="tspan122"
           y="0"
           x="0 6.3600001 12.72 19.08">120°</tspan></text>
</g><g
       transform="rotate(90,-41.438156,56.231906)"
       id="g126"><text
         id="text130"
         style="font-variant:normal;font-weight:normal;font-size:10px;font-family:'DejaVu Sans';-inkscape-font-specification:DejaVuSans;writing-mode:lr-tb;fill:#000000;fill-opacity:1;fill-rule:nonzero;stroke:none"
         transform="scale(1,-1)"><tspan
           id="tspan128"
           y="0"
           x="0 7.6999998 10.48 14 17.52 23.67 27.561251 33.71125 40.05125 45.55125 51.701248 54.881248 57.661251 64.001251 67.181252 73.693748 79.813751 83.733749 89.863747 93.783752 96.563751 102.68375 109.02375 112.20375 119.04375 125.38375 131.73375 134.51375 140.66376">Difference in Rotation Angles</tspan></text>
</g><g
       id="g132"><g
         clip-path="url(#clipPath138)"
         id="g134"><path
           id="path140"
           style="fill:none;stroke:#1f77b4;stroke-width:1.5;stroke-linecap:square;stroke-linejoin:round;stroke-miterlimit:10;stroke-dasharray:none;stroke-opacity:1"
           d="m 68.182727,50.016345 2.933473,-0.119669 2.428063,0.05403 0.371617,0.757539 0.237339,-0.264466 0.06619,-0.804034 0.0272,0.574839 0.521954,0.211076 0.280577,-0.116037 0.05248,-0.167481 0.348604,0.0079 1.060732,1.077523 0.196511,0.368651 0.139831,-0.318495 0.709434,0.29533 0.149515,-0.807175 0.419529,0.164603 0.412707,-0.238846 0.31346,-0.825116 0.101284,0.252103 0.359073,-0.126309 0.272632,0.360066 0.37515,-0.240777 0.157049,0.962306 1.238903,0.49517 0.08878,-0.2042 0.09171,0.107783 0.258912,-0.0304 0.289849,0.787851 0.34481,-0.33589 0.448206,1.247564 0.116762,-0.09079 0.305534,0.212209 0.783837,0.07132 0.241882,0.970793 0.138764,0.06481 0.07134,0.474014 0.303776,-0.475755 0.220888,0.193791 0.387001,0.409887 0.618584,-0.890374 0.153066,-0.06576 0.475499,-0.565774 0.188509,-0.381811 0.02026,0.01437 0.124465,0.67992 0.321086,0.412918 0.280559,-0.234298 0.04101,-0.340164 0.238648,0.801565 0.09811,-0.335792 0.443159,-0.256156 0.07253,-0.467639 1.505819,0.466725 0.453121,-0.688872 0.01445,0.589563 0.13312,-0.413776 0.02161,0.07366 0.531713,-0.296419 0.427698,0.229675 0.274634,-0.211918 0.477612,0.09335 0.03152,0.949686 0.170284,-0.562151 0.0076,0.291467 0.01611,0.354785 0.766601,-0.107826 0.522402,0.150538 0.185389,-0.464697 0.12581,0.139945 0.213243,0.0088 0.244646,-0.267956 0.202831,0.05149 0.467086,0.432455 0.479648,-0.0011 0.124391,-0.784099 0.271287,-0.123296 0.099,0.149616 0.01028,0.344071 0.185164,0.35584 0.150971,-0.07026 0.08997,0.482836 0.144448,-0.743328 0.15174,0.369129 0.04759,-0.651988 0.02931,0.262548 0.452132,0.112945 0.128764,0.514694 0.236777,-0.03312 0.248144,1.194208 0.169423,-0.0733 0.04862,1.35221 0.554798,-0.09304 0.06502,0.453472 0.181761,0.134571 0.05752,-0.143254 0.434092,0.135081 0.05689,-0.263783 0.0033,0.01504 0.149626,-0.138938 0.177515,0.0088 0.0953,0.295459 0.008,-0.248182 0.11915,-0.627976 0.55308,0.570982 0.078,-0.157843 0.24268,-0.05872 0.0773,0.166685 0.0483,-0.540012 0.20526,-0.05073 0.51981,-0.8371 0.64494,-0.322095 0.0381,-0.233307 0.17907,0.211451 0.56097,1.389709 0.0284,-0.01276 0.42607,0.866125 2.4e-4,-0.0589 0.0383,-0.126805 0.36532,-0.189512 0.01,-0.707249 0.63507,0.418984 0.0304,-0.401143 0.0216,0.47145 0.37457,-1.004007 0.16215,-0.402518 0.0128,0.342893 0.0406,-0.521749 0.21696,0.09546 0.0611,-0.740209 0.26411,-0.578444 0.24535,1.900101 0.0648,-0.128171 0.13634,0.161743 0.24912,-0.254759 0.11674,1.163073 0.12289,-0.07092 0.0462,0.69488 0.0319,-0.117092 0.32664,-0.04563 0.01,-0.55448 0.29312,-0.394288 0.002,-0.562785 0.14847,0.134972 0.1783,-0.29532 0.0293,-0.772719 0.21086,0.107906 0.15443,-0.67374 0.45366,0.64754 0.0177,-0.425893 0.01,0.0015 0.14689,0.662892 0.31062,-0.485064 0.0607,0.09988 0.0607,-0.01802 0.36217,-0.727351 0.16624,0.676344 0.29849,-0.578031 0.28474,0.719987 0.19794,0.101537 0.0742,-0.844161 0.0482,0.810188 0.21834,-0.03424 0.16241,0.383601 0.0783,1.146317 0.0665,-0.488614 0.1482,0.09764 0.18579,0.322532 0.51378,0.151118 0.14253,-0.766386 0.0739,0.411901 0.0215,-0.171855 0.0663,-0.238138 0.32377,1.04801 0.0102,-0.120948 0.22768,2.07973 0.13551,-0.0097 0.0489,0.528033 0.0428,-0.361593 0.091,0.511706 0.11584,-0.263105 0.0201,0.07471 0.10831,0.04577 0.10641,1.503934 0.11796,-0.03428 0.11264,-0.135861 0.0461,-0.428136 0.16086,-0.211244 0.10897,0.17871 0.15811,-0.563932 0.1338,1.30318 0.13412,-7.41e-4 0.10011,-1.345566 0.10039,0.139069 0.14791,1.148555 0.0328,-0.784119 0.25796,-0.128278 0.15282,0.631319 0.13434,-0.07314 0.0306,0.141271 0.0527,-0.538045 0.12157,0.597052 8e-4,-0.04076 0.0604,-0.603565 0.0891,0.190374 0.0625,1.747483 0.0828,0.819607 0.0114,-0.591965 0.027,-0.423278 0.0402,0.380277 0.12377,1.461691 0.16772,-0.05112 0.16327,-0.485115 0.13568,0.120488 0.40103,-0.840028 0.14377,0.05221 0.01,-0.08295 0.11494,-0.187388 0.0286,-0.321886 0.0697,0.166979 0.12704,-0.304467 0.17295,0.589295 0.079,-0.126545 0.0442,0.493359 0.1685,-0.726098 0.0406,0.231728 0.24843,1.258572 0.0423,-0.330707 0.13629,-0.0178 0.0108,0.536708 0.0215,-0.0046 0.13999,0.2297 0.007,-0.06475 0.0982,-1.257735 0.0612,0.312364 0.0643,0.08586 0.17803,-1.356262 0.15832,0.07082 0.10265,-1.127662 0.10276,0.369056 0.24647,-0.357521 0.0372,0.150289 0.18041,0.01423 0.12158,-0.534851 0.10187,0.782936 0.0305,-0.704254 0.0814,0.07003 0.0876,1.04653 0.0101,-0.285327 0.21684,-1.117415 0.0157,0.551966 0.20676,1.848195 0.0118,-0.524127 0.12774,-0.962756 0.0611,0.150864 0.15837,-0.828541 0.0681,-0.452936 v -0.703058 l 0.0739,0.419656 0.0762,0.411647 0.01,-0.285318 0.13472,-0.128164 0.15051,1.2016 0.0193,-0.359999 0.22398,1.36438 0.009,0.771409 0.0629,-0.253284 0.16862,0.0047 0.0425,0.49596 0.14345,-1.141159 0.0888,-0.925548 0.12475,-0.475013 0.0462,0.0471 0.22116,0.137862 0.0317,-0.07112 0.0772,0.414726 0.0259,-0.05913 0.0442,0.24477 0.24824,-0.142956 0.16821,0.269013 0.005,-0.220607 0.12311,-0.312938 0.005,0.16571 0.0592,1.159229 0.053,-0.896815 0.0208,-0.307025 0.17424,-0.242338 0.15187,2.62e-4 0.0116,-0.232088 0.25537,0.186776 0.1758,-0.785244 0.0534,0.373202 0.0559,-0.577271 0.15119,-0.171763 0.13163,1.030808 0.13778,-0.287726 0.13787,1.639872 0.0132,-0.438741 0.0558,-0.0079 0.16536,1.976824 0.26165,0.258822 0.008,-0.128268 0.0914,-0.748001 0.25771,1.333467 0.0973,-0.301133 0.0159,-0.481424 0.16578,-0.360996 0.0508,0.506226 0.0254,-0.584969 0.1944,0.561808 0.0482,-0.638137 0.0385,0.636171 0.0479,0.07187 0.0148,-0.720338 0.0278,0.518017 0.13323,0.775621 0.022,-0.483134 0.0915,-0.345336 0.14094,1.512754 0.0171,-0.182764 0.0131,-0.313844 0.0127,0.373164 0.019,-0.187717 0.21893,0.03527 0.15361,0.671578 0.005,0.235751 0.11427,-0.03027 0.19458,-1.761987 0.0421,0.214096 0.0592,-0.266261 0.12452,0.31094 0.0383,-1.144248 0.0539,0.610991 0.046,0.967232 0.005,-0.480647 0.11949,-0.482778 0.0734,0.04721 0.20884,0.937092 0.0545,-0.640413 0.13601,0.177405 0.037,0.06768 0.31815,0.265923 0.0745,-0.534452 0.0971,0.900547 0.046,-0.275718 0.18662,-1.099703 0.0526,0.067 0.0604,0.681572 0.0337,-0.262864 0.13617,-0.685846 0.45783,0.155147 0.33978,1.526889 0.17626,-0.746583 0.26095,2.054903 0.0242,-0.271832 0.0372,0.0091 0.0192,-0.490341 0.19371,1.216029 0.12216,0.334782 0.13718,-0.870394 0.003,0.01416 0.0761,0.645181 0.0185,-0.269046 0.16851,-0.758142 0.12324,0.439635 0.0384,-0.28215 0.0494,0.09881 0.19506,1.377408 0.32173,0.336799 0.0604,0.304836 0.40825,0.487978 0.0707,-1.933567 0.0725,0.517157 0.0406,0.318505 0.0531,-1.050864 0.0714,0.161036 0.20725,1.546768 0.33778,-1.795033 0.0409,-0.07783 0.19171,0.141762 0.0108,-0.369472 0.23007,-0.325186 0.073,0.18095 0.0886,0.147452 0.12903,-0.13797 8e-4,0.420018 0.0895,-1.527459 0.0163,0.333193 0.1175,1.106375 0.0493,-0.04606 0.24822,0.727074 0.074,1.089286 0.0492,-0.378183 0.0335,-0.428365 0.0755,0.545856 0.0421,-0.07379 0.16287,-0.36657 0.23867,0.706819 0.0705,0.291096 0.0646,-0.04351 0.0693,2e-4 0.19115,-0.17507 0.21341,1.860683 0.0174,-0.499807 0.0255,0.354188 0.23564,-0.469489 0.008,0.218577 0.0834,0.797796 0.0749,0.701568 0.0567,-0.0333 0.20304,0.645209 0.003,-0.601287 0.24667,0.1648 0.22646,-0.524042 0.2831,0.278493 0.0156,-0.05477 0.0109,-0.365919 0.24008,0.532179 0.39034,0.03043 0.0613,0.679977 0.0723,-1.07039 0.0276,0.523998 0.11809,0.271018 0.30027,-0.0582 0.2282,2.713555 0.18054,-0.524373 0.0308,0.126124 0.0665,0.167564 0.0749,-0.318803 0.0251,0.321198 0.0738,0.134334 0.12366,-0.470967 0.0247,-0.829605 0.0881,0.704724 0.0298,0.137599 0.0493,-0.926125 0.0722,0.329133 0.004,0.699219 0.086,-1.085075 0.0214,-0.212937 0.0198,0.07892 0.0109,0.937872 0.088,-0.06479 0.016,-0.950423 0.0723,0.351041 0.18347,-0.04284 0.0309,0.793051 0.0172,-0.184208 0.2099,-0.331154 0.001,0.364622 0.0346,-0.311826 0.0824,-0.396177 0.0967,0.718039 0.37778,2.05933 0.0145,-0.854392 0.0483,-0.536358 0.0725,0.303764 0.0472,0.04251 0.0565,0.720563 0.0662,-0.04928 0.0772,-0.313551 0.20798,0.290538 0.13356,-0.09018 0.0586,0.296929 0.0962,-0.609597 0.0983,0.36696 0.0477,-0.185479 0.24791,0.160311 0.0657,0.383761 0.0987,0.134687 0.0296,-0.0823 0.0558,-0.420783 0.0797,0.13589 0.11895,0.726842 0.0472,-0.393276 0.022,0.05964 0.10612,0.816532 0.0285,-0.42673 0.14015,-1.002516 0.0376,0.314151 0.0259,1.065571 0.11413,-0.13687 0.23023,0.434338 0.20647,0.471524 0.0313,-0.09187 0.0177,0.779768 0.0163,-1.068321 0.0249,0.279424 0.10545,-0.182732 0.0127,0.417311 0.0854,-0.07123 0.21424,-1.261531 0.17973,0.809814 0.0969,-1.478589 0.002,0.260167 0.0952,0.132917 0.1516,0.548138 0.007,-0.731507 0.25384,0.417765 0.0315,0.425768 0.0266,-0.485396 0.0842,0.420132 0.0941,-0.05921 0.0132,0.383049 0.1317,-0.296008 0.0888,0.438648 0.083,-0.369388 0.0368,0.321411 0.0687,0.04135 0.22242,0.489274 0.0684,0.958885 0.0397,-0.556306 0.21193,-1.629215 0.008,0.158722 0.003,-0.387574 0.0959,0.177915 0.0961,-0.153052 0.10442,0.854023 0.31,1.151312 0.1319,-1.184578 0.0102,0.473379 0.0992,-0.08705 0.0563,0.884929 0.0185,-0.148557 0.19201,0.220837 0.0135,0.439471 0.0203,-1.182011 0.0719,-0.05802 0.11248,1.207656 0.0298,-0.978628 0.002,-0.556824 0.19416,0.142406 0.079,-0.493158 0.0333,0.426173 0.0677,1.512056 0.30442,0.770524 0.0445,-0.09478 0.0126,-0.702456 0.36802,0.604981 0.0287,0.03173 0.11598,0.407216 0.30005,1.438218 0.13975,-0.831704 0.0771,0.152228 0.008,-0.08694 0.0254,1.693267 0.12475,1.627882 0.25195,-0.332409 0.0362,-0.594524 0.0137,0.525391 0.0337,0.655645 0.20645,0.143058 0.0248,0.491517 0.0591,-0.827886 0.10821,-0.721974 0.006,0.171619 0.0564,-0.127375 0.0843,0.738472 0.0122,-0.945462 0.0926,-0.63895 0.093,-0.625571 0.0379,0.455675 0.19826,0.581454 0.007,-0.02184 0.018,-0.80626 0.0536,0.372637 0.0601,0.408889 0.19103,-1.143212 0.0591,1.057575 0.0973,0.196937 0.043,-0.119427 0.11176,-1.328201 0.078,0.776964 0.25975,-0.207686 0.0222,0.607851 0.0749,-0.313937 0.0927,-0.211705 0.13752,0.790185 0.0777,-0.55137 0.15768,0.607188 0.0637,0.04653 0.0162,0.205954 0.09,-0.301964 0.0352,-0.528609 0.0386,0.326258 0.13376,1.192976 0.0439,-0.03182 0.15055,0.55051 0.0819,-0.390373 0.0597,0.281711 0.0491,-1.594105 0.19244,-0.430368 0.13693,-0.914077 0.1744,-0.551605 0.0155,-0.838602 0.0624,0.761036 0.0709,-0.216649 0.14777,0.08111 0.30286,-1.356241 0.11976,1.090074 0.12164,-0.03258 0.0701,0.29917 0.18214,-0.750922 0.0519,0.292151 0.0807,0.249722 0.0647,-1.144327 0.0388,0.134324 0.0754,0.760493 0.004,-0.264973 0.20971,-1.103204 0.10351,0.444607 0.10257,-0.088 0.0716,0.569899 0.1199,-0.51995 0.18949,-0.177375 0.11669,0.07934 0.0174,0.236251 0.12983,-0.03893 0.19105,0.100175 0.16905,0.955682 0.0452,-1.256315 0.19212,1.011483 0.0901,-0.761085 0.1092,0.621345 0.0132,-0.451 0.41383,0.602452 0.25345,-0.175168 0.10353,-0.439617 0.38896,0.04875 0.0733,-0.966823 0.0225,0.254667 0.031,0.556663 0.1917,0.383872 0.0536,0.745647 0.24499,-0.262312 0.13214,-0.628039 0.0646,-1.63189 0.0622,0.701191 0.17082,0.791204 0.0372,-0.366897 0.0374,0.326368 0.10421,-0.600647 0.11659,0.211506 0.17166,-1.93145 0.20999,0.447968 0.27678,1.777365 0.10076,-0.112884 0.0161,0.817817 0.0113,-0.398477 0.2052,-0.119689 0.0269,-0.212824 0.0871,0.235346 0.23933,0.09534 0.0419,-0.613344 0.0778,0.239657 0.14278,0.371936 0.12782,-1.358218 0.001,0.4244 0.0873,0.02573 0.0531,-0.112214 0.0796,-0.54344 0.0274,0.499042 0.13222,-0.125456 0.0832,0.363682 0.1371,2.066385 0.10268,0.724816 0.1361,-0.365508 0.21126,-1.519749 0.14818,0.08538 0.036,0.139674 0.007,-0.121876 0.002,0.603263 0.0433,-0.691419 0.0609,0.205071 0.26236,-1.580553 0.23426,-0.272647 0.061,1.032623 0.0874,-0.465521 0.0831,-0.005 0.0862,1.207793 0.0511,-0.151527 0.13625,0.158581 0.13034,0.85455 0.004,1.017291 0.0651,-0.243122 0.11855,-0.205634 0.0428,-0.354 0.0495,0.79024 0.27941,0.384248 0.034,-0.880901 0.0868,0.0304 0.25581,-1.517958 0.0221,0.04839 0.0533,0.446026 0.0539,-0.152794 0.094,-0.924792 0.25461,1.125255 0.0543,0.578311 0.20741,-0.216432 0.0446,-1.337936 0.0471,0.783447 0.0766,0.789153 0.0537,-0.314146 0.2252,-0.281306 0.13441,1.113639 0.0266,-0.163979 0.0403,0.974247 0.18683,0.09827 0.016,-0.773913 0.15192,0.38025 0.0271,0.577096 0.11651,0.08941 0.087,0.564512 0.15991,0.262695 0.0357,-0.879064 0.14515,-0.08193 0.077,0.299097 0.24955,2.983823 0.0543,-0.661321 0.17222,0.209677 0.27647,-0.269841 0.0441,0.108705 0.0882,0.444386 0.19317,-0.743485 0.004,0.302441 0.0417,1.102849 0.0637,-0.516147 0.0824,-0.270144 0.0564,-1.26779 0.009,0.147595 0.10421,-0.30791 0.0815,-0.104324 0.0138,0.651012 0.0854,-0.246259 0.2188,-0.04818 0.0151,0.257571 0.006,-0.643345 0.21012,-0.102737 0.10939,0.915553 0.23826,-0.197076 0.10547,-1.036532 0.006,0.447947 0.14121,1.069254 0.0263,-0.79291 0.16758,0.09089 0.15203,2.179961 0.0898,0.32536 0.0687,-0.09449 0.0342,-0.0052 0.23597,1.08856 0.006,0.416854 0.10221,-0.136504 0.22611,-0.695005 0.21165,1.036163 0.13403,-0.723805 0.0388,-0.421451 0.10226,0.071 0.0993,-0.130959 0.15451,-0.614434 0.26588,-0.134701 0.19703,-1.700386 0.0158,0.961111 0.01,0.109534 0.16754,-1.262734 0.021,0.349142 0.44201,2.814012 0.007,-0.294873 0.0622,-0.735689 0.029,0.638804 0.0995,0.723464 0.0475,-0.06419 0.0349,0.442104 0.19402,-0.238084 0.0141,0.32453 0.19115,-0.290696 0.0832,-0.0559 0.0151,1.002516 0.0857,-0.511366 0.20511,-0.243312 0.22505,-1.400147 0.0765,-0.417774 0.001,0.08112 0.26086,0.594447 0.2394,-1.010783 0.23004,1.851249 0.12934,-1.097307 0.1752,0.946778 0.12105,0.895133 0.0678,1.131122 0.11027,-0.0129 0.11654,0.85187 0.0845,-0.29485 0.0185,0.08891 0.28766,1.199355 0.0555,0.528362 0.15854,0.104063 0.019,0.417281 0.2677,0.01313 0.28475,-1.21613 0.0711,0.140725 0.0485,-0.100923 0.0741,1.69424 0.0789,-0.329083 0.034,0.281205 0.0394,0.08015 0.1008,-1.428172 0.12502,0.852049 0.0116,-0.339383 0.0244,-0.342217 0.0613,0.557032 0.0299,0.417732 0.06,-0.602005 0.10973,0.08095 0.28666,-0.05548 0.0305,-0.131864 0.23124,1.813045 0.23077,0.112623 0.15663,0.644304 0.10311,-0.04261 0.0957,-0.570326 0.0988,0.812759 0.0842,-0.757623 0.005,0.357914 0.055,1.090725 0.088,-0.08308 0.31598,0.896307 0.10654,0.523069 0.0623,-0.51339 0.003,0.284778 0.11065,-0.243161 0.19536,1.808917 0.11727,-1.033699 0.0255,0.454159 0.24245,-0.06569 0.043,-0.492584 0.0233,0.299158 0.18415,1.023663 0.0856,0.152449 0.20709,-1.602635 0.004,0.262242 0.006,0.529476 0.008,-0.600901 0.0999,0.544134 0.22241,0.268654 0.0614,1.179999 0.31259,0.09937 0.0366,-0.946861 0.20124,-0.766098 0.13258,1.676771 0.13176,-0.09137 0.01,0.209188 0.10949,-0.728158 0.17057,1.76323 0.0536,-1.676203 0.0421,0.208389 0.39145,-0.491649 0.028,-0.437127 0.0189,0.16428 0.0109,1.135327 0.055,-1.438019 0.10236,-0.733517 0.0949,0.190328 0.0492,-0.471975 0.11762,-0.03769 0.21188,-1.907621 0.0409,0.36199 0.007,-0.774316 0.0311,0.518829 0.19455,-2.40861 0.12912,0.200623 0.0894,-0.147292 0.0262,-0.326164 0.037,0.856622 0.007,0.775656 0.0679,-0.601343 0.11085,-1.322017 0.27474,-0.02358 0.0792,0.266552 0.005,-0.54458 0.0237,0.06465 0.19183,-0.65583 0.21674,2.00617 0.16006,-0.170011 0.008,-0.318695 0.0963,0.853013 0.0457,-0.313364 0.10738,-0.130806 0.16476,-0.399817 0.14507,1.611824 0.21244,-0.394458 0.0503,1.505054 0.0628,-0.467871 0.058,0.161305 0.0139,-0.02961 0.0628,-0.59243 0.0124,0.633196 0.0671,0.256949 0.0124,0.05543 0.10069,-0.790035 0.14103,-0.07496 0.23142,1.679968 0.12253,-1.257291 0.0726,0.02742 0.0181,0.170053 0.0322,-0.370394 0.0858,-0.220362 0.0805,0.07997 0.0339,1.138787 0.0435,-0.807922 0.0509,-0.174609 0.16483,-1.348553 0.0804,-0.272132 0.11772,1.241505 0.0269,-0.844006 0.07,0.906363 0.0533,0.105788 0.12898,2.619213 0.11502,0.111711 0.0956,-1.301103 0.0983,1.210301 0.0504,-0.378259 0.002,-0.522467 0.003,0.06516 0.16681,-0.65292 0.007,0.122607 0.1666,-1.878663 0.0673,-0.707315 0.0822,0.567408 0.11844,2.277888 0.0274,-0.702157 0.11471,-0.883112 0.10397,0.3249 0.33553,0.0059 0.005,0.288317 0.0379,-0.970886 0.16818,-1.565944 0.0196,0.432883 0.18632,-0.588585 0.0649,0.204891 0.29283,0.05597 0.0779,-0.170848 0.007,-0.351107 0.0404,1.080073 0.0101,-0.08004 0.14613,-1.012405 0.26459,0.220404 0.14372,-0.172229 0.12454,-1.095939 0.0609,0.613175 0.0208,-0.503382 0.11469,-0.53318 0.004,0.153939 0.0289,0.228767 0.008,-0.277313 0.0424,0.160337 0.0384,-0.120568 1.8e-4,0.231588 0.0959,0.161314 0.18189,-0.773154 0.14242,0.543644 0.0866,-1.454628 0.0168,0.05065 0.0897,0.898461 0.14389,-1.15449 0.033,0.83674 0.0573,-0.529018 0.11626,-1.643922 0.05,0.300846 0.0637,-0.117465 0.21454,2.009693 0.13389,1.221762 0.007,-1.042175 0.0807,2.425481 0.0128,-0.31805 0.0352,0.108622 0.13526,-0.382287 0.14121,2.414871 0.026,-0.02663 0.11619,-0.02825 0.11144,-1.248091 0.12505,2.329128 0.0881,-0.229519 0.0793,-1.166014 0.0481,0.220371 0.0523,0.417328 0.007,-0.69174 0.026,0.62598 0.11191,-1.070883 0.043,0.15556 0.0813,0.03432 0.044,-1.473112 0.0557,0.918702 0.0404,-0.243302 0.11268,-1.24018 0.025,-0.05469 0.20838,1.892987 3.1e-4,0.430664 0.001,-0.91865 0.15786,0.04036 0.0678,1.081432 0.0131,-0.353053 0.12728,1.537528 0.0262,-0.325135 0.081,-0.473606 0.0752,0.04839 0.004,0.422597 0.0466,-1.17841 0.004,0.526101 0.1437,-0.300244 0.0135,-0.860308 0.0606,0.889359 0.0457,-0.06091 0.0249,0.389744 0.0722,-0.497863 0.0327,-0.01686 0.0184,-0.560319 0.0538,1.038833 0.17405,-0.146864 0.0716,-0.781249 0.0546,0.586234 0.17315,0.750214 0.0938,-0.685389 0.0986,0.08058 0.0469,1.606935 0.0847,0.241488 0.17008,-0.602842 0.12646,-2.522019 0.0251,0.120371 0.41614,-1.041705 0.0251,0.321247 0.10344,-0.344455 0.12491,0.645159 0.16742,2.025439 0.0877,-0.238959 0.0399,0.148519 0.11647,1.4388 -0.0839,-1.712169 0.1327,1.625349 0.0134,-1.055295 0.0953,0.0092 0.0184,0.02835 0.003,-0.06391 0.007,-0.324063 0.0739,1.726347 0.0583,1.295349 0.0565,-0.441608 0.0106,-0.764598 0.0336,0.349865 0.16845,-0.975634 0.0253,0.729615 0.0549,-0.435562 0.088,0.309368 0.001,-0.371415 0.0425,-0.116163 0.0138,0.198649 0.0126,1.348708 0.0907,-1.000511 0.051,-0.158231 0.0963,2.335131 0.0509,-0.464914 0.0383,-0.183686 0.007,0.153948 0.0397,0.76041 0.048,-0.967351 0.0212,0.461986 0.11644,0.205832 0.0233,-0.159811 0.0759,-1.285646 0.0502,0.407343 0.0445,-0.573767 0.0104,0.748747 0.30479,0.998735 0.0935,0.254983 0.0553,-0.12264 0.1535,1.536662 0.002,-0.642273 0.0737,0.17703 0.13905,-1.690921 0.0799,-1.477714 0.0186,1.013781 0.0924,0.200012 0.10732,-1.188376 0.0568,1.986046 0.0649,-0.655676 0.0324,-1.708323 0.0335,0.185467 0.16651,0.809638 0.01,-0.09634 0.12691,-1.785441 0.0201,0.200256 0.11879,0.02346 0.11674,-1.162484 0.27479,1.256012 0.002,-0.657875 0.0901,0.615798 0.18482,3.962948 0.0797,-1.696341 0.18933,-1.192382 0.23186,2.244015 0.0154,-0.588153 0.083,0.778011 0.0119,-0.552572 0.0159,0.244534 0.0249,-0.41376 0.0802,-0.06324 0.003,0.02754 0.17897,2.337345 0.0402,0.83953 0.053,-1.077971 0.24313,1.639241 0.16573,-1.866184 0.0544,-0.25866 0.0115,0.507716 0.0795,-1.365599 0.23889,0.06769 0.10304,1.278275 0.1308,-1.564336 0.11805,0.508383 0.0443,0.803231 0.29183,-3.233343 0.0117,0.527629 0.13913,-1.020527 0.13864,2.020766 0.0313,0.556915 0.0883,-0.03723 0.0491,-0.426391 0.10826,0.389729 0.16946,-1.592171 0.0158,0.6358 0.0211,1.141166 0.0706,-1.734319 0.0173,0.171082 0.0129,-0.542126 0.15159,0.171144 0.0596,-1.647245 0.0433,0.397185 0.12444,1.623144 0.10254,-0.750139 0.0415,0.846036 0.0366,-0.929495 0.11117,1.242708 0.16241,-0.299956 0.0279,-0.0202 0.21174,0.941718 0.0115,-0.964024 0.004,0.936044 0.14768,0.914495 0.0402,-0.476342 0.0208,-0.555491 0.0277,0.342255 0.10005,0.266073 0.0483,-0.155706 0.0173,-0.832249 0.088,1.184573 0.005,-0.64357 0.0507,-0.640219 0.0598,0.310933 0.0373,0.202889 0.0188,1.208186 0.0874,-1.001926 0.11252,0.259524 0.0648,-0.641389 0.0322,0.509262 0.0287,0.708161 0.0274,-0.829212 0.02,0.248534 0.0648,0.183855 0.0626,1.613618 0.0165,-0.725485 0.0223,-1.229589 0.19482,0.33896 0.0606,1.04218 0.0214,-0.220668 0.075,-0.239274 0.0446,-1.557454 0.0757,0.763889 0.17644,2.617731 0.0627,-0.78842 0.051,0.65934 0.10634,1.6931 0.0726,-0.78822 0.0601,0.27804 0.11788,1.18318 0.0184,-0.47677 0.10565,-0.33533 0.0358,1.27663 0.0494,-0.83935 0.0176,-0.80352 0.0882,0.54174 0.11878,-1.1477 0.0253,0.41108 0.10529,0.20663 0.0793,1.29352 0.0443,-0.5569 0.0701,0.0207 0.30081,-3.966791 0.19191,1.437441 0.041,1.24586 0.0644,-0.7752 0.0952,0.46187 0.004,-0.91119 0.0571,1.28534 0.0566,0.71996 0.0173,-1.15334 0.0314,-0.12477 0.0133,-0.63708 0.0525,1.12449 0.0492,-0.91087 0.0221,-0.008 0.0924,0.62441 0.18563,0.41461 0.008,0.75285 0.16556,-1.12063 0.0294,-0.63919 0.071,0.58505 0.0895,0.17666 0.13833,-1.972633 0.11852,-0.264964 0.0128,0.184344 0.0469,0.382518 0.0883,-1.186228 0.0999,0.874839 0.0108,-0.253719 0.0466,-0.619709 0.0316,0.904458 0.11351,-0.542897 0.0535,2.764591 0.0304,-0.35045 0.0666,0.33826 0.0243,-0.31328 0.11039,-2.199683 0.0488,0.06207 0.0855,-0.700287 0.0199,0.322714 0.002,0.446642 0.0236,-0.07139 0.0876,-0.266986 0.082,-1.376443 0.12087,1.215928 0.007,-0.471829 0.0957,-1.97278 0.006,0.08804 0.10259,-0.484752 0.14064,0.634677 0.19093,-1.587174 0.10958,1.500273 0.02,-0.205065 0.0265,1.234661 0.075,-1.01978 0.0997,-0.423397 -0.0351,0.958326 0.0532,-0.886943 0.0137,0.30423 0.0533,-0.983729 0.0833,-0.874204 0.0279,-0.866584 0.0221,1.236353 0.0377,-0.724416 0.0433,-0.258223 0.003,0.308602 0.052,0.671569 0.0814,-0.115185 0.21806,-0.03051 0.0748,-1.443341 0.0195,0.741508 0.0681,0.389598 0.1659,-0.330508 0.15105,1.39708 0.0164,0.03297 0.0483,-1.664469 0.0804,0.602151 0.0564,-0.150672 0.0705,1.010975 0.008,-0.757331 0.0658,2.236249 0.002,-0.53971 0.0276,-0.12014 0.0347,-1.447793 0.0232,0.861234 0.0859,0.61781 0.15127,-0.14976 0.0295,-0.479101 0.0117,1.326699 0.002,0.78217 0.10439,-0.51645 0.0284,0.898272 0.0777,1.178904 0.044,-0.642221 0.1578,-1.945581 0.0226,0.28679 0.22767,2.901359 0.1138,-0.567934 0.0177,0.995517 0.0964,-0.26165 0.0504,-0.431724 0.0226,0.632614 0.0782,1.00056 0.0855,-0.11965 0.0963,-2.66325 0.10195,0.926082 0.0189,-0.523774 0.0764,-0.01137 0.0913,0.346669 0.0601,0.327104 0.01,-0.202856 0.14119,2.161815 0.004,-0.5369 0.027,1.43053 0.0721,-0.14996 0.008,-0.12091 0.0258,0.69978 0.0734,0.23125 0.0372,-0.55105 0.19699,0.91526 0.0999,1.74379 -0.0828,-1.8386 0.0934,1.08598 0.0902,0.10961 0.001,1.33377 0.10237,-0.73406 0.0848,0.30632 0.18071,-0.35098 0.0702,0.55671 0.0394,-1.18604 0.0491,1.77015 0.3097,1.46482 0.11451,-0.90009 0.0111,0.56164 0.14997,1.72025 0.10964,-0.71059 0.11213,0.49532 0.0879,1.12461 0.007,-0.68953 0.0834,-1.30655 0.0332,0.94879 0.004,0.14434 0.0153,-0.2078 0.13428,-1.18305 0.13716,1.80472 0.0124,1.02931 0.0701,-0.60383 0.17133,2.40103 0.0254,-0.64685 0.0287,0.11378 0.1713,-0.73423 0.18725,0.36224 0.007,0.38843 0.15473,0.85707 0.12,-0.33294 0.0541,0.82989 0.0705,-0.49672 0.028,-0.7157 0.0364,0.77112 0.10415,1.92404 0.15244,1.32498 0.0157,-0.12517 0.0707,0.0836 0.0262,0.24848 0.0141,-0.57127 0.0461,0.23634 0.0646,-1.84908 0.0655,0.99892 0.0135,0.71501 0.0292,-1.39417 0.0731,0.27505 2e-5,-0.0924 0.01,-0.74252 0.0429,0.10014 0.1079,-0.31512 0.0321,1.67448 0.0882,-0.55301 0.0147,0.0899 0.15612,2.18404 0.12684,-0.90229 0.005,0.0587 0.16477,-2.78965 0.12441,3.08956 0.11254,-0.50322 0.016,-0.96178 0.0569,1.1415 0.0994,0.61625 0.0167,-0.36204 0.0188,-0.1478 0.006,0.083 0.0385,1.52337 0.0585,-1.97745 2e-5,0.45374 0.17233,1.44669 0.17591,1.63362 0.052,0.32969 0.0561,-0.13735 0.009,-0.99517 0.13253,0.6371 0.23803,-3.64765 0.0664,0.0766 0.006,0.27806 0.064,-0.86067 0.0467,-0.0193 0.14943,-1.70051 0.0248,0.66869 0.10264,0.66608 0.003,-0.34313 0.0451,1.33362 0.0762,-2.40272 0.0496,0.13227 0.14368,-0.56021 0.077,0.67653 0.0778,1.24177 0.0336,-0.36292 0.0542,0.16545 0.10854,3.60713 0.0293,-0.2108 0.11805,-0.17199 0.0939,1.30818 0.0275,-0.80534 0.10611,-0.64355 0.0938,-2.01567 0.0443,0.40829 0.0855,-0.37313 0.008,0.41388 0.0103,-0.22341 0.0944,0.63556 0.0113,-0.5075 0.0587,-0.19989 0.016,0.26838 0.0356,-0.24241 0.0119,0.34791 0.0852,-0.48247 0.10983,-0.76104 0.0349,0.17881 0.0552,1.59358 0.0271,-0.34775 0.25506,-0.76069 0.0321,0.59287 0.0683,-0.33555 0.13069,-2.09952 0.0328,-1.26026 0.0532,0.87886 0.13755,1.68692 0.002,-1.19721 0.18123,-0.26437 0.0622,-0.66384 0.0241,0.20524 0.18493,0.41415 0.052,-0.70778 0.009,0.91104 0.031,-0.1238 0.13195,-1.33746 0.0295,0.87068 0.0508,-0.98473 0.0321,0.6834 0.0393,-0.38516 0.0232,0.31225 0.0389,0.29909 0.11949,-3.41763 0.004,-0.86206 0.0803,1.07805 8.1e-4,-0.15527 0.0319,-0.0411 0.0347,0.1237 0.22092,-3.43964 0.13205,0.12924 0.13228,1.89592 -0.0684,-2.09438 0.0724,1.50517 0.0228,0.30772 0.0628,-0.38272 0.1281,0.24684 0.0249,-0.16574 0.23786,-1.89449 0.18873,-0.77848 0.0129,0.63184 0.0512,-0.23747 0.13194,0.68481 0.13508,-0.14033 0.35888,-4.6616 0.0198,1.23223 0.0734,-0.0796 0.004,0.31523 0.0907,-1.40255 0.1588,-0.64199 0.0185,-1.673984 0.0885,1.223194 0.041,0.50438 0.0457,-0.59724 0.0125,-0.34782 0.0312,0.76655 0.0706,0.97357 0.0285,-0.77976 0.0579,-3.545793 0.0504,2.166672 0.1427,-0.968767 0.0253,0.238216 0.0225,0.629073 0.0269,-1.596208 0.23736,1.853171 0.0622,-0.730978 0.10216,-1.152081 0.11417,-0.852373 0.026,1.318397 0.0883,-0.653109 0.14345,0.515618 0.0274,1.411827 0.0692,-0.16382 0.0879,0.710877 0.0524,-0.981651 0.0314,1.173059 0.0134,-0.310927 0.0819,1.684927 0.0611,-0.25553 0.0724,-2.000466 0.0362,0.738536 0.0531,-0.01058 0.045,0.364441 0.12657,0.31186 0.0308,0.18109 0.0502,0.37946 0.10786,-1.91589 0.29843,1.00342 0.15111,-0.0486 0.0888,0.40601 0.2129,-1.987799 0.0193,1.241609 0.084,-1.27837 0.0898,-0.148382 0.019,0.02075 0.0498,-0.378132 0.11796,1.135595 0.0172,-0.05154 0.10509,0.566519 0.12404,-1.516087 0.003,0.53066 0.10689,2.214487 0.15605,-0.23311 0.14201,0.43627 0.0316,0.7375 0.04,-0.92914 0.0712,-0.48148 0.0465,1.6571 0.0539,-0.10018 0.17338,-1.03035 0.005,0.34627 0.0371,-0.59635 0.14705,-0.64168 0.11597,0.35702 0.0255,-0.29112 0.25591,-0.287477 0.0895,0.118137 0.0894,-0.356879 0.009,0.340799 0.13485,1.93573 0.0482,-1.05392 0.17816,-0.40255 0.28276,-2.280493 0.15306,1.315285 0.086,0.775958 0.0196,-0.14554 0.12106,-1.192814 0.14128,2.570804 0.16111,-1.796954 0.0634,0.385334 0.0117,0.43718 0.21946,-1.351981 0.0466,-1.274472 0.0492,0.603068 0.12218,0.229345 0.10503,-2.166017 0.0538,0.488663 0.0853,2.040091 0.0307,-0.472497 0.0413,-0.0011 0.0587,-0.728355 0.0877,0.291439 0.0171,1.843876 0.10995,-0.0231 0.1851,-1.938356 0.0614,0.469583 0.0336,0.108284 0.22035,3.700269 0.0853,-0.64332 0.11172,0.15115 0.0875,-2.23074 0.0622,0.83419 0.0852,-0.805825 0.0197,1.895525 0.10089,0.18226 0.0397,-0.85167 -2.1e-4,1.17893 0.0502,-1.17113 0.0657,0.0199 0.12613,0.35231 0.13004,1.72597 0.0457,2.16072 0.0243,-1.20683 0.0661,-0.13317 0.0716,0.27862 0.0844,-1.86568 0.0254,0.55106 0.1797,1.19704 0.125,-0.58221 0.0779,1.19761 0.0675,-0.39545 0.11495,1.47554 0.0141,-0.79869 0.0901,1.09114 0.0461,-1.79719 0.0761,0.87954 0.0185,0.0325 1.7e-4,-0.21797 0.0494,0.96147 0.0569,-0.0606 0.0538,-1.72256 0.0592,0.0666 0.1005,3.68007 0.0768,0.55182 0.002,-0.0664 0.14943,-1.07673 0.003,0.51675 0.21011,1.35814 0.32347,-1.05899 0.002,1.11646 0.13468,0.3139 0.0208,1.12564 0.0169,-1.66643 0.20441,-2.12086 0.0141,0.52742 0.0579,1.02126 0.0425,-1.12544 0.0484,-0.022 0.0561,-0.25805 0.0983,-1.52651 0.0944,-1.20646 0.0936,0.1494 0.005,0.23017 0.047,-0.53112 0.0685,-1.78958 0.009,-0.80265 0.0449,0.93289 0.026,-0.1561 0.059,-1.55641 0.0436,1.64368 0.15257,1.33117 -0.0976,-1.42038 0.11454,1.3999 0.0835,-0.57735 0.0851,1.14971 0.0589,-0.98244 0.0927,0.30453 0.0317,-0.21435 0.017,0.36445 0.10223,1.42867 0.044,0.11072 0.0159,-1.0776 0.0863,1.10651 0.0825,0.76735 0.0507,-1.33608 0.0781,0.15872 0.0257,0.89461 0.10126,-0.0634 0.16224,-0.045 0.095,0.51838 0.0934,1.5708 0.0293,-0.38231 0.008,-0.28936 0.0387,1.36735 0.0263,-0.13143 0.0796,0.0394 0.12191,0.91877 0.20558,-0.74059 0.14088,-1.93741 0.0973,1.88022 0.0229,-0.92654 0.0229,-0.5124 5.2e-4,0.35332 0.13414,0.9062 0.0572,-0.12743 0.0509,-1.32703 0.0426,0.46628 0.138,1.03805 0.002,-0.36676 0.0558,0.79695 0.16743,-0.35921 0.0525,1.09157 0.0403,-1.23319 0.0164,1.00023 0.18482,1.01675 0.0995,1.15517 3.9e-4,-1.30934 0.007,0.18556 0.0394,-0.47983 0.0869,-1.02739 0.0692,0.0786 0.15098,-0.52049 0.0178,-0.8329 0.0602,1.69049 0.24208,-1.13777 0.11164,-1.03009 0.002,0.39601 0.11051,0.90525 0.019,-0.006 0.0603,-0.57757 0.002,0.09 0.19606,0.40063 0.0128,0.64245 0.139,-0.77048 0.15351,0.22602 0.0242,-1.35093 0.0809,1.20757 0.1241,1.50029 0.11521,1.2724 0.133,-1.34848 0.25487,3.54147 0.0706,-0.0112 0.0933,-0.46649 0.0453,-1 0.0688,1.25063 0.006,-1.86135 0.0111,0.45336 0.0435,-0.57987 0.0461,0.45125 0.0241,0.67744 0.0759,-0.89266 0.0555,0.2175 0.001,-0.69119 0.0702,0.31226 0.18656,-1.56853 0.003,0.47188 0.0444,0.51541 0.002,-0.0607 0.23234,-4.26235 0.0261,0.94919 0.0454,1.0538 0.18548,1.49165 0.0651,0.38727 8e-5,-0.61051 0.18201,-1.15168 0.0401,0.79673 0.11401,0.42959 0.0727,-1.20301 0.22733,0.30361 0.13472,2.64332 0.0197,-0.96349 0.0239,0.59052 0.12145,-0.58342 0.0238,0.39531 0.0189,1.47017 0.0536,-4.43286 0.001,0.40849 0.0507,-0.18599 0.0144,-0.78276 0.0823,0.29818 0.0665,-0.20307 0.20655,-2.45511 0.0827,-0.0883 0.028,0.0906 0.10308,-3.11937 0.15992,0.16422 0.0313,-0.96086 0.0509,1.21598 0.0495,0.24265 0.0541,-0.36112 0.004,0.68619 0.067,-0.60571 0.004,0.39206 0.0632,-0.84957 0.2826,3.24867 0.0794,-0.009 0.0491,-0.41874 0.0319,0.84642 0.0441,-1.3349 0.032,-0.42009 0.0331,1.01812 0.12644,0.8631 0.0681,-0.91034 0.008,1.61023 0.0954,-1.81001 0.0433,0.16062 0.0182,0.80501 0.065,-0.51474 0.32806,-1.12158 0.005,0.90073 0.25915,0.75124 0.006,-0.20435 0.0509,-0.84979 0.085,0.91436 0.0181,1.54236 0.008,-0.56258 0.23526,-0.53365 0.0863,-0.0632 0.17367,0.0244 0.0302,-0.61163 0.10869,-1.08929 0.0125,0.15732 0.16403,-0.33658 8e-4,-1.06529 0.0266,0.31475 0.0951,-0.13176 0.0442,-1.60657 0.22997,1.37409 0.0964,-0.51316 0.3879,-5.05812 0.0298,0.811273 0.0712,2.084026 0.0196,-1.245243 0.16657,-1.374079 0.026,-0.259764 0.005,-1.383899 0.0477,0.200003 0.0788,0.754205 0.0591,-1.142628 0.18873,2.077736 0.0143,-0.430528 0.0217,-1.259519 0.0566,1.332002 0.0559,1.284988 0.005,-1.328001 0.38642,2.570973 0.041,-0.86743 0.17031,1.296575 0.0861,0.73557 0.0743,1.2127 10e-4,-1.66022 0.005,-0.668438 0.066,2.585178 0.0313,0.24525 0.0196,-0.13956 0.1014,-1.97828 0.39886,-2.227255 0.11858,1.458492 0.0842,-0.876912 0.0984,1.207025 0.0184,-0.925002 0.0263,0.07315 0.10306,-0.565696 0.14225,0.603378 0.0202,-1.049315 0.07,0.549036 0.0735,-0.346909 0.21224,1.121483 0.21441,0.414902 0.0531,-1.166682 0.006,0.429306 0.13534,0.299191 0.1014,-0.130308 0.008,-0.9981 0.0322,1.241543 0.0697,0.529213 0.0207,-0.0442 0.002,-0.641217 0.10099,0.941867 0.35345,-0.495629 0.0108,1.344559 0.0923,-0.55266 0.22315,-1.009821 0.0645,-1.135562 0.18089,0.27413 0.10959,-0.100039 0.01,0.511491 0.0367,-0.517127 0.0199,0.242493 0.15866,-0.09292 0.1054,4.315975 0.0223,-0.39129 0.0428,-0.31051 0.0573,0.33834 0.0659,-0.33069 0.043,1.11158 0.0171,-1.25149 0.0626,-0.65293 0.0147,0.12491 0.43151,4.35204 0.0578,2.53294 0.0529,-0.46098 0.12135,-1.28815 0.0257,0.48357 0.20509,1.18741 0.0918,-2.11901 0.0424,0.28658 0.0845,-2.73135 0.0743,1.61265 0.0285,0.79524 0.001,-1.13314 0.16367,-0.0104 0.0388,0.9346 0.0238,-1.55491 0.0822,-1.52788 0.003,0.71789 0.0395,0.23238 0.0217,-0.588 0.0437,0.0339 0.1623,-0.26546 0.0203,-0.52452 0.0263,1.02733 0.0897,0.33701 0.0816,-1.68283 0.0537,0.80707 0.0689,-0.36032 0.0207,0.0836 0.14037,0.87602 0.0752,-0.27082 0.0737,1.48834 0.10868,-0.3764 0.12708,-2.32439 0.0789,-0.32739 0.037,1.06768 0.0338,-2.5114 0.0244,-1.367357 0.0684,0.44432 0.26445,-1.106572 0.0499,1.314274 0.0534,-1.317889 0.15478,0.105572 0.0363,0.613706 0.0941,-1.795281 0.027,0.850724 0.008,0.540777 0.20026,-0.04144 0.11445,3.162796 0.0541,-0.83709 0.0142,1.34945 0.009,1.08441 0.0802,-2.40501 0.0384,-2.90097 0.0544,1.014793 0.14018,1.521887 0.038,-1.098274 0.0372,0.351434 0.0526,-1.4376 0.25027,0.411541 0.20469,2.146089 0.29423,-3.919219 0.0635,0.582813 0.0201,-0.588529 0.11749,-1.511579 0.037,-0.700004 0.0524,0.620118 0.10587,1.002359 0.008,-0.40032 8.7e-4,-0.651835 0.10132,2.979421 0.0427,-0.177885 0.0159,0.158094 0.0438,0.422433 0.0647,-2.044336 0.0777,0.62748 0.008,0.219835 0.0231,-0.549798 0.0515,0.35734 0.25286,3.585622 0.10169,-0.6398 0.195,2.13295 0.0119,-1.35608 0.25782,0.77571 0.0869,-0.72023 0.17563,1.41458 0.0714,-0.63164 0.0363,0.066 0.006,-1.43488 0.0883,0.0481 0.21777,-3.308227 0.1348,0.972353 0.005,1.151216 0.0164,-0.401575 0.10918,-0.133815 0.0917,0.207157 0.0611,-0.943132 0.0954,0.804297 0.01,-0.04889 0.12719,-1.470216 0.0277,-1.216656 0.0261,0.689404 0.10024,0.433672 0.0288,-0.0274 0.1598,-0.893976 0.0514,-0.608826 0.0177,0.740991 0.0933,2.254271 0.002,-0.571342 0.14833,1.062915 0.063,3.127769 0.009,-0.62961 0.17991,-1.8671 0.27002,2.42436 0.0587,-0.7828 0.0289,0.11304 0.0879,0.23955 0.14956,-1.35951 0.0544,0.62352 0.003,-1.10764 0.0889,3.16879 0.0671,2.60508 0.0305,-1.10576 0.17149,-3.65644 0.15395,0.0992 0.0162,-1.41089 0.0764,1.94823 0.0255,-0.61974 0.15034,-0.0838 0.0517,1.44894 0.0821,-0.19829 0.0559,-0.2656 0.0365,1.51015 0.0152,2.73092 0.0693,-0.66719 0.3936,3.07135 0.1562,-1.79763 0.0682,-0.31734 0.0358,0.41798 0.008,-0.80638 0.25076,1.93656 0.0126,-0.33197 0.002,-1.07745 0.0742,0.97247 0.0465,0.66807 0.0386,-0.22009 0.19649,-0.7466 0.0171,0.34488 0.0473,0.30596 0.0842,2.85614 0.15566,-0.29588 0.0102,-0.65493 0.082,1.31088 0.0101,-0.83348 0.0216,-0.0881 0.0323,0.21168 0.019,-1.78557 0.30598,4.0834 0.001,1.07229 0.10593,-0.8253 0.0124,0.13524 0.0287,-0.78251 0.006,-0.12002 0.006,1.4501 0.0695,0.54176 0.0852,-1.56596 0.0493,0.40005 0.14902,-2.83853 0.0106,0.87527 0.0979,-0.39841 0.0714,-1.34954 0.027,0.22846 0.1473,-0.035 0.11636,-0.44258 0.0711,-1.95171 0.0541,-0.10757 0.0533,2.1788 0.005,-1.20385 0.16195,0.90012 0.1091,-3.02956 0.0508,-0.41454 0.11464,-1.32641 0.033,0.60834 0.0253,-0.40134 0.18424,-0.2777 0.10384,3.21183 0.006,-1.48192 0.0484,0.65001 0.0932,-1.24298 0.0914,-0.86465 10e-4,0.0708 0.14647,1.91548 0.11732,-0.75874 0.11143,-1.00691 0.19086,1.24407 0.063,-0.0531 0.0319,1.08738 0.0747,-0.43638 0.0888,0.49431 0.0366,-1.34628 0.08,1.03452 0.25936,-1.5802 0.23516,2.71195 0.0525,2.56728 0.1795,-0.24992 0.20508,-2.79418 -0.14403,2.83456 0.1722,-2.02948 0.10003,1.98749 0.1971,-0.63634 0.0217,0.0782 0.13724,-2.92503 0.0682,1.04168 0.0582,-0.0999 0.0557,-0.51507 0.0175,0.31802 0.0723,0.0151 0.0164,-0.11237 0.21745,-3.75419 0.0156,1.50731 0.27594,0.53557 0.0443,-0.3171 0.12123,0.15913 0.17931,-2.07817 0.23277,1.56217 0.0139,-1.16429 0.33911,3.78804 0.0375,1.51039 0.0742,-0.32503 0.10093,-2.05734 0.1905,0.84958 0.024,-1.72333 0.16514,2.06918 0.0606,2.265 0.059,-0.24054 0.0345,0.18622 0.35515,5.55499 0.0497,-0.98652 0.0278,1.34756 0.0712,1.0501 0.19666,0.59782 0.0264,0.7173 0.0491,-2.89929 0.0598,0.47483 0.0965,-1.05671 0.12079,2.05842 0.007,-0.94161 0.0412,-0.15919 0.0436,2.2753 0.11593,-1.92379 4.1e-4,1.14551 0.0779,-0.36394 0.10344,-1.71444 0.0592,0.54962 0.018,1.70676 0.065,-1.33359 0.19454,-2.91538 8e-5,0.68934 0.0633,-0.022 0.0966,0.78126 0.11334,-2.02592 0.003,0.19645 0.18983,1.99838 0.11676,2.93951 0.0268,-0.0753 0.0474,0.14682 0.20663,3.49726 0.0872,0.29788 0.16235,-0.59132 0.2004,6.10999 0.015,0.49862 0.0272,-2.25476 0.0283,0.77368 0.0534,0.61814 0.14238,-3.14467 0.0367,-0.0489 0.0297,-0.25321 0.002,0.29528 0.0559,1.34649 0.30822,-0.64921 0.0137,-0.77973 0.0405,1.14492 0.21511,1.25323 0.023,-0.44991 0.0705,-1.77231 0.21095,-2.42969 0.0576,2.83842 0.0867,-0.96108 0.17221,4.09598 0.0677,-0.61835 0.0686,-0.56318 0.0879,1.62429 0.2121,1.17789 0.0645,-0.19347 0.021,1.19499 0.0715,-1.36957 0.0482,0.20169 0.0376,2.5894 0.007,-1.57565 0.11901,0.40466 0.20495,1.69035 0.12347,-4.34286 0.0405,0.73399 0.058,1.15426 0.0266,-0.43061 0.15103,-2.61368 0.12342,-1.86288 0.2123,2.65332 0.0744,-1.24387 0.0866,-0.0764 1.8e-4,0.80234 0.11763,0.0501 0.17263,-1.54831 0.0452,0.20915 0.10651,2.95535 0.0177,-0.22036 0.0426,-1.93599 0.0663,1.14787 0.12382,2.76445 0.004,-0.39394 0.0778,0.2354 0.0341,1.78922 0.0718,-0.31218 0.17902,-1.8713 0.0522,-1.74337 0.12265,0.618 0.26909,0.2695 0.13691,-0.98317 0.0614,0.1795 0.14399,0.20013 0.0566,-1.65391 0.009,1.83155 0.0891,0.21527 0.0169,-1.61397 0.0543,2.07444 0.10005,-2.37389 0.004,0.66359 0.2563,3.19687 0.13225,-1.12429 0.12243,-0.01 0.2003,0.2232 0.0961,-1.77788 0.0904,0.43832 0.002,0.56575 0.0802,-2.68576 0.1349,0.23323 0.14093,-1.36076 1.9e-4,1.87627 0.0633,-0.87806 0.0562,0.55734 0.21359,-0.56443 0.0344,-1.48141 0.0205,1.52603 0.0496,-0.26884 0.0254,0.0751 0.074,-2.18417 0.0736,0.13406 0.10119,0.92793 0.0403,-1.02303 0.0426,1.40284 0.0787,-1.51194 0.0365,0.60763 0.0884,0.38772 0.007,-1.93511 0.0991,0.20517 0.0757,-0.64307 0.0286,-1.56827 0.0591,1.16222 0.0239,1.08959 0.0729,-0.23414 0.10638,0.53353 0.008,-0.37815 0.11624,-0.84575 0.0158,0.40421 0.32869,8.41318 0.006,1.63583 0.0311,-0.78587 0.23664,0.51694 0.0788,-1.74086 0.0352,1.25353 0.34379,4.54354 0.004,-1.55535 0.006,-1.94526 0.0333,0.93723 0.0993,0.71424 0.12855,-0.22419 0.002,-2.27131 0.0715,1.03174 0.13548,-0.47016 0.0414,0.1281 0.22952,-0.55851 0.0273,-4.07557 0.0831,1.51582 0.0255,-1.48104 0.0161,0.37276 0.14538,1.10052 0.0388,1.14754 0.19282,0.13271 0.003,-0.60595 0.0798,0.33714 0.11951,-1.02872 0.0114,0.10867 0.1709,-0.85366 0.13428,2.74757 0.0193,-0.39876 0.0635,0.0961 0.0551,-1.15078 3.1e-4,1.2097 0.0432,-1.01057 0.0795,0.94366 5e-4,-0.58934 0.0141,-1.31824 0.17425,0.24019 0.0696,0.42744 0.11502,-0.23032 0.13493,-1.74969 0.12045,1.01719 0.15099,-2.10876 0.0127,0.0636 0.10811,1.6388 0.0292,1.22046 0.0768,-0.36609 0.0735,0.24112 0.0134,1.82667 0.0748,-3.05833 0.13187,-0.37945 8e-4,0.0998 0.072,-2.58216 0.0133,0.0438 0.0401,1.79402 0.0403,-1.17718 0.14157,0.82088 0.01,-0.22804 0.0133,-2.73924 0.0952,2.75554 0.16259,1.79073 0.37024,-5.5103 0.10124,-0.66592 0.14937,0.68797 0.13997,2.47872 0.10621,-1.04137 0.10247,-2.06072 0.1067,1.94417 0.19068,-2.93002 0.0306,-0.70218 0.0312,1.1614 0.0935,-0.48131 0.19343,2.82107 0.0104,-0.30767 0.0907,0.43856 0.0359,-1.23403 0.0128,1.98911 0.10536,1.03125 0.0827,-0.77109 0.032,2.02487 0.0601,-0.62653 0.0535,-0.54768 0.13207,2.93631 0.14826,-3.78251 0.0108,0.11706 0.0411,0.0953 0.0955,2.11454 0.1871,-3.06483 0.0199,0.3272 0.26623,3.17657 0.12334,-0.44755 0.14842,1.59676 0.006,1.6899 0.0651,-1.67554 0.38812,-1.21227 0.0137,-0.48861 0.16922,0.1956 0.39164,1.35278 0.0517,-0.51556 0.16644,2.03609 0.003,-0.49876 0.23279,0.95292 0.0362,-0.45548 0.0121,1.26339 9.7e-4,-1.9e-4 0.15276,0.25173 0.0938,-0.23427 0.0554,-2.24376 0.0514,2.32278 0.19722,-1.71967 0.0133,0.41549 0.28697,-4.22214 0.035,2.49843 0.0638,-0.81164 0.0957,0.12679 0.092,-1.72148 0.0104,0.64718 0.0858,0.011 0.008,2.369 0.006,-1.94023 0.29009,3.3181 0.0318,-1.19326 0.0344,-0.75331 0.077,0.0828 0.1103,3.2232 0.096,-0.76305 0.0424,-0.91428 0.0538,0.11725 0.0465,-1.15047 0.0525,0.42455 0.0992,3.10327 0.0332,-0.0439 0.16539,0.55554 0.005,-1.31762 0.0849,1.01069 0.11872,0.24055 0.14457,-3.66782 0.0648,0.53565 0.0586,0.11088 0.0759,0.34358 10e-4,-2.27313 0.0704,-0.75751 0.0412,1.11984 0.0377,-2.12568 0.0537,2.50874 0.0793,-0.40149 0.13666,2.77379 0.007,0.0474 0.0795,-2.93162 0.0326,1.74327 0.0368,-0.34938 0.007,0.46345 0.0999,1.28874 0.0193,-3.5168 0.0312,6.05699 0.0535,1.35169 0.0577,-1.57782 0.33367,-1.23343 0.0815,1.77698 0.0245,-0.74829 0.0385,-1.95803 0.0564,2.15211 0.13261,4.45594 0.0378,-0.2951 0.15159,-2.0314 0.0193,1.22701 0.0805,0.76878 0.11198,2.21535 0.039,0.0519 0.14315,3.90641 0.0471,-0.87999 0.0564,0.89135 0.0708,0.98461 0.0331,-1.31333 0.002,0.71452 0.009,-1.027 0.0762,1.44448 0.1246,2.48258 0.0662,1.39691 0.14078,-0.36714 0.15082,1.31884 0.095,-0.66735 0.0414,-2.7196 0.0387,0.77561 0.0605,1.97261 0.0394,-0.92663 0.0114,-1.1374 0.0839,0.0974 0.0272,0.059 0.0386,-0.096 0.29419,6.7811 2e-5,-0.6941 0.10754,-1.0738 0.0538,1.5725 0.15086,0.76313 0.0144,5.55597 0.08,-0.55709 0.0282,0.41764 0.0165,-0.99438 0.0144,0.16427 0.0147,-0.18288 0.0276,1.80498 0.0827,-0.45205 0.0441,-0.0139 0.11283,1.90599 0.009,-1.55098 0.17182,1.38539 0.097,-0.9585 0.0584,1.02764 0.004,-0.24227 0.14161,-0.66243 0.0397,0.16597 0.18826,3.96004 0.0171,-0.7332 0.096,-0.19696 0.11092,0.57368 0.1405,-3.70252 0.004,1.70457 0.30677,6.77205 0.0315,-0.57118 0.1216,-2.35804 0.024,0.43102 0.0209,2.03563 0.10531,-0.46769 0.0989,1.50126 0.043,-0.72897 0.20415,-0.28783 0.0258,-0.20614 0.0374,0.75294 0.0587,-0.6756 0.006,0.37147 0.097,6.56483 0.20774,-0.77123 0.0817,-1.93655 0.22246,-3.35265 0.10743,-1.73092 0.0113,0.74283 0.0121,-0.84835 0.12139,-2.42851 0.0369,1.10988 0.10951,-0.176 0.10925,4.68358 0.0648,-2.35421 0.0601,-1.48449 0.15086,0.6031 0.0735,2.97491 0.21242,1.76135 0.0243,-0.51934 0.0907,3.95615 0.0679,1.72115 0.12676,1.95766 0.0553,-1.12749 0.002,1.96177 0.005,0.33885 0.0856,-1.08604 0.084,-4.31296 0.002,0.18345 0.0822,0.0675 0.0279,1.38235 0.0467,-1.7158 0.0756,-0.7912 0.0944,4.08865 0.057,-1.59987 0.0954,-1.24862 0.0125,0.42306 0.0703,-0.0455 0.0175,0.90787 0.12916,-1.25382 0.065,-1.90184 0.0797,2.97629 0.0681,-1.70153 0.0514,0.90535 0.004,-0.47571 0.0899,-4.24718 0.0155,1.58629 0.20207,6.07293 0.0103,-0.9704 0.11599,-0.89449 0.032,1.21326 0.0953,-0.30238 0.15268,-4.9044 0.0658,2.10267 0.0684,0.25764 0.0246,2.35143 0.0552,-3.21475 0.20077,4.48532 0.009,-0.0975 0.0622,0.0643 0.0105,-0.73327 0.0343,1.28652 0.058,-0.71567 0.0412,0.0641 0.0394,-3.19409 0.1023,0.32259 0.0262,-0.22307 0.0228,-3.64399 0.0555,1.9288 0.0904,0.71709 0.0972,-2.40351 0.19719,-0.70278 0.0569,-0.65119 0.004,0.41266 0.0547,0.35918 0.0102,-0.0385 0.0542,2.263 0.5175,-7.72518 0.0149,1.23534 0.0105,0.67211 0.10544,-2.57492 0.0938,3.03934 0.0331,-0.39719 0.0648,-1.60715 0.004,2.37696 0.008,-0.97793 0.0911,2.96154 0.0315,-0.91584 0.0645,-2.09707 0.1133,0.26343 0.0576,1.33762 0.20756,-1.64667 0.0868,-2.45406 -0.0342,3.47179 0.0528,-3.00417 0.14394,1.60292 0.0661,-0.6824 0.17112,-2.50649 0.10641,-2.92667 0.11916,2.52772 0.13014,-1.08373 0.0356,0.79865 0.0113,-0.56532 0.0636,-0.65586 0.0359,2.32302 0.0475,-2.86167 0.01,1.6375 0.14256,-3.48714 0.063,2.26601 0.23575,-2.57682 0.12789,-0.99675 0.11888,1.22435 0.0305,-0.4168 0.11951,-3.28823 0.009,0.18095 0.17782,-0.33333 0.007,1.19948 0.0822,-1.72633 0.0458,-0.28154 0.0876,-2.16678 0.037,0.49469 0.0939,-0.97418 0.0534,0.10879 0.0513,0.3977 0.0518,-0.57443 0.006,0.0887 0.0345,1.18023 0.0459,-0.38174 0.051,-1.4626 0.0128,1.82507 0.0495,-1.47022 0.21315,3.54697 0.11585,2.71489 0.006,-0.55043 0.0798,-2.75534 0.0772,1.62565 0.0863,-2.48157 0.0488,0.39799 0.16048,-4.9448 0.67281,6.3509 0.0538,-0.0677 0.0648,-4.21005 0.0659,-0.0787 0.0372,-0.31328 0.0899,0.12099 0.0652,1.66424 0.003,-1.65218 0.12458,-1.03698 0.13107,-3.05565 0.0311,-0.25542 0.0904,3.65197 0.10004,1.2581 0.061,-3.63287 0.10552,-1.06406 0.0585,1.74259 0.0323,-1.99447 0.041,1.16168 0.0813,-1.79529 -0.0485,2.37968 0.0951,-1.61162 0.10737,3.14135 0.032,-0.52681 0.016,-2.48465 2.5e-4,0.80381 0.1493,-0.81116 8e-5,-1.60239 0.0875,3.8241 0.0731,-2.08103 0.0461,0.39347 0.006,2.01437 0.16481,-2.72953 0.29125,5.8363 0.0798,0.65428 0.002,-0.62325 0.10225,-0.0955 0.12517,2.88427 0.0819,-0.16707 0.0279,1.03999 0.21795,-4.0669 0.0859,0.53622 0.0124,-1.64767 0.0838,1.16976 0.0226,1.51131 0.0624,-0.77556 0.15225,-0.84658 0.0821,1.4209 0.0551,-2.07534 0.0184,2.47341 0.0366,-0.0863 0.069,2.64056 0.15018,3.25334 0.005,1.16484 0.0882,-2.67585 0.024,0.23756 0.10595,4.10782 0.0186,-0.96653 0.0172,-0.67895 0.0755,0.41902 0.0692,1.40524 0.0626,-0.0423 0.11577,5.44828 0.0481,1.07454 0.0371,-4.22465 0.0494,-2.74892 0.048,0.29228 0.0829,0.59568 0.0447,2.43427 0.0536,-1.19113 0.0513,0.70372 0.15274,4.99368 0.098,-0.34106 0.0305,-1.31382 0.0437,2.85801 0.0888,1.57417 0.007,-1.71584 0.1024,-2.24458 0.15576,0.0982 0.0681,2.34 0.0152,-1.54762 0.0254,-0.98979 0.0596,1.60814 0.0434,0.3794 0.0109,2.27502 0.1814,0.65942 0.14097,-4.58732 0.0617,3.35676 0.0674,-2.93332 0.14045,-0.35094 0.004,-2.89573 0.017,3.15352 0.0389,-1.11524 0.13381,2.05939 0.12855,5.42041 0.0914,1.53163 0.0268,-1.92903 0.004,2.04835 0.073,-0.5182 0.0291,2.05738 0.0327,-3.01141 0.0767,-1.35393 0.18357,5.97839 0.0842,-0.824 0.0127,-2.16197 0.0924,1.00246 0.0834,1.35616 10e-4,-1.41553 0.17284,-1.74036 0.23713,1.01677 0.0669,-0.97865 0.0234,2.05111 0.0371,-2.61443 0.0263,1.73086 0.0224,-4.40277 0.0585,2.22959 0.049,0.024 0.0327,-1.42552 0.10886,-4.60579 0.11495,0.89719 0.0164,-2.6645 0.0619,1.88577 0.0424,-0.14764 0.0911,3.77457 0.0799,-0.82624 0.0633,-2.18462 0.0523,0.44761 0.0161,2.84881 0.17756,1.93367 0.0931,-3.86575 0.15386,-0.38709 0.075,-1.3011 -0.0625,2.95282 0.088,-1.80888 0.0636,2.825 0.0427,-0.55662 0.0491,-2.74305 0.12766,-0.71981 0.0523,3.48141 0.0164,-2.71409 0.0623,-0.18184 0.10972,2.80927 0.22367,-1.41015 0.10669,3.02102 0.096,-2.21215 0.0518,-2.35725 0.0128,2.59902 0.0421,-0.9604 0.0759,0.3362 0.11427,-1.33538 0.0745,0.13639 0.0431,-0.14574 0.0165,1.18467 0.0254,-1.70213 0.04,-1.39941 0.099,2.52981 0.0618,-0.0849 0.14678,-4.92479 0.23573,1.9245 0.13089,4.00752 0.0523,-0.37015 0.0975,0.82517 0.10598,4.14045 0.13639,-4.48485 0.009,1.9112 0.10603,2.96344 -0.0872,-3.80181 0.10628,2.84316 0.14691,1.40305 0.0288,-1.25544 0.14488,1.45484 0.042,-1.6599 0.17412,-2.51261 0.0324,-2.35064 0.0334,2.84664 0.12636,-1.34182 0.25311,9.58806 0.0848,-2.00568 0.0407,-0.53479 0.0133,1.12853 0.0762,0.48021 0.0243,-2.0979 0.0634,2.20911 0.1788,2.54196 0.0815,-1.13692 0.18757,-0.20121 0.13574,-1.88216 0.0238,0.0777 0.0674,4.05047 0.0136,-1.30832 0.14321,0.81011 0.10761,2.83308 0.0186,-0.74458 0.0453,2.60192 0.0876,1.28858 0.15663,-4.29506 0.0257,0.98185 0.0164,2.31965 0.0931,-2.15054 0.0419,-4.44116 0.0855,0.67085 0.24423,-0.93688 0.003,-1.17859 0.10717,1.54752 0.15173,-3.51674 -0.1282,4.57553 0.14377,-4.18629 0.0268,1.84922 0.0855,-1.01514 0.0329,-2.50951 0.003,2.02889 0.12209,-0.8666 0.12325,7.73594 0.0699,-1.11858 0.11523,-6.86888 0.0641,-3.41708 0.007,-0.96105 0.0892,1.98142 0.12269,-0.70561 0.0519,-2.63904 0.066,0.30195 0.36972,3.43779 0.051,-0.4876 0.15057,5.82736 0.11932,-2.51193 0.24999,7.37568 0.0242,-0.59711 0.1,-4.91637 0.0653,0.21302 0.38344,10.2212 0.1282,-0.41931 0.0426,2.00202 0.0541,-2.2657 0.0514,0.0609 0.003,0.73302 0.0394,-2.56175 0.0169,0.46626 0.13718,-0.55301 0.0686,0.0416 0.1672,-1.92757 0.0752,1.10259 0.14194,-1.58406 0.0952,-2.13666 0.0519,0.79629 0.1047,2.07945 0.0203,-0.96466 0.0553,2.17025 0.0535,1.97445 0.2757,-0.24151 0.0169,-1.4634 0.004,0.90815 0.0833,2.22402 0.0439,-0.38268 0.006,-2.07327 0.082,2.28159 0.0156,-0.29714 0.0719,0.27107 0.1366,-6.56666 0.01,0.5836 0.12408,0.0241 0.01,3.23589 0.0589,-1.19349 0.10003,-3.13377 0.0257,1.79989 0.0656,-0.64584 0.0601,1.64923 0.007,-2.14955 0.0466,0.14482 0.0413,4.56698 0.12652,1.47353 0.18492,-8.86556 0.13623,5.26362 0.024,-2.0717 0.0179,-2.87596 0.16301,1.51994 0.0118,-0.46103 0.0187,-0.36501 0.13536,0.8521 0.0858,-3.41999 0.0365,1.72302 0.15237,1.35866 0.0345,-5.24654 0.0812,-1.9429 0.11146,1.18703 2.3e-4,-0.92024 0.1062,0.38066 0.1138,3.71712 0.0398,-0.28372 0.0555,1.9162 0.11803,6.76532 0.0702,2.25623 0.0828,-0.66736 0.14976,-5.10987 0.085,1.36004 0.0388,1.05945 0.005,-1.0744 0.15707,-2.71948 0.0361,3.32278 0.066,-1.23693 0.023,0.16037 0.008,1.72714 0.0951,-0.8585 0.0777,-2.69234 0.0451,1.539 0.0878,2.68237 0.0111,-1.46175 0.43143,5.55878 0.0291,-4.85348 0.11478,0.93661 0.12275,-0.70443 0.11123,-2.13365 0.005,3.15563 0.011,-1.32157 0.13035,-6.08124 0.0949,1.18672 0.11382,4.39774 0.12629,4.16157 0.006,-1.25374 0.13161,2.96578 0.067,-1.99365 0.13165,2.44089 0.28329,-1.92415 0.0648,1.03673 0.0813,4.01698 0.008,-3.53955 0.041,-0.0707 0.0478,0.30248 0.19906,-3.7942 0.12342,4.81368 0.10233,0.41707 0.22031,-8.8449 0.089,3.61258 0.0301,-1.17735 0.0694,-0.63907 0.0534,0.0489 0.0528,-6.05221 0.0375,3.70868 0.0708,-0.91106 0.19188,-6.50738 0.0386,1.03214 0.0533,-3.88176 0.22805,1.22447 0.006,-0.51111 0.0387,-0.0477 0.0641,-0.80028 0.18004,8.02384 0.0444,-1.6895 0.0968,-1.03349 0.0808,1.81206 0.0324,2.56868 0.0637,-2.94905 0.0167,-0.0718 0.0982,5.60742 0.10039,-1.73461 0.18085,2.85318 0.14817,-0.46025 0.008,-0.71064 0.0538,0.54049 0.06,-0.45845 0.0223,1.0996 0.0877,-1.1395 0.0965,2.12918 0.0312,1.91386 0.0535,-1.96524 0.0329,1.32186 0.15767,0.67982 0.29884,6.33911 0.17749,0.40966 0.0565,-1.36892 0.0976,0.72024 0.0845,-2.77358 0.009,1.39044 0.0906,0.73923 0.0527,-0.0824 0.0243,-0.50303 0.0447,1.4982 0.031,1.00685 0.17228,-1.45531 0.0922,0.77971 0.35118,9.24202 0.0404,-0.81968 0.0219,-1.0636 0.0323,3.50443 0.008,2.71546 0.0865,-1.72606 0.10036,-2.29078 0.0331,-5.70079 0.0641,6.65538 0.0392,-0.51809 0.0519,1.05662 0.10225,5.41881 0.0721,-0.10594 0.0376,3.63461 0.11835,-2.54121 0.0596,0.79324 0.028,0.0431 0.0655,-2.26487 0.0198,2.52543 0.10792,2.90688 0.0506,-0.27545 0.0822,-5.07117 0.20826,-7.56377 0.0773,0.1655 0.0395,3.33015 0.0108,-4.44278 0.0702,3.0146 0.0942,-0.10353 0.0166,3.92309 0.17547,1.5085 0.0257,2.65717 0.0223,-1.95044 0.0737,-2.29483 0.0441,1.12042 0.0697,1.70043 0.014,-0.51404 0.14793,5.59424 0.0265,-1.22767 0.0483,1.1088 0.2047,-4.60833 0.005,-0.64629 0.0826,3.79682 0.0669,-2.20462 0.0215,2.27662 0.32329,-2.91088 0.0494,2.72717 0.0677,-0.24143 0.0271,1.88278 0.003,-3.52161 0.12033,-1.83689 0.0256,1.70139 0.0171,-3.85897 0.0912,-2.2362 0.017,0.12849 0.0589,1.73467 0.22532,0.65949 0.0383,1.38591 0.12864,-3.24986 0.10684,2.22569 0.0258,-1.2134 0.0751,0.19676 0.23599,-6.29877 0.12259,3.17587 0.0292,-0.12103 0.0902,2.32799 0.072,-0.93197 0.24277,2.283 0.088,6.43349 0.0238,-2.99196 0.0301,-3.32512 0.0553,3.8955 0.0215,-2.21511 0.47584,10.71014 0.13019,-1.96785 0.10922,7.1324 0.0875,1.73191 0.25054,9.6589 0.007,3.71279 0.003,-5.04749 0.052,1.98412 0.10426,3.48045 0.0665,-1.61717 0.12199,6.10841 0.0625,1.59268 2.2e-4,-1.34085 0.0208,-5.51386 0.0251,2.5275 0.13952,0.56027 0.14889,-3.07083 0.11071,-3.46644 0.10159,1.56412 0.0626,6.18977 0.0423,-4.88549 0.15976,-0.9651 0.0371,0.28525 0.0674,-2.54578 -0.0422,3.02331 0.0501,-0.12587 0.10896,0.0497 0.10959,3.98109 0.0303,-1.51142 0.16656,0.0438 0.009,2.43841 0.0208,-0.47383 0.0945,0.0197 0.0365,-5.16606 0.0559,2.29379 0.0963,0.45994 0.0152,-1.77931 0.0827,1.20496 0.0777,3.79022 0.0757,-0.35358 0.0968,-6.23875 0.10434,1.41069 0.0615,-1.0642 0.0167,1.56809 0.068,1.20547 0.0774,-0.73696 0.0409,0.91894 0.12793,-5.51534 0.20367,-1.76433 0.0555,2.65533 0.0486,-2.14395 0.1892,-3.72174 0.1049,3.51799 0.031,-0.67561 0.007,-2.57293 0.0742,2.87196 0.0649,0.3634 0.14507,-3.01562 0.0546,-6.77335 0.009,1.3297 0.15918,-1.62394 0.21429,1.26358 0.002,-0.11946 0.0818,2.871 0.05,-1.70698 0.114,-2.16982 0.12681,3.40932 0.0581,-3.67642 0.0113,3.44573 0.1067,0.7304 0.006,2.96618 10e-4,-0.18928 0.14455,-1.10244 0.0256,1.6685 0.10755,-7.36257 0.10084,0.15539 0.20134,4.84128 0.0628,-1.84168 0.30069,4.05945 0.0235,-2.04946 0.2165,-3.56782 0.0556,0.22846 0.14382,-4.02604 0.29864,1.70506 0.0315,0.24965 0.23337,-16.08399 0.0683,5.63443 0.0448,-5.15034 0.0699,-2.63637 0.14976,0.99905 0.0674,4.26501 0.0496,-2.50569 0.0152,-0.22782 0.22205,13.61089 0.0886,-4.64091 0.12917,0.91928 0.005,2.87717 0.10614,-1.11356 0.0218,-1.39762 0.0501,1.32126 0.12003,-4.66276 0.0442,-2.93799 0.0261,2.40911 0.10336,3.10755 0.30377,-3.29673 0.11854,-10.56064 0.0451,3.92611 0.31263,2.77966 0.0196,-0.3769 0.11202,-4.58896 0.078,8.91316 0.12197,0.28091 0.1015,0.726 0.14347,4.22517 0.18967,-0.17993 0.13824,6.25354 0.005,-5.00861 0.0738,2.61121 0.0474,-5.12054 0.20976,0.19995 0.10904,0.65073 0.0776,-12.1141 0.0541,4.18965 0.14116,-5.10323 0.10098,-2.11781 0.0571,0.95179 0.16651,5.83327 0.0153,-0.54852 0.17538,-3.79992 0.0314,0.69052 0.0633,3.46381 0.0922,-1.15346 0.0175,0.41501 0.0328,1.43461 0.0477,-1.94732 0.0139,-0.90125 0.0485,2.63487 0.0183,-0.59434 0.0649,8.03655 0.1652,2.0795 0.0254,1.78966 0.0645,-2.55699 0.18637,-4.24622 0.0879,4.06891 0.0484,-2.36376 0.22776,4.51872 0.10192,-16.31403 0.0154,5.44378 0.17375,-3.89092 0.0761,-0.30778 0.10047,-4.78176 0.0343,4.30835 0.10572,-0.35755 0.0687,-5.59821 0.1026,1.42419 0.007,-5.14213 0.0588,3.00635 0.10691,-2.72712 0.17759,0.50209 0.18455,3.3729 0.0261,-8.22035 0.0359,7.6036 0.0728,1.34534 0.11221,-6.72391 0.045,-1.78097 0.0318,6.23663 0.0938,-2.28814 0.002,2.50772 0.0159,-2.44895 0.14291,11.495 0.11949,2.97825 0.16903,-6.18226 0.0452,3.46889 0.10595,-0.57566 0.0776,0.73301 0.0585,1.73467 0.19365,-8.05813 0.069,0.46753 0.32674,-10.28104 0.0575,2.04469 0.13891,9.90308 0.0408,-0.82802 0.0191,4.15873 0.0944,-3.04896 0.0221,2.04373 0.0893,-2.00664 0.10686,0.3412 0.13921,11.34969 0.005,-1.87564 0.26741,-13.33606 0.2301,-1.95908 0.04,0.54517 0.0164,-2.22453 0.11845,4.413 0.0257,-2.3353 0.0227,2.82856 0.0672,2.07052 0.002,3.69186 0.0268,-3.23325 0.10039,0.14315 0.20108,4.59623 0.11835,2.57735 0.0293,-4.7206 0.11668,0.8637 0.0222,-5.26844 0.0233,0.87846 0.10323,-7.954 0.15626,1.77561 0.27024,14.42194 0.14809,-4.20079 0.14068,1.80823 0.11914,-6.00721 0.11294,4.07 0.0967,12.24284 0.003,-1.27006 0.27616,-9.76251 0.14302,1.85341 0.01,-0.96559 0.25884,8.55213 0.17777,1.29821 0.16046,-1.54041 0.0559,-1.82516 0.0736,4.31911 -0.003,-4.98636 0.0507,3.35518 0.0164,-4.12989 0.0513,3.78002 0.12851,4.56641 0.003,-4.42713 0.008,2.29892 0.16421,-3.30404 0.0748,0.213 0.0875,0.0123 0.0369,-1.60292 0.0537,4.86932 0.08,-2.66977 0.0451,-2.64701 0.009,0.92199 0.0553,3.01078 0.12824,-2.45335 0.1228,7.09949 0.1281,1.93248 0.0762,-5.37537 0.0188,3.5842 0.12653,4.29015 0.25106,-1.40603 0.0936,-1.68616 0.14246,5.3489 0.0204,-1.31537 0.10662,-0.11377 0.0768,0.58037 0.12761,-6.7304 0.0222,3.19305 0.10425,6.42592 0.0908,-0.30761 0.33914,1.89601 0.0832,-4.82312 0.2617,14.02333 0.005,-0.14375 0.17027,19.03487 0.0256,-3.44988 0.0378,0.47975 0.10663,-9.2587 0.0714,4.97135 0.0648,0.0465 0.0544,-3.16099 0.0384,4.31164 0.21412,-4.91797 0.13228,3.24949 0.0194,1.16841 0.0528,-3.9462 0.10258,1.70186 0.0171,-5.13367 0.0225,9.7638 0.0866,1.10247 0.22594,-1.28702 0.0108,-6.4136 0.15811,2.67507 0.0736,6.15509 0.0262,-3.36271 0.0279,-1.32852 0.0148,6.39971 0.0244,-6.80107 0.0427,4.71349 0.45701,12.7119 0.0201,-4.41598 0.0577,1.2038 0.24059,-0.94394 0.0775,8.01186 0.12259,4.35508 0.14196,-3.98571 0.10713,-7.97716 0.0377,4.61791 0.0435,2.72005 0.0196,-5.43434 0.10096,-11.1687 0.0859,-0.29375 0.0273,0.18465 0.0699,-5.8439 0.14422,0.91411 0.21557,-0.84374 0.26116,3.95575 0.005,2.73322 0.0335,-0.87593 0.30633,-11.39809 0.15022,0.0345 0.0215,-3.70224 0.004,6.50098 0.048,-1.60472 0.0609,0.25669 0.003,-0.15878 0.0114,-3.18355 0.10866,0.0296 0.16065,-13.60228 0.0385,2.07605 0.15102,5.84362 0.0137,7.99164 0.0812,-8.67667 0.11364,4.6571 0.0471,5.65718 0.0422,-3.0968 0.10978,-2.55995 0.011,-3.72541 0.0545,0.94237 0.0822,-3.39603 0.0416,9.73307 0.11597,-1.59403 0.0507,-12.41667 0.18323,4.17899 0.0161,-0.98297 0.15318,7.65864 0.11785,-0.69028 0.16887,11.74968 0.13072,-10.66617 0.0155,-0.0484 0.0374,-2.28935 0.003,3.23909 0.0808,-3.23524 0.0821,2.65822 0.0412,-2.79767 0.0674,0.75748 0.12943,-2.55127 0.20716,4.21139 0.20179,-1.74242 0.0838,-3.7049 0.0649,6.25477 0.0638,-4.19558 0.0601,-2.65824 0.0589,1.76415 0.0284,11.25684 0.0557,-2.11841 0.20661,-3.68173 0.34183,1.94399 0.0195,3.12146 0.13735,0.95396 0.0448,7.17232 0.0888,-2.33385 0.043,-0.72919 0.004,4.08023 0.034,5.54161 0.002,-6.2556 0.0763,1.09199 0.31757,-13.75256 0.0233,-1.7537 0.002,2.85496 0.12627,10.64866 0.0293,-6.92614 0.0122,3.71079 0.12188,-0.22678 0.008,-5.15252 0.0906,0.94553 0.0772,-0.87573 0.0482,5.02994 0.0731,-1.4401 0.0876,-2.63555 0.0587,1.95697 0.0295,-2.93546 0.0417,5.72711 0.006,-2.31739 0.0966,1.12324 0.0253,-2.26942 0.0525,4.2105 0.0289,-0.60513 0.0692,-5.21626 v 0" /></g></g><g
       id="g142"><path
         id="path144"
         style="fill:none;stroke:#000000;stroke-width:0.80000001;stroke-linecap:square;stroke-linejoin:miter;stroke-miterlimit:10;stroke-dasharray:none;stroke-opacity:1"
         d="m 51.95,37.54375 v 266.112" /><path
         id="path146"
         style="fill:none;stroke:#000000;stroke-width:0.80000001;stroke-linecap:square;stroke-linejoin:miter;stroke-miterlimit:10;stroke-dasharray:none;stroke-opacity:1"
         d="m 409.07,37.54375 v 266.112" /><path
         id="path148"
         style="fill:none;stroke:#000000;stroke-width:0.80000001;stroke-linecap:square;stroke-linejoin:miter;stroke-miterlimit:10;stroke-dasharray:none;stroke-opacity:1"
         d="M 51.95,37.54375 H 409.07" /><path
         id="path150"
         style="fill:none;stroke:#000000;stroke-width:0.80000001;stroke-linecap:square;stroke-linejoin:miter;stroke-miterlimit:10;stroke-dasharray:none;stroke-opacity:1"
         d="M 51.95,303.65575 H 409.07" /><g
         transform="translate(63.330313,309.65575)"
         id="g152"><text
           id="text156"
           style="font-variant:normal;font-weight:normal;font-size:12px;font-family:'DejaVu Sans';-inkscape-font-specification:DejaVuSans;writing-mode:lr-tb;fill:#000000;fill-opacity:1;fill-rule:nonzero;stroke:none"
           transform="scale(1,-1)"><tspan
             id="tspan154"
             y="0"
             x="0 3.54 15.228 22.848 30.204 36.804001 41.507999 45.324001 52.667999 56.891998 60.708 68.516747 75.860748 80.564751 87.920753 92.624748 95.960747 103.30475 110.91275 114.72875 122.01488 129.37088 134.30287 137.63887 144.99487 149.69887 153.03488 160.37888 167.98688 171.80287 179.14688 186.75487 190.57088 198.94687 202.28287 209.63887 215.89087 222.14287 225.47888 229.70288 233.03888 239.63887 246.99487 251.69887 255.03488 262.37888 269.98688 273.80289 278.48288 285.58688 294.12299 302.33099 309.91501 317.52301 324.90302 329.60699">Impact of Rotation Variation on Classification (xAAEnet)</tspan></text>
</g></g></g></svg>